{
.appVersion = "1273";
copyright = "Copyright 2010 Google Inc. All Rights Reserved.";
customParameters = (
{
name = glyphOrder;
value = (
.notdef,
.null,
nonmarkingreturn,
space,
exclam,
quotedbl,
numbersign,
dollar,
percent,
ampersand,
quotesingle,
parenleft,
parenright,
asterisk,
plus,
comma,
hyphen,
period,
slash,
zero,
one,
two,
three,
four,
five,
six,
seven,
eight,
nine,
colon,
semicolon,
less,
equal,
greater,
question,
at,
A,
B,
C,
D,
E,
F,
G,
H,
I,
J,
K,
L,
M,
N,
O,
P,
Q,
R,
S,
T,
U,
V,
W,
X,
Y,
Z,
bracketleft,
backslash,
bracketright,
asciicircum,
underscore,
grave,
a,
b,
c,
d,
e,
f,
g,
h,
i,
j,
k,
l,
m,
n,
o,
p,
q,
r,
s,
t,
u,
v,
w,
x,
y,
z,
braceleft,
bar,
braceright,
asciitilde,
Adieresis,
Aring,
Ccedilla,
Eacute,
Ntilde,
Odieresis,
Udieresis,
aacute,
agrave,
acircumflex,
adieresis,
atilde,
aring,
ccedilla,
eacute,
egrave,
ecircumflex,
edieresis,
iacute,
igrave,
icircumflex,
idieresis,
ntilde,
oacute,
ograve,
ocircumflex,
odieresis,
otilde,
uacute,
ugrave,
ucircumflex,
udieresis,
dagger,
degree,
cent,
sterling,
section,
bullet,
paragraph,
germandbls,
registered,
copyright,
trademark,
acute,
dieresis,
notequal,
AE,
Oslash,
infinity,
plusminus,
lessequal,
greaterequal,
yen,
mu1,
partialdiff,
summation,
product,
integral,
ordfeminine,
ordmasculine,
Ohm,
ae,
oslash,
questiondown,
exclamdown,
logicalnot,
radical,
florin,
approxequal,
uni2206,
guillemotleft,
guillemotright,
ellipsis,
Agrave,
Atilde,
Otilde,
OE,
oe,
endash,
emdash,
quotedblleft,
quotedblright,
quoteleft,
quoteright,
divide,
lozenge,
ydieresis,
Ydieresis,
fraction,
Euro,
guilsinglleft,
guilsinglright,
fi,
fl,
daggerdbl,
periodcentered,
quotesinglbase,
quotedblbase,
perthousand,
Acircumflex,
Ecircumflex,
Aacute,
Edieresis,
Egrave,
Iacute,
Icircumflex,
Idieresis,
Igrave,
Oacute,
Ocircumflex,
Ograve,
Uacute,
Ucircumflex,
Ugrave,
dotlessi,
circumflex,
tilde,
macron,
breve,
dotaccent,
ring,
cedilla,
hungarumlaut,
ogonek,
caron,
Lslash,
lslash,
Scaron,
scaron,
Zcaron,
zcaron,
brokenbar,
Eth,
eth,

glyphs = (
{
glyphname = .notdef;
lastChange = "2019-11-18 14:23:36 +0000";
layers = (
{
layerId = "489D640B-457E-495A-B1F8-D23C81511CE7";
paths = (
{
closed = 1;
nodes = (
"205 0 LINE",
"1330 0 LINE",
"1330 1409 LINE",
"205 1409 LINE"
);
},
{
closed = 1;
nodes = (
"1254 1333 LINE",
"1254 76 LINE",
"281 76 LINE",
"281 1333 LINE"
);
}
);
width = 1536;
}
);
note = .notdef;
},
{
glyphname = exclam;
lastChange = "2019-11-18 14:23:36 +0000";
layers = (
{
layerId = "489D640B-457E-495A-B1F8-D23C81511CE7";
paths = (
{
closed = 1;
nodes = (
"383 1409 LINE",
"187 1409 LINE",
"211 397 LINE",
"359 397 LINE"
);
},
{
closed = 1;
nodes = (
"379 0 LINE",
"379 201 LINE",
"185 201 LINE",
"185 0 LINE"
);
}
);
width = 569;
}
);
note = exclam;
unicode = 0021;
},
{
glyphname = quotedbl;
lastChange = "2019-11-18 14:23:36 +0000";
layers = (
{
layerId = "489D640B-457E-495A-B1F8-D23C81511CE7";
paths = (
{
closed = 1;
nodes = (
"640 1409 LINE",
"456 1409 LINE",
"476 966 LINE",
"618 966 LINE"
);
},
{
closed = 1;
nodes = (
"271 1409 LINE",
"87 1409 LINE",
"108 966 LINE",
"249 966 LINE"
);
}
);
width = 727;
}
);
note = quotedbl;
unicode = 0022;
},
{
glyphname = numbersign;
lastChange = "2019-11-18 14:23:36 +0000";
layers = (
{
layerId = "489D640B-457E-495A-B1F8-D23C81511CE7";
paths = (
{
closed = 1;
nodes = (
"1129 885 LINE",
"1129 993 LINE",
"918 993 LINE",
"1006 1401 LINE",
"896 1401 LINE",
"808 993 LINE",
"445 993 LINE",
"533 1401 LINE",
"423 1401 LINE",
"334 993 LINE",
"60 993 LINE",
"60 885 LINE",
"312 885 LINE",
"234 516 LINE",
"9 516 LINE",
"9 408 LINE",
"210 408 LINE",
"126 0 LINE",
"236 0 LINE",
"320 408 LINE",
"683 408 LINE",
"597 0 LINE",
"707 0 LINE",
"795 408 LINE",
"1078 408 LINE",
"1078 516 LINE",
"818 516 LINE",
"896 885 LINE"
);
},
{
closed = 1;
nodes = (
"785 885 LINE",
"707 516 LINE",
"345 516 LINE",
"425 885 LINE"
);
}
);
width = 1139;
}
);
note = numbersign;
unicode = 0023;
},
{
glyphname = dollar;
lastChange = "2019-11-18 14:23:36 +0000";
layers = (
{
layerId = "489D640B-457E-495A-B1F8-D23C81511CE7";
paths = (
{
closed = 1;
nodes = (
"518 -142 LINE",
"642 -142 LINE",
"642 20 LINE",
"864 31 OFFCURVE",
"1106 231 OFFCURVE",
"1106 396 QCURVE SMOOTH",
"1106 477 OFFCURVE",
"1060 597 OFFCURVE",
"972 685 OFFCURVE",
"821 755 OFFCURVE",
"642 797 QCURVE",
"642 1242 LINE",
"759 1231 OFFCURVE",
"881 1126 OFFCURVE",
"901 1032 QCURVE",
"1075 1065 LINE",
"1033 1225 OFFCURVE",
"829 1376 OFFCURVE",
"642 1385 QCURVE",
"642 1516 LINE",
"518 1516 LINE",
"518 1385 LINE",
"311 1376 OFFCURVE",
"86 1201 OFFCURVE",
"86 1046 QCURVE SMOOTH",
"86 973 OFFCURVE",
"123 869 OFFCURVE",
"206 778 OFFCURVE",
"341 708 OFFCURVE",
"518 664 QCURVE",
"518 168 LINE",
"376 177 OFFCURVE",
"217 297 OFFCURVE",
"192 416 QCURVE",
"22 379 LINE",
"92 38 OFFCURVE",
"518 20 QCURVE"
);
},
{
closed = 1;
nodes = (
"934 292 OFFCURVE",
"783 176 OFFCURVE",
"642 167 QCURVE",
"642 635 LINE",
"784 598 OFFCURVE",
"882 543 OFFCURVE",
"934 459 OFFCURVE",
"934 394 QCURVE SMOOTH"
);
},
{
closed = 1;
nodes = (
"258 1230 OFFCURVE",
"518 1244 QCURVE",
"518 823 LINE",
"407 851 OFFCURVE",
"308 907 OFFCURVE",
"258 989 OFFCURVE",
"258 1048 QCURVE SMOOTH"
);
}
);
width = 1139;
}
);
note = dollar;
unicode = 0024;
},
{
glyphname = percent;
lastChange = "2019-11-18 14:23:36 +0000";
layers = (
{
layerId = "489D640B-457E-495A-B1F8-D23C81511CE7";
paths = (
{
closed = 1;
nodes = (
"1748 656 OFFCURVE",
"1596 885 OFFCURVE",
"1432 885 QCURVE SMOOTH",
"1266 885 OFFCURVE",
"1113 662 OFFCURVE",
"1113 434 QCURVE SMOOTH",
"1113 213 OFFCURVE",
"1272 -12 OFFCURVE",
"1428 -12 QCURVE SMOOTH",
"1586 -12 OFFCURVE",
"1748 219 OFFCURVE",
"1748 434 QCURVE SMOOTH"
);
},
{
closed = 1;
nodes = (
"1451 1409 LINE",
"1294 1409 LINE",
"372 0 LINE",
"527 0 LINE"
);
},
{
closed = 1;
nodes = (
"227 1421 OFFCURVE",
"73 1198 OFFCURVE",
"73 975 QCURVE SMOOTH",
"73 756 OFFCURVE",
"232 524 OFFCURVE",
"390 524 QCURVE SMOOTH",
"548 524 OFFCURVE",
"707 758 OFFCURVE",
"707 975 QCURVE SMOOTH",
"707 1197 OFFCURVE",
"553 1421 OFFCURVE",
"394 1421 QCURVE SMOOTH"
);
},
{
closed = 1;
nodes = (
"1600 265 OFFCURVE",
"1518 98 OFFCURVE",
"1430 98 QCURVE SMOOTH",
"1339 98 OFFCURVE",
"1260 263 OFFCURVE",
"1260 434 QCURVE SMOOTH",
"1260 616 OFFCURVE",
"1341 774 OFFCURVE",
"1432 774 QCURVE SMOOTH",
"1523 774 OFFCURVE",
"1600 613 OFFCURVE",
"1600 434 QCURVE SMOOTH"
);
},
{
closed = 1;
nodes = (
"560 805 OFFCURVE",
"479 637 OFFCURVE",
"392 637 QCURVE SMOOTH",
"300 637 OFFCURVE",
"220 802 OFFCURVE",
"220 975 QCURVE SMOOTH",
"220 1154 OFFCURVE",
"300 1313 OFFCURVE",
"394 1313 QCURVE SMOOTH",
"484 1313 OFFCURVE",
"560 1151 OFFCURVE",
"560 975 QCURVE SMOOTH"
);
}
);
width = 1821;
}
);
note = percent;
unicode = 0025;
},
{
glyphname = ampersand;
lastChange = "2019-11-18 14:23:36 +0000";
layers = (
{
layerId = "489D640B-457E-495A-B1F8-D23C81511CE7";
paths = (
{
closed = 1;
nodes = (
"1278 -12 OFFCURVE",
"1334 10 QCURVE",
"1334 145 LINE",
"1288 129 OFFCURVE",
"1217 129 QCURVE SMOOTH",
"1105 129 OFFCURVE",
"1009 227 QCURVE",
"1158 447 OFFCURVE",
"1221 696 QCURVE",
"1076 739 LINE",
"1018 495 OFFCURVE",
"905 329 QCURVE",
"723 536 OFFCURVE",
"612 741 QCURVE",
"838 831 OFFCURVE",
"1021 1015 OFFCURVE",
"1021 1133 QCURVE SMOOTH",
"1021 1265 OFFCURVE",
"836 1417 OFFCURVE",
"685 1417 QCURVE SMOOTH",
"517 1417 OFFCURVE",
"334 1252 OFFCURVE",
"334 1102 QCURVE SMOOTH",
"334 1032 OFFCURVE",
"382 862 OFFCURVE",
"415 800 QCURVE",
"72 649 OFFCURVE",
"72 371 QCURVE SMOOTH",
"72 187 OFFCURVE",
"308 -20 OFFCURVE",
"523 -20 QCURVE SMOOTH",
"628 -20 OFFCURVE",
"820 50 OFFCURVE",
"895 115 QCURVE",
"1016 -12 OFFCURVE",
"1193 -12 QCURVE SMOOTH"
);
},
{
closed = 1;
nodes = (
"869 1079 OFFCURVE",
"806 989 OFFCURVE",
"683 911 OFFCURVE",
"552 858 QCURVE",
"487 988 OFFCURVE",
"487 1102 QCURVE SMOOTH",
"487 1193 OFFCURVE",
"587 1296 OFFCURVE",
"683 1296 QCURVE SMOOTH",
"769 1296 OFFCURVE",
"869 1205 OFFCURVE",
"869 1133 QCURVE SMOOTH"
);
},
{
closed = 1;
nodes = (
"742 166 OFFCURVE",
"600 111 OFFCURVE",
"529 111 QCURVE SMOOTH",
"395 111 OFFCURVE",
"240 252 OFFCURVE",
"240 373 QCURVE SMOOTH",
"240 574 OFFCURVE",
"476 674 QCURVE",
"597 451 OFFCURVE",
"795 217 QCURVE"
);
}
);
width = 1366;
}
);
note = ampersand;
unicode = 0026;
},
{
glyphname = quotesingle;
lastChange = "2019-11-18 14:23:36 +0000";
layers = (
{
layerId = "489D640B-457E-495A-B1F8-D23C81511CE7";
paths = (
{
closed = 1;
nodes = (
"288 1409 LINE",
"104 1409 LINE",
"125 966 LINE",
"266 966 LINE"
);
}
);
width = 391;
}
);
note = quotesingle;
unicode = 0027;
},
{
glyphname = parenleft;
lastChange = "2019-11-18 14:23:36 +0000";
layers = (
{
layerId = "489D640B-457E-495A-B1F8-D23C81511CE7";
paths = (
{
closed = 1;
nodes = (
"127 528 LINE SMOOTH",
"127 241 OFFCURVE",
"307 -220 OFFCURVE",
"496 -424 QCURVE",
"670 -424 LINE",
"481 -213 OFFCURVE",
"308 253 OFFCURVE",
"308 530 QCURVE SMOOTH",
"308 808 OFFCURVE",
"483 1276 OFFCURVE",
"670 1484 QCURVE",
"496 1484 LINE",
"308 1281 OFFCURVE",
"127 821 OFFCURVE",
"127 532 QCURVE SMOOTH"
);
}
);
width = 682;
}
);
note = parenleft;
unicode = 0028;
},
{
glyphname = parenright;
lastChange = "2019-11-18 14:23:36 +0000";
layers = (
{
layerId = "489D640B-457E-495A-B1F8-D23C81511CE7";
paths = (
{
closed = 1;
nodes = (
"555 532 LINE SMOOTH",
"555 819 OFFCURVE",
"375 1280 OFFCURVE",
"186 1484 QCURVE",
"12 1484 LINE",
"199 1275 OFFCURVE",
"374 809 OFFCURVE",
"374 530 QCURVE SMOOTH",
"374 251 OFFCURVE",
"200 -214 OFFCURVE",
"12 -424 QCURVE",
"186 -424 LINE",
"374 -221 OFFCURVE",
"555 239 OFFCURVE",
"555 528 QCURVE SMOOTH"
);
}
);
width = 682;
}
);
note = parenright;
unicode = 0029;
},
{
glyphname = asterisk;
lastChange = "2019-11-18 14:23:36 +0000";
layers = (
{
layerId = "489D640B-457E-495A-B1F8-D23C81511CE7";
paths = (
{
closed = 1;
nodes = (
"469 1409 LINE",
"333 1409 LINE",
"345 1112 LINE",
"78 1219 LINE",
"33 1085 LINE",
"313 1012 LINE",
"124 764 LINE",
"243 692 LINE",
"399 948 LINE",
"549 690 LINE",
"668 762 LINE",
"483 1012 LINE",
"765 1085 LINE",
"720 1217 LINE",
"456 1114 LINE"
);
}
);
width = 797;
}
);
note = asterisk;
unicode = 002A;
},
{
glyphname = plus;
lastChange = "2019-11-18 14:23:36 +0000";
layers = (
{
layerId = "489D640B-457E-495A-B1F8-D23C81511CE7";
paths = (
{
closed = 1;
nodes = (
"1095 608 LINE",
"1095 754 LINE",
"671 754 LINE",
"671 1182 LINE",
"524 1182 LINE",
"524 754 LINE",
"100 754 LINE",
"100 608 LINE",
"524 608 LINE",
"524 180 LINE",
"671 180 LINE",
"671 608 LINE"
);
}
);
width = 1196;
}
);
note = plus;
unicode = 002B;
},
{
glyphname = comma;
lastChange = "2019-11-18 14:23:36 +0000";
layers = (
{
layerId = "489D640B-457E-495A-B1F8-D23C81511CE7";
paths = (
{
closed = 1;
nodes = (
"190 219 LINE",
"190 0 LINE",
"278 0 LINE",
"278 -126 OFFCURVE",
"184 -262 QCURVE",
"307 -262 LINE",
"347 -197 OFFCURVE",
"385 -55 OFFCURVE",
"385 51 QCURVE SMOOTH",
"385 219 LINE"
);
}
);
width = 569;
}
);
note = comma;
unicode = 002C;
},
{
glyphname = hyphen;
lastChange = "2019-11-18 14:23:36 +0000";
layers = (
{
layerId = "489D640B-457E-495A-B1F8-D23C81511CE7";
paths = (
{
closed = 1;
nodes = (
"591 464 LINE",
"591 624 LINE",
"91 624 LINE",
"91 464 LINE"
);
}
);
width = 682;
}
);
note = hyphen;
unicode = "002D,00AD";
},
{
glyphname = period;
lastChange = "2019-11-18 14:23:36 +0000";
layers = (
{
layerId = "489D640B-457E-495A-B1F8-D23C81511CE7";
paths = (
{
closed = 1;
nodes = (
"382 0 LINE",
"382 219 LINE",
"187 219 LINE",
"187 0 LINE"
);
}
);
width = 569;
}
);
note = period;
unicode = 002E;
},
{
glyphname = slash;
lastChange = "2019-11-18 14:23:36 +0000";
layers = (
{
layerId = "489D640B-457E-495A-B1F8-D23C81511CE7";
paths = (
{
closed = 1;
nodes = (
"162 -20 LINE",
"569 1484 LINE",
"411 1484 LINE",
"0 -20 LINE"
);
}
);
width = 569;
}
);
note = slash;
unicode = 002F;
},
{
glyphname = zero;
lastChange = "2019-11-18 14:23:36 +0000";
layers = (
{
layerId = "489D640B-457E-495A-B1F8-D23C81511CE7";
paths = (
{
closed = 1;
nodes = (
"1059 1064 OFFCURVE",
"822 1430 OFFCURVE",
"573 1430 QCURVE SMOOTH",
"317 1430 OFFCURVE",
"80 1068 OFFCURVE",
"80 705 QCURVE SMOOTH",
"80 350 OFFCURVE",
"324 -20 OFFCURVE",
"567 -20 QCURVE SMOOTH",
"810 -20 OFFCURVE",
"1059 352 OFFCURVE",
"1059 705 QCURVE SMOOTH"
);
},
{
closed = 1;
nodes = (
"876 411 OFFCURVE",
"728 127 OFFCURVE",
"569 127 QCURVE SMOOTH",
"409 127 OFFCURVE",
"262 405 OFFCURVE",
"262 705 QCURVE SMOOTH",
"262 1014 OFFCURVE",
"407 1284 OFFCURVE",
"573 1284 QCURVE SMOOTH",
"735 1284 OFFCURVE",
"876 1010 OFFCURVE",
"876 705 QCURVE SMOOTH"
);
}
);
width = 1139;
}
);
note = zero;
unicode = 0030;
},
{
glyphname = one;
lastChange = "2019-11-18 14:23:36 +0000";
layers = (
{
layerId = "489D640B-457E-495A-B1F8-D23C81511CE7";
paths = (
{
closed = 1;
nodes = (
"1039 0 LINE",
"1039 153 LINE",
"696 153 LINE",
"696 1409 LINE",
"530 1409 LINE",
"197 1180 LINE",
"197 1010 LINE",
"515 1237 LINE",
"515 153 LINE",
"156 153 LINE",
"156 0 LINE"
);
}
);
width = 1139;
}
);
note = one;
unicode = 0031;
},
{
glyphname = two;
lastChange = "2019-11-18 14:23:36 +0000";
layers = (
{
layerId = "489D640B-457E-495A-B1F8-D23C81511CE7";
paths = (
{
closed = 1;
nodes = (
"1036 0 LINE",
"1036 153 LINE",
"301 153 LINE",
"331 223 OFFCURVE",
"467 374 OFFCURVE",
"582 468 QCURVE SMOOTH",
"791 638 OFFCURVE",
"939 800 OFFCURVE",
"1014 962 OFFCURVE",
"1014 1044 QCURVE SMOOTH",
"1014 1229 OFFCURVE",
"785 1430 OFFCURVE",
"572 1430 QCURVE SMOOTH",
"378 1430 OFFCURVE",
"131 1230 OFFCURVE",
"111 1061 QCURVE",
"295 1044 LINE",
"308 1157 OFFCURVE",
"457 1282 OFFCURVE",
"572 1282 QCURVE SMOOTH",
"693 1282 OFFCURVE",
"829 1154 OFFCURVE",
"829 1038 QCURVE SMOOTH",
"829 952 OFFCURVE",
"750 816 OFFCURVE",
"622 692 OFFCURVE",
"463 568 OFFCURVE",
"301 423 OFFCURVE",
"154 244 OFFCURVE",
"103 127 QCURVE",
"103 0 LINE"
);
}
);
width = 1139;
}
);
note = two;
unicode = 0032;
},
{
glyphname = three;
lastChange = "2019-11-18 14:23:36 +0000";
layers = (
{
layerId = "489D640B-457E-495A-B1F8-D23C81511CE7";
paths = (
{
closed = 1;
nodes = (
"1049 524 OFFCURVE",
"873 702 OFFCURVE",
"715 719 QCURVE",
"715 723 LINE",
"859 753 OFFCURVE",
"1010 922 OFFCURVE",
"1010 1057 QCURVE SMOOTH",
"1010 1233 OFFCURVE",
"775 1430 OFFCURVE",
"563 1430 QCURVE SMOOTH",
"369 1430 OFFCURVE",
"122 1236 OFFCURVE",
"102 1063 QCURVE",
"283 1049 LINE",
"295 1160 OFFCURVE",
"442 1282 OFFCURVE",
"561 1282 QCURVE SMOOTH",
"692 1282 OFFCURVE",
"825 1151 OFFCURVE",
"825 1038 QCURVE SMOOTH",
"825 924 OFFCURVE",
"662 795 OFFCURVE",
"514 795 QCURVE SMOOTH",
"416 795 LINE",
"416 639 LINE",
"518 639 LINE SMOOTH",
"685 639 OFFCURVE",
"862 510 OFFCURVE",
"862 395 QCURVE SMOOTH",
"862 263 OFFCURVE",
"707 129 OFFCURVE",
"571 129 QCURVE SMOOTH",
"300 129 OFFCURVE",
"264 379 QCURVE",
"78 362 LINE",
"102 173 OFFCURVE",
"357 -20 OFFCURVE",
"571 -20 QCURVE SMOOTH",
"801 -20 OFFCURVE",
"1049 194 OFFCURVE",
"1049 389 QCURVE SMOOTH"
);
}
);
width = 1139;
}
);
note = three;
unicode = 0033;
},
{
glyphname = four;
lastChange = "2019-11-20 19:13:41 +0000";
layers = (
{
background = {
paths = (
{
closed = 1;
nodes = (
"1079 319 LINE",
"1079 461 LINE",
"881 461 LINE",
"881 1409 LINE",
"692 1409 LINE",
"47 459 LINE",
"47 319 LINE",
"711 319 LINE",
"711 0 LINE",
"881 0 LINE",
"881 319 LINE"
);
},
{
closed = 1;
nodes = (
"711 461 LINE",
"213 461 LINE",
"236 492 OFFCURVE",
"260 524 OFFCURVE",
"283 555 CURVE SMOOTH",
"644 1087 LINE SMOOTH",
"657 1106 OFFCURVE",
"709 1200 OFFCURVE",
"711 1206 QCURVE"
);
}
);
};
layerId = "489D640B-457E-495A-B1F8-D23C81511CE7";
paths = (
{
closed = 1;
nodes = (
"1079 319 LINE",
"1079 461 LINE",
"881 461 LINE",
"881 1409 LINE",
"692 1409 LINE",
"47 459 LINE",
"47 319 LINE",
"711 319 LINE",
"711 0 LINE",
"881 0 LINE",
"881 319 LINE"
);
},
{
closed = 1;
nodes = (
"213 461 LINE",
"293 568 OFFCURVE",
"321 609 QCURVE SMOOTH",
"644 1087 LINE SMOOTH",
"657 1106 OFFCURVE",
"688 1162 OFFCURVE",
"711 1206 QCURVE",
"711 461 LINE"
);
}
);
width = 1139;
}
);
note = four;
unicode = 0034;
},
{
glyphname = five;
lastChange = "2019-11-18 14:23:36 +0000";
layers = (
{
layerId = "489D640B-457E-495A-B1F8-D23C81511CE7";
paths = (
{
closed = 1;
nodes = (
"1053 655 OFFCURVE",
"806 899 OFFCURVE",
"598 899 QCURVE SMOOTH",
"424 899 OFFCURVE",
"307 809 QCURVE",
"334 1256 LINE",
"971 1256 LINE",
"971 1409 LINE",
"170 1409 LINE",
"123 651 LINE",
"299 651 LINE",
"362 706 OFFCURVE",
"488 752 OFFCURVE",
"561 752 QCURVE SMOOTH",
"701 752 OFFCURVE",
"866 588 OFFCURVE",
"866 455 QCURVE SMOOTH",
"866 302 OFFCURVE",
"702 127 OFFCURVE",
"557 127 QCURVE SMOOTH",
"321 127 OFFCURVE",
"264 336 QCURVE",
"82 315 LINE",
"114 152 OFFCURVE",
"356 -20 OFFCURVE",
"553 -20 QCURVE SMOOTH",
"788 -20 OFFCURVE",
"1053 236 OFFCURVE",
"1053 459 QCURVE SMOOTH"
);
}
);
width = 1139;
}
);
note = five;
unicode = 0035;
},
{
glyphname = six;
lastChange = "2019-11-18 14:23:36 +0000";
layers = (
{
layerId = "489D640B-457E-495A-B1F8-D23C81511CE7";
paths = (
{
closed = 1;
nodes = (
"1049 667 OFFCURVE",
"820 911 OFFCURVE",
"625 911 QCURVE SMOOTH",
"510 911 OFFCURVE",
"332 816 OFFCURVE",
"283 725 QCURVE",
"283 997 OFFCURVE",
"452 1284 OFFCURVE",
"606 1284 QCURVE SMOOTH",
"785 1284 OFFCURVE",
"838 1112 QCURVE",
"1010 1143 LINE",
"927 1430 OFFCURVE",
"608 1430 QCURVE SMOOTH",
"366 1430 OFFCURVE",
"104 1038 OFFCURVE",
"104 672 QCURVE SMOOTH",
"104 334 OFFCURVE",
"356 -20 OFFCURVE",
"594 -20 QCURVE SMOOTH",
"807 -20 OFFCURVE",
"1049 238 OFFCURVE",
"1049 461 QCURVE SMOOTH"
);
},
{
closed = 1;
nodes = (
"866 300 OFFCURVE",
"718 125 OFFCURVE",
"588 125 QCURVE SMOOTH",
"462 125 OFFCURVE",
"301 333 OFFCURVE",
"301 496 QCURVE SMOOTH",
"301 625 OFFCURVE",
"456 772 OFFCURVE",
"582 772 QCURVE SMOOTH",
"716 772 OFFCURVE",
"866 606 OFFCURVE",
"866 453 QCURVE SMOOTH"
);
}
);
width = 1139;
}
);
note = six;
unicode = 0036;
},
{
glyphname = seven;
lastChange = "2019-11-18 14:23:36 +0000";
layers = (
{
layerId = "489D640B-457E-495A-B1F8-D23C81511CE7";
paths = (
{
closed = 1;
nodes = (
"1036 1409 LINE",
"105 1409 LINE",
"105 1256 LINE",
"862 1256 LINE",
"594 867 OFFCURVE",
"365 270 OFFCURVE",
"365 0 QCURVE",
"553 0 LINE",
"553 195 OFFCURVE",
"642 559 OFFCURVE",
"820 933 OFFCURVE",
"1036 1263 QCURVE"
);
}
);
width = 1139;
}
);
note = seven;
unicode = 0037;
},
{
glyphname = eight;
lastChange = "2019-11-18 14:23:36 +0000";
layers = (
{
layerId = "489D640B-457E-495A-B1F8-D23C81511CE7";
paths = (
{
closed = 1;
nodes = (
"1050 532 OFFCURVE",
"900 717 OFFCURVE",
"765 739 QCURVE",
"765 743 LINE",
"881 766 OFFCURVE",
"1015 946 OFFCURVE",
"1015 1067 QCURVE SMOOTH",
"1015 1234 OFFCURVE",
"774 1430 OFFCURVE",
"566 1430 QCURVE SMOOTH",
"363 1430 OFFCURVE",
"122 1230 OFFCURVE",
"122 1069 QCURVE SMOOTH",
"122 948 OFFCURVE",
"255 768 OFFCURVE",
"370 741 QCURVE",
"370 737 LINE",
"247 717 OFFCURVE",
"89 529 OFFCURVE",
"89 391 QCURVE SMOOTH",
"89 194 OFFCURVE",
"344 -20 OFFCURVE",
"570 -20 QCURVE SMOOTH",
"802 -20 OFFCURVE",
"1050 198 OFFCURVE",
"1050 393 QCURVE SMOOTH"
);
},
{
closed = 1;
nodes = (
"828 926 OFFCURVE",
"695 809 OFFCURVE",
"568 809 QCURVE SMOOTH",
"443 809 OFFCURVE",
"306 936 OFFCURVE",
"306 1057 QCURVE SMOOTH",
"306 1176 OFFCURVE",
"439 1296 OFFCURVE",
"566 1296 QCURVE SMOOTH",
"828 1296 OFFCURVE",
"828 1057 QCURVE SMOOTH"
);
},
{
closed = 1;
nodes = (
"863 256 OFFCURVE",
"719 115 OFFCURVE",
"572 115 QCURVE SMOOTH",
"275 115 OFFCURVE",
"275 406 QCURVE SMOOTH",
"275 531 OFFCURVE",
"429 674 OFFCURVE",
"566 674 QCURVE SMOOTH",
"707 674 OFFCURVE",
"863 541 OFFCURVE",
"863 410 QCURVE SMOOTH"
);
}
);
width = 1139;
}
);
note = eight;
unicode = 0038;
},
{
glyphname = nine;
lastChange = "2019-11-18 14:23:36 +0000";
layers = (
{
layerId = "489D640B-457E-495A-B1F8-D23C81511CE7";
paths = (
{
closed = 1;
nodes = (
"1042 1082 OFFCURVE",
"800 1430 OFFCURVE",
"565 1430 QCURVE SMOOTH",
"344 1430 OFFCURVE",
"96 1177 OFFCURVE",
"96 956 QCURVE SMOOTH",
"96 741 OFFCURVE",
"324 481 OFFCURVE",
"514 481 QCURVE SMOOTH",
"630 481 OFFCURVE",
"824 590 OFFCURVE",
"864 680 QCURVE",
"860 413 OFFCURVE",
"690 125 OFFCURVE",
"535 125 QCURVE SMOOTH",
"351 125 OFFCURVE",
"297 301 QCURVE",
"125 274 LINE",
"168 119 OFFCURVE",
"367 -20 OFFCURVE",
"532 -20 QCURVE SMOOTH",
"777 -20 OFFCURVE",
"1042 370 OFFCURVE",
"1042 733 QCURVE SMOOTH"
);
},
{
closed = 1;
nodes = (
"846 824 OFFCURVE",
"769 694 OFFCURVE",
"635 623 OFFCURVE",
"557 623 QCURVE SMOOTH",
"429 623 OFFCURVE",
"279 802 OFFCURVE",
"279 956 QCURVE SMOOTH",
"279 1107 OFFCURVE",
"429 1284 OFFCURVE",
"559 1284 QCURVE SMOOTH",
"690 1284 OFFCURVE",
"846 1077 OFFCURVE",
"846 907 QCURVE SMOOTH"
);
}
);
width = 1139;
}
);
note = nine;
unicode = 0039;
},
{
glyphname = colon;
lastChange = "2019-11-18 14:23:36 +0000";
layers = (
{
layerId = "489D640B-457E-495A-B1F8-D23C81511CE7";
paths = (
{
closed = 1;
nodes = (
"382 875 LINE",
"382 1082 LINE",
"187 1082 LINE",
"187 875 LINE"
);
},
{
closed = 1;
nodes = (
"382 0 LINE",
"382 207 LINE",
"187 207 LINE",
"187 0 LINE"
);
}
);
width = 569;
}
);
note = colon;
unicode = 003A;
},
{
glyphname = semicolon;
lastChange = "2019-11-18 14:23:36 +0000";
layers = (
{
layerId = "489D640B-457E-495A-B1F8-D23C81511CE7";
paths = (
{
closed = 1;
nodes = (
"190 207 LINE",
"190 0 LINE",
"278 0 LINE",
"278 -126 OFFCURVE",
"184 -262 QCURVE",
"307 -262 LINE",
"347 -197 OFFCURVE",
"385 -55 OFFCURVE",
"385 51 QCURVE SMOOTH",
"385 207 LINE"
);
},
{
closed = 1;
nodes = (
"385 875 LINE",
"385 1082 LINE",
"190 1082 LINE",
"190 875 LINE"
);
}
);
width = 569;
}
);
note = semicolon;
unicode = "003B,037E";
},
{
glyphname = less;
lastChange = "2019-11-18 14:23:36 +0000";
layers = (
{
layerId = "489D640B-457E-495A-B1F8-D23C81511CE7";
paths = (
{
closed = 1;
nodes = (
"1096 154 LINE",
"1096 307 LINE",
"238 674 LINE",
"1096 1040 LINE",
"1096 1194 LINE",
"101 776 LINE",
"101 571 LINE"
);
}
);
width = 1196;
}
);
note = less;
unicode = 003C;
},
{
glyphname = equal;
lastChange = "2019-11-18 14:23:36 +0000";
layers = (
{
layerId = "489D640B-457E-495A-B1F8-D23C81511CE7";
paths = (
{
closed = 1;
nodes = (
"1095 856 LINE",
"1095 1004 LINE",
"100 1004 LINE",
"100 856 LINE"
);
},
{
closed = 1;
nodes = (
"1095 344 LINE",
"1095 492 LINE",
"100 492 LINE",
"100 344 LINE"
);
}
);
width = 1196;
}
);
note = equal;
unicode = 003D;
},
{
glyphname = greater;
lastChange = "2019-11-18 14:23:36 +0000";
layers = (
{
layerId = "489D640B-457E-495A-B1F8-D23C81511CE7";
paths = (
{
closed = 1;
nodes = (
"1096 571 LINE",
"1096 776 LINE",
"101 1194 LINE",
"101 1040 LINE",
"959 674 LINE",
"101 307 LINE",
"101 154 LINE"
);
}
);
width = 1196;
}
);
note = greater;
unicode = 003E;
},
{
glyphname = question;
lastChange = "2019-11-18 14:23:36 +0000";
layers = (
{
layerId = "489D640B-457E-495A-B1F8-D23C81511CE7";
paths = (
{
closed = 1;
nodes = (
"1063 1219 OFFCURVE",
"807 1430 OFFCURVE",
"584 1430 QCURVE SMOOTH",
"370 1430 OFFCURVE",
"110 1218 OFFCURVE",
"84 1020 QCURVE",
"268 1008 LINE",
"282 1130 OFFCURVE",
"446 1270 OFFCURVE",
"586 1270 QCURVE SMOOTH",
"726 1270 OFFCURVE",
"881 1138 OFFCURVE",
"881 1024 QCURVE SMOOTH",
"881 965 OFFCURVE",
"844 877 OFFCURVE",
"784 807 OFFCURVE",
"707 750 OFFCURVE",
"627 693 OFFCURVE",
"549 630 OFFCURVE",
"487 550 OFFCURVE",
"448 446 OFFCURVE",
"446 377 QCURVE",
"621 377 LINE",
"622 445 OFFCURVE",
"692 560 OFFCURVE",
"764 612 QCURVE SMOOTH",
"844 671 LINE SMOOTH",
"937 739 OFFCURVE",
"1019 839 OFFCURVE",
"1063 957 OFFCURVE",
"1063 1032 QCURVE SMOOTH"
);
},
{
closed = 1;
nodes = (
"633 0 LINE",
"633 201 LINE",
"438 201 LINE",
"438 0 LINE"
);
}
);
width = 1139;
}
);
note = question;
unicode = 003F;
},
{
glyphname = at;
lastChange = "2019-11-18 14:23:36 +0000";
layers = (
{
layerId = "489D640B-457E-495A-B1F8-D23C81511CE7";
paths = (
{
closed = 1;
nodes = (
"1902 973 OFFCURVE",
"1717 1303 OFFCURVE",
"1367 1484 OFFCURVE",
"1126 1484 QCURVE SMOOTH",
"852 1484 OFFCURVE",
"410 1229 OFFCURVE",
"161 771 OFFCURVE",
"161 491 QCURVE SMOOTH",
"161 261 OFFCURVE",
"352 -92 OFFCURVE",
"713 -283 OFFCURVE",
"954 -283 QCURVE SMOOTH",
"1128 -283 OFFCURVE",
"1467 -192 OFFCURVE",
"1612 -105 QCURVE",
"1557 7 LINE",
"1397 -80 OFFCURVE",
"1099 -155 OFFCURVE",
"954 -155 QCURVE SMOOTH",
"756 -155 OFFCURVE",
"459 3 OFFCURVE",
"302 298 OFFCURVE",
"302 491 QCURVE SMOOTH",
"302 741 OFFCURVE",
"514 1144 OFFCURVE",
"886 1358 OFFCURVE",
"1128 1358 QCURVE SMOOTH",
"1322 1358 OFFCURVE",
"1612 1209 OFFCURVE",
"1766 932 OFFCURVE",
"1766 753 QCURVE SMOOTH",
"1766 606 OFFCURVE",
"1688 364 OFFCURVE",
"1553 226 OFFCURVE",
"1473 226 QCURVE SMOOTH",
"1392 226 OFFCURVE",
"1392 320 QCURVE SMOOTH",
"1392 409 OFFCURVE",
"1429 573 QCURVE SMOOTH",
"1545 1079 LINE",
"1389 1079 LINE",
"1350 919 LINE",
"1344 919 LINE",
"1262 1101 OFFCURVE",
"1043 1101 QCURVE SMOOTH",
"902 1101 OFFCURVE",
"670 935 OFFCURVE",
"541 653 OFFCURVE",
"541 489 QCURVE SMOOTH",
"541 308 OFFCURVE",
"714 104 OFFCURVE",
"871 104 QCURVE SMOOTH",
"984 104 OFFCURVE",
"1179 227 OFFCURVE",
"1245 350 QCURVE",
"1251 350 LINE",
"1248 280 LINE SMOOTH",
"1248 192 OFFCURVE",
"1356 104 OFFCURVE",
"1455 104 QCURVE SMOOTH",
"1582 104 OFFCURVE",
"1787 268 OFFCURVE",
"1902 569 OFFCURVE",
"1902 755 QCURVE SMOOTH"
);
},
{
closed = 1;
nodes = (
"1296 694 OFFCURVE",
"1273 602 QCURVE SMOOTH",
"1233 445 OFFCURVE",
"1025 235 OFFCURVE",
"900 235 QCURVE SMOOTH",
"801 235 OFFCURVE",
"706 371 OFFCURVE",
"706 491 QCURVE SMOOTH",
"706 622 OFFCURVE",
"796 847 OFFCURVE",
"953 974 OFFCURVE",
"1054 974 QCURVE SMOOTH",
"1164 974 OFFCURVE",
"1296 849 OFFCURVE",
"1296 747 QCURVE SMOOTH"
);
}
);
width = 2079;
}
);
note = at;
unicode = 0040;
},
{
glyphname = A;
lastChange = "2019-11-18 14:23:36 +0000";
layers = (
{
layerId = "489D640B-457E-495A-B1F8-D23C81511CE7";
paths = (
{
closed = 1;
nodes = (
"1362 0 LINE",
"796 1409 LINE",
"579 1409 LINE",
"4 0 LINE",
"202 0 LINE",
"364 412 LINE",
"1006 412 LINE",
"1167 0 LINE"
);
},
{
closed = 1;
nodes = (
"712 1182 LINE SMOOTH",
"740 1095 OFFCURVE",
"768 1026 QCURVE SMOOTH",
"949 561 LINE",
"422 561 LINE",
"602 1024 LINE SMOOTH",
"651 1154 OFFCURVE",
"676 1237 QCURVE SMOOTH",
"685 1265 LINE"
);
}
);
width = 1366;
}
);
note = A;
unicode = 0041;
},
{
glyphname = B;
lastChange = "2019-11-18 14:23:36 +0000";
layers = (
{
layerId = "489D640B-457E-495A-B1F8-D23C81511CE7";
paths = (
{
closed = 1;
nodes = (
"1258 538 OFFCURVE",
"1076 723 OFFCURVE",
"908 743 QCURVE",
"1036 772 OFFCURVE",
"1176 942 OFFCURVE",
"1176 1067 QCURVE SMOOTH",
"1176 1409 OFFCURVE",
"680 1409 QCURVE SMOOTH",
"168 1409 LINE",
"168 0 LINE",
"740 0 LINE SMOOTH",
"984 0 OFFCURVE",
"1258 209 OFFCURVE",
"1258 397 QCURVE SMOOTH"
);
},
{
closed = 1;
nodes = (
"984 925 OFFCURVE",
"833 810 OFFCURVE",
"680 810 QCURVE SMOOTH",
"359 810 LINE",
"359 1256 LINE",
"680 1256 LINE SMOOTH",
"828 1256 OFFCURVE",
"984 1158 OFFCURVE",
"984 1044 QCURVE SMOOTH"
);
},
{
closed = 1;
nodes = (
"1065 283 OFFCURVE",
"905 153 OFFCURVE",
"730 153 QCURVE SMOOTH",
"359 153 LINE",
"359 661 LINE",
"715 661 LINE SMOOTH",
"1065 661 OFFCURVE",
"1065 412 QCURVE SMOOTH"
);
}
);
width = 1366;
}
);
note = B;
unicode = 0042;
},
{
glyphname = C;
lastChange = "2019-11-18 14:23:36 +0000";
layers = (
{
layerId = "489D640B-457E-495A-B1F8-D23C81511CE7";
paths = (
{
closed = 1;
nodes = (
"941 1274 OFFCURVE",
"1158 1144 OFFCURVE",
"1207 1021 QCURVE",
"1388 1081 LINE",
"1317 1254 OFFCURVE",
"1015 1430 OFFCURVE",
"790 1430 QCURVE SMOOTH",
"468 1430 OFFCURVE",
"104 1048 OFFCURVE",
"104 711 QCURVE SMOOTH",
"104 486 OFFCURVE",
"267 157 OFFCURVE",
"578 -20 OFFCURVE",
"791 -20 QCURVE SMOOTH",
"999 -20 OFFCURVE",
"1314 170 OFFCURVE",
"1401 352 QCURVE",
"1245 430 LINE",
"1096 137 OFFCURVE",
"800 137 QCURVE SMOOTH",
"569 137 OFFCURVE",
"298 452 OFFCURVE",
"298 711 QCURVE SMOOTH",
"298 973 OFFCURVE",
"558 1274 OFFCURVE",
"792 1274 QCURVE SMOOTH"
);
}
);
width = 1479;
}
);
note = C;
unicode = 0043;
},
{
glyphname = D;
lastChange = "2019-11-18 14:23:36 +0000";
layers = (
{
layerId = "489D640B-457E-495A-B1F8-D23C81511CE7";
paths = (
{
closed = 1;
nodes = (
"1381 1050 OFFCURVE",
"992 1409 OFFCURVE",
"634 1409 QCURVE SMOOTH",
"168 1409 LINE",
"168 0 LINE",
"695 0 LINE SMOOTH",
"899 0 OFFCURVE",
"1211 174 OFFCURVE",
"1381 501 OFFCURVE",
"1381 719 QCURVE SMOOTH"
);
},
{
closed = 1;
nodes = (
"1189 545 OFFCURVE",
"1063 289 OFFCURVE",
"828 153 OFFCURVE",
"673 153 QCURVE SMOOTH",
"359 153 LINE",
"359 1256 LINE",
"630 1256 LINE SMOOTH",
"902 1256 OFFCURVE",
"1189 981 OFFCURVE",
"1189 719 QCURVE SMOOTH"
);
}
);
width = 1479;
}
);
note = D;
unicode = 0044;
},
{
glyphname = E;
lastChange = "2019-11-18 14:23:36 +0000";
layers = (
{
layerId = "489D640B-457E-495A-B1F8-D23C81511CE7";
paths = (
{
closed = 1;
nodes = (
"1278 0 LINE",
"1278 156 LINE",
"359 156 LINE",
"359 647 LINE",
"1177 647 LINE",
"1177 801 LINE",
"359 801 LINE",
"359 1253 LINE",
"1237 1253 LINE",
"1237 1409 LINE",
"168 1409 LINE",
"168 0 LINE"
);
}
);
width = 1366;
}
);
note = E;
unicode = 0045;
},
{
glyphname = F;
lastChange = "2019-11-18 14:23:36 +0000";
layers = (
{
layerId = "489D640B-457E-495A-B1F8-D23C81511CE7";
paths = (
{
closed = 1;
nodes = (
"1169 1253 LINE",
"1169 1409 LINE",
"168 1409 LINE",
"168 0 LINE",
"359 0 LINE",
"359 571 LINE",
"1145 571 LINE",
"1145 729 LINE",
"359 729 LINE",
"359 1253 LINE"
);
}
);
width = 1251;
}
);
note = F;
unicode = 0046;
},
{
glyphname = G;
lastChange = "2019-11-18 14:23:36 +0000";
layers = (
{
layerId = "489D640B-457E-495A-B1F8-D23C81511CE7";
paths = (
{
closed = 1;
nodes = (
"103 487 OFFCURVE",
"272 156 OFFCURVE",
"592 -20 OFFCURVE",
"813 -20 QCURVE SMOOTH",
"1003 -20 OFFCURVE",
"1328 105 OFFCURVE",
"1440 219 QCURVE",
"1440 705 LINE",
"843 705 LINE",
"843 545 LINE",
"1264 545 LINE",
"1264 291 LINE",
"1190 219 OFFCURVE",
"951 135 OFFCURVE",
"813 135 QCURVE SMOOTH",
"571 135 OFFCURVE",
"297 444 OFFCURVE",
"297 711 QCURVE SMOOTH",
"297 979 OFFCURVE",
"555 1274 OFFCURVE",
"799 1274 QCURVE SMOOTH",
"956 1274 OFFCURVE",
"1167 1164 OFFCURVE",
"1227 1044 QCURVE",
"1409 1098 LINE",
"1330 1272 OFFCURVE",
"1038 1430 OFFCURVE",
"804 1430 QCURVE SMOOTH",
"471 1430 OFFCURVE",
"103 1054 OFFCURVE",
"103 711 QCURVE SMOOTH"
);
}
);
width = 1593;
}
);
note = G;
unicode = 0047;
},
{
glyphname = H;
lastChange = "2019-11-18 14:23:36 +0000";
layers = (
{
layerId = "489D640B-457E-495A-B1F8-D23C81511CE7";
paths = (
{
closed = 1;
nodes = (
"1312 0 LINE",
"1312 1409 LINE",
"1121 1409 LINE",
"1121 813 LINE",
"359 813 LINE",
"359 1409 LINE",
"168 1409 LINE",
"168 0 LINE",
"359 0 LINE",
"359 653 LINE",
"1121 653 LINE",
"1121 0 LINE"
);
}
);
width = 1479;
}
);
note = H;
unicode = 0048;
},
{
glyphname = I;
lastChange = "2019-11-18 14:23:36 +0000";
layers = (
{
layerId = "489D640B-457E-495A-B1F8-D23C81511CE7";
paths = (
{
closed = 1;
nodes = (
"380 0 LINE",
"380 1409 LINE",
"189 1409 LINE",
"189 0 LINE"
);
}
);
width = 569;
}
);
note = I;
unicode = 0049;
},
{
glyphname = J;
lastChange = "2019-11-18 14:23:36 +0000";
layers = (
{
layerId = "489D640B-457E-495A-B1F8-D23C81511CE7";
paths = (
{
closed = 1;
nodes = (
"650 -20 OFFCURVE",
"872 215 OFFCURVE",
"872 420 QCURVE SMOOTH",
"872 1409 LINE",
"411 1409 LINE",
"411 1253 LINE",
"682 1253 LINE",
"682 416 LINE SMOOTH",
"682 278 OFFCURVE",
"562 135 OFFCURVE",
"458 135 QCURVE SMOOTH",
"363 135 OFFCURVE",
"237 265 OFFCURVE",
"219 381 QCURVE",
"32 350 LINE",
"99 -20 OFFCURVE",
"457 -20 QCURVE SMOOTH"
);
}
);
width = 1024;
}
);
note = J;
unicode = 004A;
},
{
glyphname = K;
lastChange = "2019-11-18 14:23:36 +0000";
layers = (
{
layerId = "489D640B-457E-495A-B1F8-D23C81511CE7";
paths = (
{
closed = 1;
nodes = (
"1343 0 LINE",
"663 797 LINE",
"1263 1409 LINE",
"1038 1409 LINE",
"359 703 LINE",
"359 1409 LINE",
"168 1409 LINE",
"168 0 LINE",
"359 0 LINE",
"359 540 LINE",
"543 680 LINE",
"1106 0 LINE"
);
}
);
width = 1366;
}
);
note = K;
unicode = 004B;
},
{
glyphname = L;
lastChange = "2019-11-18 14:23:36 +0000";
layers = (
{
layerId = "489D640B-457E-495A-B1F8-D23C81511CE7";
paths = (
{
closed = 1;
nodes = (
"1071 0 LINE",
"1071 156 LINE",
"359 156 LINE",
"359 1409 LINE",
"168 1409 LINE",
"168 0 LINE"
);
}
);
width = 1139;
}
);
note = L;
unicode = 004C;
},
{
glyphname = M;
lastChange = "2019-11-18 14:23:36 +0000";
layers = (
{
layerId = "489D640B-457E-495A-B1F8-D23C81511CE7";
paths = (
{
closed = 1;
nodes = (
"1538 0 LINE",
"1538 1409 LINE",
"1293 1409 LINE",
"925 432 LINE SMOOTH",
"916 411 OFFCURVE",
"865 248 OFFCURVE",
"857 208 QCURVE",
"851 238 OFFCURVE",
"814 373 OFFCURVE",
"794 432 QCURVE",
"419 1409 LINE",
"168 1409 LINE",
"168 0 LINE",
"338 0 LINE",
"338 940 LINE",
"334 1129 LINE",
"331 1240 LINE",
"364 1130 LINE",
"420 960 LINE",
"789 0 LINE",
"923 0 LINE",
"1287 960 LINE SMOOTH",
"1326 1061 OFFCURVE",
"1375 1240 QCURVE",
"1366 1096 OFFCURVE",
"1366 940 QCURVE SMOOTH",
"1366 0 LINE"
);
}
);
width = 1706;
}
);
note = M;
unicode = 004D;
},
{
glyphname = N;
lastChange = "2019-11-18 14:23:36 +0000";
layers = (
{
layerId = "489D640B-457E-495A-B1F8-D23C81511CE7";
paths = (
{
closed = 1;
nodes = (
"1312 0 LINE",
"1312 1409 LINE",
"1140 1409 LINE",
"1140 485 LINE SMOOTH",
"1140 397 OFFCURVE",
"1152 201 QCURVE",
"390 1409 LINE",
"168 1409 LINE",
"168 0 LINE",
"338 0 LINE",
"338 936 LINE",
"333 1103 LINE",
"328 1200 LINE",
"1082 0 LINE"
);
}
);
width = 1479;
}
);
note = N;
unicode = 004E;
},
{
glyphname = O;
lastChange = "2019-11-18 14:23:36 +0000";
layers = (
{
layerId = "489D640B-457E-495A-B1F8-D23C81511CE7";
paths = (
{
closed = 1;
nodes = (
"1495 933 OFFCURVE",
"1328 1259 OFFCURVE",
"1012 1430 OFFCURVE",
"797 1430 QCURVE SMOOTH",
"467 1430 OFFCURVE",
"97 1049 OFFCURVE",
"97 711 QCURVE SMOOTH",
"97 489 OFFCURVE",
"263 156 OFFCURVE",
"578 -20 OFFCURVE",
"795 -20 QCURVE SMOOTH",
"1010 -20 OFFCURVE",
"1326 158 OFFCURVE",
"1495 490 OFFCURVE",
"1495 711 QCURVE SMOOTH"
);
},
{
closed = 1;
nodes = (
"1300 436 OFFCURVE",
"1039 135 OFFCURVE",
"795 135 QCURVE SMOOTH",
"558 135 OFFCURVE",
"291 446 OFFCURVE",
"291 711 QCURVE SMOOTH",
"291 978 OFFCURVE",
"555 1274 OFFCURVE",
"797 1274 QCURVE SMOOTH",
"1037 1274 OFFCURVE",
"1300 974 OFFCURVE",
"1300 711 QCURVE SMOOTH"
);
}
);
width = 1593;
}
);
note = O;
unicode = 004F;
},
{
glyphname = P;
lastChange = "2019-11-18 14:23:36 +0000";
layers = (
{
layerId = "489D640B-457E-495A-B1F8-D23C81511CE7";
paths = (
{
closed = 1;
nodes = (
"1258 1187 OFFCURVE",
"998 1409 OFFCURVE",
"761 1409 QCURVE SMOOTH",
"168 1409 LINE",
"168 0 LINE",
"359 0 LINE",
"359 549 LINE",
"773 549 LINE SMOOTH",
"997 549 OFFCURVE",
"1258 785 OFFCURVE",
"1258 985 QCURVE SMOOTH"
);
},
{
closed = 1;
nodes = (
"1066 700 OFFCURVE",
"746 700 QCURVE SMOOTH",
"359 700 LINE",
"359 1256 LINE",
"738 1256 LINE SMOOTH",
"1066 1256 OFFCURVE",
"1066 983 QCURVE SMOOTH"
);
}
);
width = 1366;
}
);
note = P;
unicode = 0050;
},
{
glyphname = Q;
lastChange = "2019-11-18 14:23:36 +0000";
layers = (
{
layerId = "489D640B-457E-495A-B1F8-D23C81511CE7";
paths = (
{
closed = 1;
nodes = (
"1495 933 OFFCURVE",
"1328 1259 OFFCURVE",
"1012 1430 OFFCURVE",
"797 1430 QCURVE SMOOTH",
"467 1430 OFFCURVE",
"97 1049 OFFCURVE",
"97 711 QCURVE SMOOTH",
"97 498 OFFCURVE",
"248 175 OFFCURVE",
"535 -6 OFFCURVE",
"733 -16 QCURVE",
"795 -216 OFFCURVE",
"990 -387 OFFCURVE",
"1141 -387 QCURVE SMOOTH",
"1226 -387 OFFCURVE",
"1319 -365 QCURVE",
"1319 -231 LINE",
"1259 -244 OFFCURVE",
"1204 -244 QCURVE SMOOTH",
"1102 -244 OFFCURVE",
"969 -132 OFFCURVE",
"928 -6 QCURVE",
"1195 29 OFFCURVE",
"1495 413 OFFCURVE",
"1495 711 QCURVE SMOOTH"
);
},
{
closed = 1;
nodes = (
"1300 436 OFFCURVE",
"1039 135 OFFCURVE",
"795 135 QCURVE SMOOTH",
"558 135 OFFCURVE",
"291 446 OFFCURVE",
"291 711 QCURVE SMOOTH",
"291 978 OFFCURVE",
"555 1274 OFFCURVE",
"797 1274 QCURVE SMOOTH",
"1037 1274 OFFCURVE",
"1300 974 OFFCURVE",
"1300 711 QCURVE SMOOTH"
);
}
);
width = 1593;
}
);
note = Q;
unicode = 0051;
},
{
glyphname = R;
lastChange = "2019-11-18 14:23:36 +0000";
layers = (
{
layerId = "489D640B-457E-495A-B1F8-D23C81511CE7";
paths = (
{
closed = 1;
nodes = (
"1384 0 LINE",
"984 607 LINE",
"1145 635 OFFCURVE",
"1328 849 OFFCURVE",
"1328 1006 QCURVE SMOOTH",
"1328 1196 OFFCURVE",
"1069 1409 OFFCURVE",
"831 1409 QCURVE SMOOTH",
"168 1409 LINE",
"168 0 LINE",
"359 0 LINE",
"359 585 LINE",
"798 585 LINE",
"1164 0 LINE"
);
},
{
closed = 1;
nodes = (
"1136 877 OFFCURVE",
"971 736 OFFCURVE",
"820 736 QCURVE SMOOTH",
"359 736 LINE",
"359 1256 LINE",
"812 1256 LINE SMOOTH",
"969 1256 OFFCURVE",
"1136 1127 OFFCURVE",
"1136 1004 QCURVE SMOOTH"
);
}
);
width = 1479;
}
);
note = R;
unicode = 0052;
},
{
glyphname = S;
lastChange = "2019-11-18 14:23:36 +0000";
layers = (
{
layerId = "489D640B-457E-495A-B1F8-D23C81511CE7";
paths = (
{
closed = 1;
nodes = (
"1272 466 OFFCURVE",
"1229 580 OFFCURVE",
"1153 664 OFFCURVE",
"1050 722 OFFCURVE",
"932 765 OFFCURVE",
"803 796 OFFCURVE",
"738 811 QCURVE SMOOTH",
"544 854 OFFCURVE",
"414 913 OFFCURVE",
"345 998 OFFCURVE",
"345 1063 QCURVE SMOOTH",
"345 1174 OFFCURVE",
"523 1286 OFFCURVE",
"692 1286 QCURVE SMOOTH",
"846 1286 OFFCURVE",
"1020 1185 OFFCURVE",
"1051 1073 QCURVE",
"1239 1106 LINE",
"1188 1283 OFFCURVE",
"934 1430 OFFCURVE",
"694 1430 QCURVE SMOOTH",
"436 1430 OFFCURVE",
"159 1234 OFFCURVE",
"159 1053 QCURVE SMOOTH",
"159 974 OFFCURVE",
"212 852 OFFCURVE",
"312 761 OFFCURVE",
"485 687 OFFCURVE",
"652 650 QCURVE SMOOTH",
"748 628 OFFCURVE",
"906 590 OFFCURVE",
"1020 534 OFFCURVE",
"1083 448 OFFCURVE",
"1083 379 QCURVE SMOOTH",
"1083 256 OFFCURVE",
"882 129 OFFCURVE",
"697 129 QCURVE SMOOTH",
"518 129 OFFCURVE",
"310 248 OFFCURVE",
"278 375 QCURVE",
"93 338 LINE",
"175 -20 OFFCURVE",
"690 -20 QCURVE SMOOTH",
"967 -20 OFFCURVE",
"1272 194 OFFCURVE",
"1272 389 QCURVE SMOOTH"
);
}
);
width = 1366;
}
);
note = S;
unicode = 0053;
},
{
glyphname = T;
lastChange = "2019-11-18 14:23:36 +0000";
layers = (
{
layerId = "489D640B-457E-495A-B1F8-D23C81511CE7";
paths = (
{
closed = 1;
nodes = (
"1204 1253 LINE",
"1204 1409 LINE",
"46 1409 LINE",
"46 1253 LINE",
"530 1253 LINE",
"530 0 LINE",
"720 0 LINE",
"720 1253 LINE"
);
}
);
width = 1251;
}
);
note = T;
unicode = 0054;
},
{
glyphname = U;
lastChange = "2019-11-18 14:23:36 +0000";
layers = (
{
layerId = "489D640B-457E-495A-B1F8-D23C81511CE7";
paths = (
{
closed = 1;
nodes = (
"911 -20 OFFCURVE",
"1176 111 OFFCURVE",
"1321 359 OFFCURVE",
"1321 530 QCURVE SMOOTH",
"1321 1409 LINE",
"1131 1409 LINE",
"1131 541 LINE SMOOTH",
"1131 342 OFFCURVE",
"920 135 OFFCURVE",
"730 135 QCURVE SMOOTH",
"545 135 OFFCURVE",
"349 335 OFFCURVE",
"349 528 QCURVE SMOOTH",
"349 1409 LINE",
"158 1409 LINE",
"158 512 LINE SMOOTH",
"158 346 OFFCURVE",
"300 106 OFFCURVE",
"558 -20 OFFCURVE",
"731 -20 QCURVE SMOOTH"
);
}
);
width = 1479;
}
);
note = U;
unicode = 0055;
},
{
glyphname = V;
lastChange = "2019-11-18 14:23:36 +0000";
layers = (
{
layerId = "489D640B-457E-495A-B1F8-D23C81511CE7";
paths = (
{
closed = 1;
nodes = (
"1357 1409 LINE",
"1156 1409 LINE",
"768 417 LINE",
"684 168 LINE",
"600 417 LINE",
"210 1409 LINE",
"9 1409 LINE",
"584 0 LINE",
"782 0 LINE"
);
}
);
width = 1366;
}
);
note = V;
unicode = 0056;
},
{
glyphname = W;
lastChange = "2019-11-18 14:23:36 +0000";
layers = (
{
layerId = "489D640B-457E-495A-B1F8-D23C81511CE7";
paths = (
{
closed = 1;
nodes = (
"1926 1409 LINE",
"1727 1409 LINE",
"1463 463 OFFCURVE",
"1429 318 OFFCURVE",
"1402 203 QCURVE SMOOTH",
"1393 168 LINE",
"1361 317 OFFCURVE",
"1305 532 QCURVE SMOOTH",
"1060 1409 LINE",
"877 1409 LINE",
"631 538 OFFCURVE",
"568 278 OFFCURVE",
"544 168 QCURVE",
"506 346 OFFCURVE",
"461 514 QCURVE SMOOTH",
"208 1409 LINE",
"9 1409 LINE",
"424 0 LINE",
"652 0 LINE",
"907 924 OFFCURVE",
"943 1080 OFFCURVE",
"969 1196 QCURVE",
"1015 979 OFFCURVE",
"1039 895 QCURVE SMOOTH",
"1283 0 LINE",
"1511 0 LINE"
);
}
);
width = 1933;
}
);
note = W;
unicode = 0057;
},
{
glyphname = X;
lastChange = "2019-11-18 14:23:36 +0000";
layers = (
{
layerId = "489D640B-457E-495A-B1F8-D23C81511CE7";
paths = (
{
closed = 1;
nodes = (
"1323 0 LINE",
"800 739 LINE",
"1282 1409 LINE",
"1071 1409 LINE",
"690 856 LINE",
"298 1409 LINE",
"87 1409 LINE",
"582 732 LINE",
"46 0 LINE",
"257 0 LINE",
"689 616 LINE",
"1112 0 LINE"
);
}
);
width = 1366;
}
);
note = X;
unicode = 0058;
},
{
glyphname = Y;
lastChange = "2019-11-18 14:23:36 +0000";
layers = (
{
layerId = "489D640B-457E-495A-B1F8-D23C81511CE7";
paths = (
{
closed = 1;
nodes = (
"1321 1409 LINE",
"1111 1409 LINE",
"684 738 LINE",
"255 1409 LINE",
"45 1409 LINE",
"587 584 LINE",
"587 0 LINE",
"777 0 LINE",
"777 584 LINE"
);
}
);
width = 1366;
}
);
note = Y;
unicode = 0059;
},
{
glyphname = Z;
lastChange = "2019-11-18 14:23:36 +0000";
layers = (
{
layerId = "489D640B-457E-495A-B1F8-D23C81511CE7";
paths = (
{
closed = 1;
nodes = (
"1187 156 LINE",
"282 156 LINE",
"1140 1270 LINE",
"1140 1409 LINE",
"138 1409 LINE",
"138 1253 LINE",
"923 1253 LINE",
"65 143 LINE",
"65 0 LINE",
"1187 0 LINE"
);
}
);
width = 1251;
}
);
note = Z;
unicode = 005A;
},
{
glyphname = bracketleft;
lastChange = "2019-11-18 14:23:36 +0000";
layers = (
{
layerId = "489D640B-457E-495A-B1F8-D23C81511CE7";
paths = (
{
closed = 1;
nodes = (
"553 -425 LINE",
"553 -296 LINE",
"320 -296 LINE",
"320 1355 LINE",
"553 1355 LINE",
"553 1484 LINE",
"146 1484 LINE",
"146 -425 LINE"
);
}
);
width = 569;
}
);
note = bracketleft;
unicode = 005B;
},
{
glyphname = backslash;
lastChange = "2019-11-18 14:23:36 +0000";
layers = (
{
layerId = "489D640B-457E-495A-B1F8-D23C81511CE7";
paths = (
{
closed = 1;
nodes = (
"569 -20 LINE",
"158 1484 LINE",
"0 1484 LINE",
"407 -20 LINE"
);
}
);
width = 569;
}
);
note = backslash;
unicode = 005C;
},
{
glyphname = bracketright;
lastChange = "2019-11-18 14:23:36 +0000";
layers = (
{
layerId = "489D640B-457E-495A-B1F8-D23C81511CE7";
paths = (
{
closed = 1;
nodes = (
"423 -425 LINE",
"423 1484 LINE",
"16 1484 LINE",
"16 1355 LINE",
"249 1355 LINE",
"249 -296 LINE",
"16 -296 LINE",
"16 -425 LINE"
);
}
);
width = 569;
}
);
note = bracketright;
unicode = 005D;
},
{
glyphname = asciicircum;
lastChange = "2019-11-18 14:23:36 +0000";
layers = (
{
layerId = "489D640B-457E-495A-B1F8-D23C81511CE7";
paths = (
{
closed = 1;
nodes = (
"951 673 LINE",
"581 1409 LINE",
"378 1409 LINE",
"10 673 LINE",
"172 673 LINE",
"478 1306 LINE",
"787 673 LINE"
);
}
);
width = 961;
}
);
note = asciicircum;
unicode = 005E;
},
{
glyphname = underscore;
lastChange = "2019-11-18 14:23:36 +0000";
layers = (
{
layerId = "489D640B-457E-495A-B1F8-D23C81511CE7";
paths = (
{
closed = 1;
nodes = (
"1162 -407 LINE",
"1162 -277 LINE",
"-31 -277 LINE",
"-31 -407 LINE"
);
}
);
width = 1139;
}
);
note = underscore;
unicode = 005F;
},
{
glyphname = grave;
lastChange = "2019-11-18 14:23:36 +0000";
layers = (
{
layerId = "489D640B-457E-495A-B1F8-D23C81511CE7";
paths = (
{
closed = 1;
nodes = (
"530 1201 LINE",
"530 1221 LINE",
"313 1508 LINE",
"106 1508 LINE",
"106 1479 LINE",
"436 1201 LINE"
);
}
);
width = 682;
}
);
note = grave;
unicode = 0060;
},
{
glyphname = a;
lastChange = "2019-11-18 14:23:36 +0000";
layers = (
{
layerId = "489D640B-457E-495A-B1F8-D23C81511CE7";
paths = (
{
closed = 1;
nodes = (
"545 -20 OFFCURVE",
"728 83 OFFCURVE",
"797 207 QCURVE",
"803 207 LINE",
"809 95 OFFCURVE",
"900 -10 OFFCURVE",
"1000 -10 QCURVE SMOOTH",
"1071 -10 OFFCURVE",
"1139 6 QCURVE",
"1139 118 LINE",
"1106 111 OFFCURVE",
"1080 111 QCURVE SMOOTH",
"1021 111 OFFCURVE",
"979 192 OFFCURVE",
"979 272 QCURVE SMOOTH",
"979 738 LINE SMOOTH",
"979 915 OFFCURVE",
"773 1102 OFFCURVE",
"569 1102 QCURVE SMOOTH",
"181 1102 OFFCURVE",
"135 810 QCURVE",
"323 793 LINE",
"334 883 OFFCURVE",
"444 965 OFFCURVE",
"565 965 QCURVE SMOOTH",
"685 965 OFFCURVE",
"797 851 OFFCURVE",
"797 719 QCURVE SMOOTH",
"797 660 LINE",
"554 656 LINE SMOOTH",
"308 650 OFFCURVE",
"87 470 OFFCURVE",
"87 302 QCURVE SMOOTH",
"87 152 OFFCURVE",
"251 -20 OFFCURVE",
"414 -20 QCURVE SMOOTH"
);
},
{
closed = 1;
nodes = (
"367 115 OFFCURVE",
"272 211 OFFCURVE",
"272 299 QCURVE SMOOTH",
"272 380 OFFCURVE",
"342 480 OFFCURVE",
"473 528 OFFCURVE",
"600 530 QCURVE SMOOTH",
"797 534 LINE",
"797 445 LINE SMOOTH",
"797 362 OFFCURVE",
"708 205 OFFCURVE",
"554 115 OFFCURVE",
"455 115 QCURVE SMOOTH"
);
}
);
width = 1139;
}
);
note = a;
unicode = 0061;
},
{
glyphname = b;
lastChange = "2019-11-18 14:23:36 +0000";
layers = (
{
layerId = "489D640B-457E-495A-B1F8-D23C81511CE7";
paths = (
{
closed = 1;
nodes = (
"1053 826 OFFCURVE",
"860 1102 OFFCURVE",
"655 1102 QCURVE SMOOTH",
"533 1102 OFFCURVE",
"368 1012 OFFCURVE",
"318 908 QCURVE",
"314 908 LINE",
"318 996 OFFCURVE",
"318 1061 QCURVE SMOOTH",
"318 1484 LINE",
"138 1484 LINE",
"138 223 LINE SMOOTH",
"138 54 OFFCURVE",
"132 0 QCURVE",
"306 0 LINE",
"308 10 OFFCURVE",
"316 137 OFFCURVE",
"316 168 QCURVE",
"318 168 LINE",
"369 69 OFFCURVE",
"532 -20 OFFCURVE",
"655 -20 QCURVE SMOOTH",
"1053 -20 OFFCURVE",
"1053 546 QCURVE SMOOTH"
);
},
{
closed = 1;
nodes = (
"864 314 OFFCURVE",
"743 113 OFFCURVE",
"607 113 QCURVE SMOOTH",
"454 113 OFFCURVE",
"318 316 OFFCURVE",
"318 529 QCURVE SMOOTH",
"318 755 OFFCURVE",
"457 963 OFFCURVE",
"609 963 QCURVE SMOOTH",
"744 963 OFFCURVE",
"864 767 OFFCURVE",
"864 540 QCURVE SMOOTH"
);
}
);
width = 1139;
}
);
note = b;
unicode = 0062;
},
{
glyphname = c;
lastChange = "2019-11-18 14:23:36 +0000";
layers = (
{
layerId = "489D640B-457E-495A-B1F8-D23C81511CE7";
paths = (
{
closed = 1;
nodes = (
"275 771 OFFCURVE",
"403 961 OFFCURVE",
"546 961 QCURVE SMOOTH",
"651 961 OFFCURVE",
"765 855 OFFCURVE",
"779 765 QCURVE",
"964 779 LINE",
"936 930 OFFCURVE",
"717 1102 OFFCURVE",
"551 1102 QCURVE SMOOTH",
"327 1102 OFFCURVE",
"87 815 OFFCURVE",
"87 542 QCURVE SMOOTH",
"87 267 OFFCURVE",
"326 -20 OFFCURVE",
"553 -20 QCURVE SMOOTH",
"725 -20 OFFCURVE",
"949 166 OFFCURVE",
"970 322 QCURVE",
"788 334 LINE",
"773 226 OFFCURVE",
"644 122 OFFCURVE",
"548 122 QCURVE SMOOTH",
"411 122 OFFCURVE",
"275 330 OFFCURVE",
"275 546 QCURVE SMOOTH"
);
}
);
width = 1024;
}
);
note = c;
unicode = 0063;
},
{
glyphname = d;
lastChange = "2019-11-18 14:23:36 +0000";
layers = (
{
layerId = "489D640B-457E-495A-B1F8-D23C81511CE7";
paths = (
{
closed = 1;
nodes = (
"825 174 LINE",
"825 132 OFFCURVE",
"832 16 OFFCURVE",
"835 0 QCURVE",
"1007 0 LINE",
"1001 54 OFFCURVE",
"1001 223 QCURVE SMOOTH",
"1001 1484 LINE",
"821 1484 LINE",
"821 1035 LINE",
"823 914 LINE",
"821 914 LINE",
"771 1012 OFFCURVE",
"607 1102 OFFCURVE",
"484 1102 QCURVE SMOOTH",
"86 1102 OFFCURVE",
"86 536 QCURVE SMOOTH",
"86 256 OFFCURVE",
"279 -20 OFFCURVE",
"484 -20 QCURVE SMOOTH",
"606 -20 OFFCURVE",
"771 70 OFFCURVE",
"821 174 QCURVE"
);
},
{
closed = 1;
nodes = (
"275 768 OFFCURVE",
"396 969 OFFCURVE",
"532 969 QCURVE SMOOTH",
"683 969 OFFCURVE",
"821 769 OFFCURVE",
"821 554 QCURVE SMOOTH",
"821 331 OFFCURVE",
"683 119 OFFCURVE",
"530 119 QCURVE SMOOTH",
"395 119 OFFCURVE",
"275 315 OFFCURVE",
"275 542 QCURVE SMOOTH"
);
}
);
width = 1139;
}
);
note = d;
unicode = 0064;
},
{
glyphname = e;
lastChange = "2019-11-18 14:23:36 +0000";
layers = (
{
layerId = "489D640B-457E-495A-B1F8-D23C81511CE7";
paths = (
{
closed = 1;
nodes = (
"1048 503 LINE",
"1048 527 LINE SMOOTH",
"1048 1102 OFFCURVE",
"571 1102 QCURVE SMOOTH",
"338 1102 OFFCURVE",
"87 816 OFFCURVE",
"87 548 QCURVE SMOOTH",
"87 266 OFFCURVE",
"338 -20 OFFCURVE",
"578 -20 QCURVE SMOOTH",
"922 -20 OFFCURVE",
"1019 236 QCURVE",
"861 281 LINE",
"836 209 OFFCURVE",
"695 115 OFFCURVE",
"578 115 QCURVE SMOOTH",
"430 115 OFFCURVE",
"276 317 OFFCURVE",
"276 503 QCURVE"
);
},
{
closed = 1;
nodes = (
"278 641 LINE",
"284 794 OFFCURVE",
"437 969 OFFCURVE",
"568 969 QCURVE SMOOTH",
"703 969 OFFCURVE",
"847 812 OFFCURVE",
"862 641 QCURVE"
);
}
);
width = 1139;
}
);
note = e;
unicode = 0065;
},
{
glyphname = f;
lastChange = "2019-11-18 14:23:36 +0000";
layers = (
{
layerId = "489D640B-457E-495A-B1F8-D23C81511CE7";
paths = (
{
closed = 1;
nodes = (
"572 951 LINE",
"572 1082 LINE",
"361 1082 LINE",
"361 1179 LINE SMOOTH",
"361 1271 OFFCURVE",
"423 1341 OFFCURVE",
"492 1341 QCURVE SMOOTH",
"527 1341 OFFCURVE",
"572 1333 QCURVE",
"572 1470 LINE",
"520 1482 OFFCURVE",
"445 1482 QCURVE SMOOTH",
"311 1482 OFFCURVE",
"181 1352 OFFCURVE",
"181 1204 QCURVE SMOOTH",
"181 1082 LINE",
"29 1082 LINE",
"29 951 LINE",
"181 951 LINE",
"181 0 LINE",
"361 0 LINE",
"361 951 LINE"
);
}
);
width = 569;
}
);
note = f;
unicode = 0066;
},
{
glyphname = g;
lastChange = "2019-11-18 14:23:36 +0000";
layers = (
{
layerId = "489D640B-457E-495A-B1F8-D23C81511CE7";
paths = (
{
closed = 1;
nodes = (
"1001 -425 OFFCURVE",
"1001 31 QCURVE SMOOTH",
"1001 858 LINE SMOOTH",
"1001 1028 OFFCURVE",
"1007 1082 QCURVE",
"836 1082 LINE",
"832 1075 OFFCURVE",
"824 927 OFFCURVE",
"824 897 QCURVE",
"822 897 LINE",
"776 994 OFFCURVE",
"607 1099 OFFCURVE",
"492 1099 QCURVE SMOOTH",
"287 1099 OFFCURVE",
"86 826 OFFCURVE",
"86 539 QCURVE SMOOTH",
"86 256 OFFCURVE",
"273 -8 OFFCURVE",
"472 -8 QCURVE SMOOTH",
"591 -8 OFFCURVE",
"769 97 OFFCURVE",
"820 201 QCURVE",
"822 201 LINE",
"822 27 LINE SMOOTH",
"822 -288 OFFCURVE",
"553 -288 QCURVE SMOOTH",
"453 -288 OFFCURVE",
"330 -207 OFFCURVE",
"312 -132 QCURVE",
"131 -158 LINE",
"161 -286 OFFCURVE",
"371 -425 OFFCURVE",
"548 -425 QCURVE SMOOTH"
);
},
{
closed = 1;
nodes = (
"822 412 OFFCURVE",
"750 225 OFFCURVE",
"618 125 OFFCURVE",
"533 125 QCURVE SMOOTH",
"390 125 OFFCURVE",
"272 319 OFFCURVE",
"272 541 QCURVE SMOOTH",
"272 765 OFFCURVE",
"398 965 OFFCURVE",
"536 965 QCURVE SMOOTH",
"619 965 OFFCURVE",
"750 864 OFFCURVE",
"822 673 OFFCURVE",
"822 541 QCURVE SMOOTH"
);
}
);
width = 1139;
}
);
note = g;
unicode = 0067;
},
{
glyphname = h;
lastChange = "2019-11-18 14:23:36 +0000";
layers = (
{
layerId = "489D640B-457E-495A-B1F8-D23C81511CE7";
paths = (
{
closed = 1;
nodes = (
"314 897 LINE",
"315 907 OFFCURVE",
"322 1037 OFFCURVE",
"322 1098 QCURVE SMOOTH",
"322 1484 LINE",
"142 1484 LINE",
"142 0 LINE",
"322 0 LINE",
"322 638 LINE SMOOTH",
"322 787 OFFCURVE",
"475 963 OFFCURVE",
"602 963 QCURVE SMOOTH",
"687 963 OFFCURVE",
"783 911 OFFCURVE",
"825 800 OFFCURVE",
"825 686 QCURVE SMOOTH",
"825 0 LINE",
"1006 0 LINE",
"1006 721 LINE SMOOTH",
"1006 927 OFFCURVE",
"839 1102 OFFCURVE",
"663 1102 QCURVE SMOOTH",
"538 1102 OFFCURVE",
"375 1003 OFFCURVE",
"317 897 QCURVE"
);
}
);
width = 1139;
}
);
note = h;
unicode = 0068;
},
{
glyphname = i;
lastChange = "2019-11-18 14:23:36 +0000";
layers = (
{
layerId = "489D640B-457E-495A-B1F8-D23C81511CE7";
paths = (
{
closed = 1;
nodes = (
"317 1312 LINE",
"317 1484 LINE",
"137 1484 LINE",
"137 1312 LINE"
);
},
{
closed = 1;
nodes = (
"317 0 LINE",
"317 1082 LINE",
"137 1082 LINE",
"137 0 LINE"
);
}
);
width = 455;
}
);
note = i;
unicode = 0069;
},
{
glyphname = j;
lastChange = "2019-11-18 14:23:36 +0000";
layers = (
{
layerId = "489D640B-457E-495A-B1F8-D23C81511CE7";
paths = (
{
closed = 1;
nodes = (
"317 1312 LINE",
"317 1484 LINE",
"137 1484 LINE",
"137 1312 LINE"
);
},
{
closed = 1;
nodes = (
"317 1082 LINE",
"137 1082 LINE",
"137 -107 LINE SMOOTH",
"137 -211 OFFCURVE",
"81 -283 OFFCURVE",
"12 -283 QCURVE",
"-50 -277 LINE",
"-50 -416 LINE",
"0 -425 OFFCURVE",
"77 -425 QCURVE SMOOTH",
"197 -425 OFFCURVE",
"317 -287 OFFCURVE",
"317 -134 QCURVE SMOOTH"
);
}
);
width = 455;
}
);
note = j;
unicode = 006A;
},
{
glyphname = k;
lastChange = "2019-11-18 14:23:36 +0000";
layers = (
{
layerId = "489D640B-457E-495A-B1F8-D23C81511CE7";
paths = (
{
closed = 1;
nodes = (
"1027 0 LINE",
"565 617 LINE",
"1004 1082 LINE",
"793 1082 LINE",
"318 557 LINE",
"318 1484 LINE",
"138 1484 LINE",
"138 0 LINE",
"318 0 LINE",
"318 385 LINE",
"450 494 LINE",
"816 0 LINE"
);
}
);
width = 1024;
}
);
note = k;
unicode = 006B;
},
{
glyphname = l;
lastChange = "2019-11-18 14:23:36 +0000";
layers = (
{
layerId = "489D640B-457E-495A-B1F8-D23C81511CE7";
paths = (
{
closed = 1;
nodes = (
"318 0 LINE",
"318 1484 LINE",
"138 1484 LINE",
"138 0 LINE"
);
}
);
width = 455;
}
);
note = l;
unicode = 006C;
},
{
glyphname = m;
lastChange = "2019-11-18 14:23:36 +0000";
layers = (
{
layerId = "489D640B-457E-495A-B1F8-D23C81511CE7";
paths = (
{
closed = 1;
nodes = (
"946 0 LINE",
"946 627 LINE SMOOTH",
"946 788 OFFCURVE",
"1077 963 OFFCURVE",
"1195 963 QCURVE SMOOTH",
"1307 963 OFFCURVE",
"1393 843 OFFCURVE",
"1393 686 QCURVE SMOOTH",
"1393 0 LINE",
"1571 0 LINE",
"1571 721 LINE SMOOTH",
"1571 924 OFFCURVE",
"1422 1102 OFFCURVE",
"1258 1102 QCURVE SMOOTH",
"1145 1102 OFFCURVE",
"986 1006 OFFCURVE",
"930 897 QCURVE",
"927 897 LINE",
"899 1004 OFFCURVE",
"756 1102 OFFCURVE",
"633 1102 QCURVE SMOOTH",
"525 1102 OFFCURVE",
"375 1012 OFFCURVE",
"317 897 QCURVE",
"314 897 LINE",
"312 976 OFFCURVE",
"309 1033 OFFCURVE",
"307 1077 OFFCURVE",
"306 1082 QCURVE",
"136 1082 LINE",
"142 1040 OFFCURVE",
"142 851 QCURVE SMOOTH",
"142 0 LINE",
"321 0 LINE",
"321 627 LINE SMOOTH",
"321 787 OFFCURVE",
"455 963 OFFCURVE",
"570 963 QCURVE SMOOTH",
"682 963 OFFCURVE",
"768 843 OFFCURVE",
"768 686 QCURVE SMOOTH",
"768 0 LINE"
);
}
);
width = 1706;
}
);
note = m;
unicode = 006D;
},
{
glyphname = n;
lastChange = "2019-11-18 14:23:36 +0000";
layers = (
{
layerId = "489D640B-457E-495A-B1F8-D23C81511CE7";
paths = (
{
closed = 1;
nodes = (
"1006 0 LINE",
"1006 721 LINE SMOOTH",
"1006 925 OFFCURVE",
"841 1102 OFFCURVE",
"663 1102 QCURVE SMOOTH",
"542 1102 OFFCURVE",
"379 1009 OFFCURVE",
"317 897 QCURVE",
"314 897 LINE",
"312 976 OFFCURVE",
"309 1033 OFFCURVE",
"307 1077 OFFCURVE",
"306 1082 QCURVE",
"136 1082 LINE",
"142 1040 OFFCURVE",
"142 851 QCURVE SMOOTH",
"142 0 LINE",
"322 0 LINE",
"322 627 LINE SMOOTH",
"322 785 OFFCURVE",
"472 963 OFFCURVE",
"602 963 QCURVE SMOOTH",
"691 963 OFFCURVE",
"783 911 OFFCURVE",
"825 793 OFFCURVE",
"825 686 QCURVE SMOOTH",
"825 0 LINE"
);
}
);
width = 1139;
}
);
note = n;
unicode = 006E;
},
{
glyphname = o;
lastChange = "2019-11-18 14:23:36 +0000";
layers = (
{
layerId = "489D640B-457E-495A-B1F8-D23C81511CE7";
paths = (
{
closed = 1;
nodes = (
"1053 829 OFFCURVE",
"819 1102 OFFCURVE",
"571 1102 QCURVE SMOOTH",
"86 1102 OFFCURVE",
"86 542 QCURVE SMOOTH",
"86 269 OFFCURVE",
"328 -20 OFFCURVE",
"565 -20 QCURVE SMOOTH",
"803 -20 OFFCURVE",
"1053 258 OFFCURVE",
"1053 542 QCURVE SMOOTH"
);
},
{
closed = 1;
nodes = (
"864 321 OFFCURVE",
"725 113 OFFCURVE",
"563 113 QCURVE SMOOTH",
"414 113 OFFCURVE",
"275 328 OFFCURVE",
"275 542 QCURVE SMOOTH",
"275 762 OFFCURVE",
"416 969 OFFCURVE",
"574 969 QCURVE SMOOTH",
"731 969 OFFCURVE",
"864 766 OFFCURVE",
"864 542 QCURVE SMOOTH"
);
}
);
width = 1139;
}
);
note = o;
unicode = 006F;
},
{
glyphname = p;
lastChange = "2019-11-18 14:23:36 +0000";
layers = (
{
layerId = "489D640B-457E-495A-B1F8-D23C81511CE7";
paths = (
{
closed = 1;
nodes = (
"1053 833 OFFCURVE",
"855 1101 OFFCURVE",
"655 1101 QCURVE SMOOTH",
"526 1101 OFFCURVE",
"368 1008 OFFCURVE",
"320 908 QCURVE",
"316 908 LINE",
"316 927 OFFCURVE",
"311 1029 OFFCURVE",
"307 1078 OFFCURVE",
"306 1082 QCURVE",
"132 1082 LINE",
"138 1028 OFFCURVE",
"138 861 QCURVE SMOOTH",
"138 -425 LINE",
"318 -425 LINE",
"318 -2 LINE SMOOTH",
"318 160 OFFCURVE",
"314 168 QCURVE",
"319 168 LINE",
"405 -20 OFFCURVE",
"655 -20 QCURVE SMOOTH",
"1053 -20 OFFCURVE",
"1053 546 QCURVE SMOOTH"
);
},
{
closed = 1;
nodes = (
"864 310 OFFCURVE",
"741 113 OFFCURVE",
"607 113 QCURVE SMOOTH",
"454 113 OFFCURVE",
"318 315 OFFCURVE",
"318 528 QCURVE SMOOTH",
"318 681 OFFCURVE",
"381 872 OFFCURVE",
"502 962 OFFCURVE",
"609 962 QCURVE SMOOTH",
"742 962 OFFCURVE",
"864 768 OFFCURVE",
"864 542 QCURVE SMOOTH"
);
}
);
width = 1139;
}
);
note = p;
unicode = 0070;
},
{
glyphname = q;
lastChange = "2019-11-18 14:23:36 +0000";
layers = (
{
layerId = "489D640B-457E-495A-B1F8-D23C81511CE7";
paths = (
{
closed = 1;
nodes = (
"611 -20 OFFCURVE",
"769 71 OFFCURVE",
"823 178 QCURVE",
"825 178 LINE",
"821 14 LINE",
"821 -425 LINE",
"1001 -425 LINE",
"1001 801 LINE SMOOTH",
"1001 1037 OFFCURVE",
"1008 1096 QCURVE",
"835 1096 LINE",
"831 1091 OFFCURVE",
"823 944 OFFCURVE",
"823 914 QCURVE",
"821 914 LINE",
"767 1015 OFFCURVE",
"607 1102 OFFCURVE",
"484 1102 QCURVE SMOOTH",
"86 1102 OFFCURVE",
"86 536 QCURVE SMOOTH",
"86 258 OFFCURVE",
"278 -20 OFFCURVE",
"484 -20 QCURVE SMOOTH"
);
},
{
closed = 1;
nodes = (
"821 337 OFFCURVE",
"683 119 OFFCURVE",
"530 119 QCURVE SMOOTH",
"396 119 OFFCURVE",
"275 315 OFFCURVE",
"275 542 QCURVE SMOOTH",
"275 765 OFFCURVE",
"395 969 OFFCURVE",
"532 969 QCURVE SMOOTH",
"683 969 OFFCURVE",
"821 765 OFFCURVE",
"821 554 QCURVE SMOOTH"
);
}
);
width = 1139;
}
);
note = q;
unicode = 0071;
},
{
glyphname = r;
lastChange = "2019-11-18 14:23:36 +0000";
layers = (
{
layerId = "489D640B-457E-495A-B1F8-D23C81511CE7";
paths = (
{
closed = 1;
nodes = (
"322 0 LINE",
"322 564 LINE SMOOTH",
"322 744 OFFCURVE",
"440 937 OFFCURVE",
"552 937 QCURVE SMOOTH",
"612 937 OFFCURVE",
"648 927 QCURVE",
"648 1092 LINE",
"611 1102 OFFCURVE",
"575 1102 QCURVE SMOOTH",
"473 1102 OFFCURVE",
"361 1000 OFFCURVE",
"318 861 QCURVE",
"314 861 LINE",
"314 898 OFFCURVE",
"306 1082 QCURVE",
"136 1082 LINE",
"142 944 OFFCURVE",
"142 830 QCURVE SMOOTH",
"142 0 LINE"
);
}
);
width = 682;
}
);
note = r;
unicode = 0072;
},
{
glyphname = s;
lastChange = "2019-11-18 14:23:36 +0000";
layers = (
{
layerId = "489D640B-457E-495A-B1F8-D23C81511CE7";
paths = (
{
closed = 1;
nodes = (
"950 361 OFFCURVE",
"910 458 OFFCURVE",
"837 532 OFFCURVE",
"711 593 OFFCURVE",
"568 629 QCURVE SMOOTH",
"417 666 OFFCURVE",
"323 708 OFFCURVE",
"275 768 OFFCURVE",
"275 814 QCURVE SMOOTH",
"275 889 OFFCURVE",
"391 963 OFFCURVE",
"513 963 QCURVE SMOOTH",
"623 963 OFFCURVE",
"754 886 OFFCURVE",
"769 814 QCURVE",
"931 834 LINE",
"903 973 OFFCURVE",
"692 1099 OFFCURVE",
"513 1099 QCURVE SMOOTH",
"311 1099 OFFCURVE",
"100 944 OFFCURVE",
"100 796 QCURVE SMOOTH",
"100 716 OFFCURVE",
"174 606 OFFCURVE",
"305 529 OFFCURVE",
"460 489 QCURVE SMOOTH",
"589 455 LINE SMOOTH",
"687 429 OFFCURVE",
"775 349 OFFCURVE",
"775 285 QCURVE SMOOTH",
"775 201 OFFCURVE",
"648 117 OFFCURVE",
"511 117 QCURVE SMOOTH",
"383 117 OFFCURVE",
"239 198 OFFCURVE",
"216 285 QCURVE",
"57 254 LINE",
"90 113 OFFCURVE",
"309 -20 OFFCURVE",
"511 -20 QCURVE SMOOTH",
"719 -20 OFFCURVE",
"950 146 OFFCURVE",
"950 299 QCURVE SMOOTH"
);
}
);
width = 1024;
}
);
note = s;
unicode = 0073;
},
{
glyphname = t;
lastChange = "2019-11-18 14:23:36 +0000";
layers = (
{
layerId = "489D640B-457E-495A-B1F8-D23C81511CE7";
paths = (
{
closed = 1;
nodes = (
"554 141 LINE",
"486 127 OFFCURVE",
"450 127 QCURVE SMOOTH",
"387 127 OFFCURVE",
"336 190 OFFCURVE",
"336 268 QCURVE SMOOTH",
"336 951 LINE",
"536 951 LINE",
"536 1082 LINE",
"336 1082 LINE",
"336 1324 LINE",
"216 1324 LINE",
"163 1082 LINE",
"31 1082 LINE",
"31 951 LINE",
"156 951 LINE",
"156 229 LINE SMOOTH",
"156 -16 OFFCURVE",
"372 -16 QCURVE SMOOTH",
"465 -16 OFFCURVE",
"554 8 QCURVE"
);
}
);
width = 569;
}
);
note = t;
unicode = 0074;
},
{
glyphname = u;
lastChange = "2019-11-18 14:23:36 +0000";
layers = (
{
layerId = "489D640B-457E-495A-B1F8-D23C81511CE7";
paths = (
{
closed = 1;
nodes = (
"133 1082 LINE",
"133 361 LINE SMOOTH",
"133 157 OFFCURVE",
"298 -20 OFFCURVE",
"476 -20 QCURVE SMOOTH",
"597 -20 OFFCURVE",
"760 73 OFFCURVE",
"822 185 QCURVE",
"825 185 LINE",
"827 106 OFFCURVE",
"830 49 OFFCURVE",
"832 5 OFFCURVE",
"833 0 QCURVE",
"1003 0 LINE",
"997 42 OFFCURVE",
"997 231 QCURVE SMOOTH",
"997 1082 LINE",
"817 1082 LINE",
"817 455 LINE SMOOTH",
"817 297 OFFCURVE",
"667 119 OFFCURVE",
"537 119 QCURVE SMOOTH",
"448 119 OFFCURVE",
"356 171 OFFCURVE",
"314 289 OFFCURVE",
"314 396 QCURVE SMOOTH",
"314 1082 LINE"
);
}
);
width = 1139;
}
);
note = u;
unicode = 0075;
},
{
glyphname = v;
lastChange = "2019-11-18 14:23:36 +0000";
layers = (
{
layerId = "489D640B-457E-495A-B1F8-D23C81511CE7";
paths = (
{
closed = 1;
nodes = (
"1017 1082 LINE",
"826 1082 LINE",
"580 376 LINE",
"541 258 LINE",
"506 141 LINE",
"450 338 OFFCURVE",
"437 378 QCURVE SMOOTH",
"199 1082 LINE",
"7 1082 LINE",
"400 0 LINE",
"613 0 LINE"
);
}
);
width = 1024;
}
);
note = v;
unicode = 0076;
},
{
glyphname = w;
lastChange = "2019-11-18 14:23:36 +0000";
layers = (
{
layerId = "489D640B-457E-495A-B1F8-D23C81511CE7";
paths = (
{
closed = 1;
nodes = (
"1484 1082 LINE",
"1308 1082 LINE",
"1103 288 LINE",
"1072 149 LINE",
"1026 339 LINE",
"837 1082 LINE",
"644 1082 LINE",
"418 223 LINE",
"401 149 LINE",
"365 323 OFFCURVE",
"358 347 QCURVE SMOOTH",
"175 1082 LINE",
"-3 1082 LINE",
"300 0 LINE",
"508 0 LINE",
"693 720 OFFCURVE",
"731 889 OFFCURVE",
"740 934 QCURVE",
"776 765 LINE",
"965 0 LINE",
"1174 0 LINE"
);
}
);
width = 1479;
}
);
note = w;
unicode = 0077;
},
{
glyphname = x;
lastChange = "2019-11-18 14:23:36 +0000";
layers = (
{
layerId = "489D640B-457E-495A-B1F8-D23C81511CE7";
paths = (
{
closed = 1;
nodes = (
"1002 0 LINE",
"612 558 LINE",
"979 1082 LINE",
"778 1082 LINE",
"510 661 LINE",
"240 1082 LINE",
"41 1082 LINE",
"408 556 LINE",
"23 0 LINE",
"217 0 LINE",
"510 444 LINE",
"801 0 LINE"
);
}
);
width = 1024;
}
);
note = x;
unicode = 0078;
},
{
glyphname = y;
lastChange = "2019-11-18 14:23:36 +0000";
layers = (
{
layerId = "489D640B-457E-495A-B1F8-D23C81511CE7";
paths = (
{
closed = 1;
nodes = (
"280 -425 OFFCURVE",
"421 -342 OFFCURVE",
"537 -173 OFFCURVE",
"604 0 QCURVE SMOOTH",
"1020 1082 LINE",
"830 1082 LINE",
"593 393 LINE",
"523 196 LINE",
"520 209 OFFCURVE",
"444 431 OFFCURVE",
"430 470 OFFCURVE",
"425 484 QCURVE SMOOTH",
"197 1082 LINE",
"5 1082 LINE",
"434 5 LINE",
"417 -38 LINE SMOOTH",
"319 -285 OFFCURVE",
"151 -285 QCURVE SMOOTH",
"105 -285 OFFCURVE",
"67 -279 QCURVE",
"67 -414 LINE",
"117 -425 OFFCURVE",
"191 -425 QCURVE SMOOTH"
);
}
);
width = 1024;
}
);
note = y;
unicode = 0079;
},
{
glyphname = z;
lastChange = "2019-11-18 14:23:36 +0000";
layers = (
{
layerId = "489D640B-457E-495A-B1F8-D23C81511CE7";
paths = (
{
closed = 1;
nodes = (
"922 0 LINE",
"922 139 LINE",
"295 139 LINE",
"901 945 LINE",
"901 1082 LINE",
"117 1082 LINE",
"117 943 LINE",
"688 943 LINE",
"83 137 LINE",
"83 0 LINE"
);
}
);
width = 1024;
}
);
note = z;
unicode = 007A;
},
{
glyphname = braceleft;
lastChange = "2019-11-18 14:23:36 +0000";
layers = (
{
layerId = "489D640B-457E-495A-B1F8-D23C81511CE7";
paths = (
{
closed = 1;
nodes = (
"648 -425 LINE",
"648 -296 LINE",
"585 -296 LINE SMOOTH",
"494 -296 OFFCURVE",
"417 -187 OFFCURVE",
"417 -81 QCURVE SMOOTH",
"417 276 LINE SMOOTH",
"417 373 OFFCURVE",
"312 509 OFFCURVE",
"223 530 QCURVE",
"223 532 LINE",
"311 553 OFFCURVE",
"417 690 OFFCURVE",
"417 784 QCURVE SMOOTH",
"417 1140 LINE SMOOTH",
"417 1248 OFFCURVE",
"494 1355 OFFCURVE",
"585 1355 QCURVE SMOOTH",
"648 1355 LINE",
"648 1484 LINE",
"513 1484 LINE SMOOTH",
"382 1484 OFFCURVE",
"249 1332 OFFCURVE",
"249 1191 QCURVE SMOOTH",
"249 829 LINE SMOOTH",
"249 712 OFFCURVE",
"143 597 OFFCURVE",
"34 593 QCURVE",
"34 466 LINE",
"144 461 OFFCURVE",
"249 346 OFFCURVE",
"249 229 QCURVE SMOOTH",
"249 -132 LINE SMOOTH",
"249 -271 OFFCURVE",
"386 -425 OFFCURVE",
"513 -425 QCURVE SMOOTH"
);
}
);
width = 684;
}
);
note = braceleft;
unicode = 007B;
},
{
glyphname = bar;
lastChange = "2019-11-18 14:23:36 +0000";
layers = (
{
layerId = "489D640B-457E-495A-B1F8-D23C81511CE7";
paths = (
{
closed = 1;
nodes = (
"349 -434 LINE",
"349 1484 LINE",
"183 1484 LINE",
"183 -434 LINE"
);
}
);
width = 532;
}
);
note = bar;
unicode = 007C;
},
{
glyphname = braceright;
lastChange = "2019-11-18 14:23:36 +0000";
layers = (
{
layerId = "489D640B-457E-495A-B1F8-D23C81511CE7";
paths = (
{
closed = 1;
nodes = (
"34 -296 LINE",
"34 -425 LINE",
"166 -425 LINE SMOOTH",
"293 -425 OFFCURVE",
"430 -270 OFFCURVE",
"430 -132 QCURVE SMOOTH",
"430 229 LINE SMOOTH",
"430 346 OFFCURVE",
"535 462 OFFCURVE",
"647 466 QCURVE",
"647 593 LINE",
"536 597 OFFCURVE",
"430 713 OFFCURVE",
"430 829 QCURVE SMOOTH",
"430 1191 LINE SMOOTH",
"430 1332 OFFCURVE",
"297 1484 OFFCURVE",
"166 1484 QCURVE SMOOTH",
"34 1484 LINE",
"34 1355 LINE",
"94 1355 LINE SMOOTH",
"185 1355 OFFCURVE",
"264 1248 OFFCURVE",
"264 1140 QCURVE SMOOTH",
"264 784 LINE SMOOTH",
"264 687 OFFCURVE",
"371 552 OFFCURVE",
"457 532 QCURVE",
"457 530 LINE",
"368 510 OFFCURVE",
"264 374 OFFCURVE",
"264 276 QCURVE SMOOTH",
"264 -81 LINE SMOOTH",
"264 -187 OFFCURVE",
"185 -296 OFFCURVE",
"94 -296 QCURVE SMOOTH"
);
}
);
width = 684;
}
);
note = braceright;
unicode = 007D;
},
{
glyphname = asciitilde;
lastChange = "2019-11-18 14:23:36 +0000";
layers = (
{
layerId = "489D640B-457E-495A-B1F8-D23C81511CE7";
paths = (
{
closed = 1;
nodes = (
"929 553 OFFCURVE",
"1046 591 OFFCURVE",
"1104 633 QCURVE",
"1104 782 LINE",
"990 690 OFFCURVE",
"860 690 QCURVE SMOOTH",
"815 690 OFFCURVE",
"695 723 OFFCURVE",
"664 735 QCURVE SMOOTH",
"534 781 OFFCURVE",
"407 807 OFFCURVE",
"355 807 QCURVE SMOOTH",
"203 807 OFFCURVE",
"92 723 QCURVE",
"92 580 LINE",
"157 627 OFFCURVE",
"273 668 OFFCURVE",
"340 668 QCURVE SMOOTH",
"428 668 OFFCURVE",
"557 623 QCURVE SMOOTH",
"630 597 OFFCURVE",
"775 553 OFFCURVE",
"844 553 QCURVE SMOOTH"
);
}
);
width = 1196;
}
);
note = asciitilde;
unicode = 007E;
},
{
glyphname = dagger;
lastChange = "2019-11-18 14:23:36 +0000";
layers = (
{
layerId = "489D640B-457E-495A-B1F8-D23C81511CE7";
paths = (
{
closed = 1;
nodes = (
"1002 973 LINE",
"1002 1137 LINE",
"649 1108 LINE",
"677 1484 LINE",
"462 1484 LINE",
"490 1108 LINE",
"138 1137 LINE",
"138 973 LINE",
"490 1000 LINE",
"512 -138 LINE",
"627 -138 LINE",
"649 1000 LINE"
);
}
);
width = 1139;
}
);
note = dagger;
unicode = 2020;
},
{
glyphname = degree;
lastChange = "2019-11-18 14:23:36 +0000";
layers = (
{
layerId = "489D640B-457E-495A-B1F8-D23C81511CE7";
paths = (
{
closed = 1;
nodes = (
"696 1264 OFFCURVE",
"529 1430 OFFCURVE",
"409 1430 QCURVE SMOOTH",
"289 1430 OFFCURVE",
"122 1262 OFFCURVE",
"122 1145 QCURVE SMOOTH",
"122 1028 OFFCURVE",
"291 860 OFFCURVE",
"409 860 QCURVE SMOOTH",
"527 860 OFFCURVE",
"696 1026 OFFCURVE",
"696 1145 QCURVE SMOOTH"
);
},
{
closed = 1;
nodes = (
"587 1070 OFFCURVE",
"483 965 OFFCURVE",
"409 965 QCURVE SMOOTH",
"336 965 OFFCURVE",
"231 1071 OFFCURVE",
"231 1145 QCURVE SMOOTH",
"231 1219 OFFCURVE",
"334 1325 OFFCURVE",
"409 1325 QCURVE SMOOTH",
"484 1325 OFFCURVE",
"587 1221 OFFCURVE",
"587 1145 QCURVE SMOOTH"
);
}
);
width = 819;
}
);
note = degree;
unicode = 00B0;
},
{
glyphname = cent;
lastChange = "2019-11-18 14:23:36 +0000";
layers = (
{
layerId = "489D640B-457E-495A-B1F8-D23C81511CE7";
paths = (
{
closed = 1;
nodes = (
"459 277 OFFCURVE",
"323 485 OFFCURVE",
"323 701 QCURVE SMOOTH",
"323 926 OFFCURVE",
"451 1116 OFFCURVE",
"594 1116 QCURVE SMOOTH",
"699 1116 OFFCURVE",
"813 1010 OFFCURVE",
"827 920 QCURVE",
"1012 934 LINE",
"985 1073 OFFCURVE",
"805 1239 OFFCURVE",
"662 1254 QCURVE",
"662 1409 LINE",
"538 1409 LINE",
"538 1254 LINE",
"339 1237 OFFCURVE",
"135 950 OFFCURVE",
"135 697 QCURVE SMOOTH",
"135 440 OFFCURVE",
"339 155 OFFCURVE",
"538 137 QCURVE",
"538 -31 LINE",
"662 -31 LINE",
"662 137 LINE",
"809 151 OFFCURVE",
"999 333 OFFCURVE",
"1018 477 QCURVE",
"836 489 LINE",
"821 381 OFFCURVE",
"692 277 OFFCURVE",
"596 277 QCURVE SMOOTH"
);
}
);
width = 1139;
}
);
note = cent;
unicode = 00A2;
},
{
glyphname = sterling;
lastChange = "2019-11-18 14:23:36 +0000";
layers = (
{
layerId = "489D640B-457E-495A-B1F8-D23C81511CE7";
paths = (
{
closed = 1;
nodes = (
"941 329 LINE",
"912 153 OFFCURVE",
"738 153 QCURVE SMOOTH",
"255 153 LINE",
"332 194 OFFCURVE",
"424 380 OFFCURVE",
"424 499 QCURVE SMOOTH",
"424 625 LINE",
"832 625 LINE",
"832 754 LINE",
"424 754 LINE",
"424 1042 LINE SMOOTH",
"424 1167 OFFCURVE",
"536 1282 OFFCURVE",
"650 1282 QCURVE SMOOTH",
"721 1282 OFFCURVE",
"832 1207 OFFCURVE",
"853 1143 QCURVE",
"1027 1200 LINE",
"993 1309 OFFCURVE",
"793 1430 OFFCURVE",
"646 1430 QCURVE SMOOTH",
"450 1430 OFFCURVE",
"244 1229 OFFCURVE",
"244 1034 QCURVE SMOOTH",
"244 754 LINE",
"58 754 LINE",
"58 625 LINE",
"244 625 LINE",
"244 481 LINE SMOOTH",
"244 360 OFFCURVE",
"158 200 OFFCURVE",
"69 154 QCURVE",
"69 0 LINE",
"767 0 LINE SMOOTH",
"911 0 OFFCURVE",
"1087 161 OFFCURVE",
"1104 311 QCURVE"
);
}
);
width = 1139;
}
);
note = sterling;
unicode = 00A3;
},
{
glyphname = section;
lastChange = "2019-11-18 14:23:36 +0000";
layers = (
{
layerId = "489D640B-457E-495A-B1F8-D23C81511CE7";
paths = (
{
closed = 1;
nodes = (
"385 1484 OFFCURVE",
"174 1329 OFFCURVE",
"174 1190 QCURVE SMOOTH",
"174 1104 OFFCURVE",
"285 970 OFFCURVE",
"381 938 QCURVE",
"276 908 OFFCURVE",
"153 760 OFFCURVE",
"153 671 QCURVE SMOOTH",
"153 559 OFFCURVE",
"324 403 OFFCURVE",
"518 358 QCURVE SMOOTH",
"669 321 OFFCURVE",
"792 263 OFFCURVE",
"858 186 OFFCURVE",
"858 129 QCURVE SMOOTH",
"858 47 OFFCURVE",
"713 -41 OFFCURVE",
"577 -41 QCURVE SMOOTH",
"432 -41 OFFCURVE",
"296 41 OFFCURVE",
"276 131 QCURVE",
"115 100 LINE",
"149 -39 OFFCURVE",
"368 -172 OFFCURVE",
"577 -172 QCURVE SMOOTH",
"787 -172 OFFCURVE",
"1018 -3 OFFCURVE",
"1018 145 QCURVE SMOOTH",
"1018 236 OFFCURVE",
"917 365 OFFCURVE",
"805 413 QCURVE",
"905 437 OFFCURVE",
"1024 587 OFFCURVE",
"1024 686 QCURVE SMOOTH",
"1024 767 OFFCURVE",
"938 885 OFFCURVE",
"782 968 OFFCURVE",
"635 1003 QCURVE SMOOTH",
"505 1034 OFFCURVE",
"394 1086 OFFCURVE",
"334 1156 OFFCURVE",
"334 1204 QCURVE SMOOTH",
"334 1275 OFFCURVE",
"463 1354 OFFCURVE",
"588 1354 QCURVE SMOOTH",
"813 1354 OFFCURVE",
"840 1204 QCURVE",
"1001 1224 LINE",
"974 1351 OFFCURVE",
"761 1484 OFFCURVE",
"588 1484 QCURVE SMOOTH"
);
},
{
closed = 1;
nodes = (
"866 578 OFFCURVE",
"731 477 OFFCURVE",
"612 475 QCURVE",
"483 508 OFFCURVE",
"372 562 OFFCURVE",
"313 635 OFFCURVE",
"313 684 QCURVE SMOOTH",
"313 768 OFFCURVE",
"442 874 OFFCURVE",
"551 880 QCURVE",
"727 839 OFFCURVE",
"866 735 OFFCURVE",
"866 663 QCURVE SMOOTH"
);
}
);
width = 1139;
}
);
note = section;
unicode = 00A7;
},
{
glyphname = bullet;
lastChange = "2019-11-18 14:23:36 +0000";
layers = (
{
layerId = "489D640B-457E-495A-B1F8-D23C81511CE7";
paths = (
{
closed = 1;
nodes = (
"636 795 OFFCURVE",
"471 956 OFFCURVE",
"355 956 QCURVE SMOOTH",
"243 956 OFFCURVE",
"81 797 OFFCURVE",
"81 682 QCURVE SMOOTH",
"81 567 OFFCURVE",
"242 401 OFFCURVE",
"355 401 QCURVE SMOOTH",
"473 401 OFFCURVE",
"636 569 OFFCURVE",
"636 682 QCURVE SMOOTH"
);
}
);
width = 717;
}
);
note = bullet;
unicode = 2022;
},
{
glyphname = paragraph;
lastChange = "2019-11-18 14:23:36 +0000";
layers = (
{
layerId = "489D640B-457E-495A-B1F8-D23C81511CE7";
paths = (
{
closed = 1;
nodes = (
"1013 1307 LINE",
"1013 1409 LINE",
"450 1409 LINE SMOOTH",
"277 1409 OFFCURVE",
"80 1218 OFFCURVE",
"80 1049 QCURVE SMOOTH",
"80 879 OFFCURVE",
"274 694 OFFCURVE",
"442 694 QCURVE",
"442 -264 LINE",
"555 -264 LINE",
"555 1307 LINE",
"772 1307 LINE",
"772 -264 LINE",
"884 -264 LINE",
"884 1307 LINE"
);
}
);
width = 1100;
}
);
note = paragraph;
unicode = 00B6;
},
{
glyphname = germandbls;
lastChange = "2019-11-18 14:23:36 +0000";
layers = (
{
layerId = "489D640B-457E-495A-B1F8-D23C81511CE7";
paths = (
{
closed = 1;
nodes = (
"1167 481 OFFCURVE",
"983 605 QCURVE SMOOTH",
"935 637 OFFCURVE",
"853 694 OFFCURVE",
"798 753 OFFCURVE",
"798 791 QCURVE SMOOTH",
"798 820 OFFCURVE",
"832 869 OFFCURVE",
"911 941 QCURVE SMOOTH",
"1024 1044 OFFCURVE",
"1024 1187 QCURVE SMOOTH",
"1024 1323 OFFCURVE",
"799 1484 OFFCURVE",
"609 1484 QCURVE SMOOTH",
"377 1484 OFFCURVE",
"142 1254 OFFCURVE",
"142 1027 QCURVE SMOOTH",
"142 0 LINE",
"322 0 LINE",
"322 1021 LINE SMOOTH",
"322 1183 OFFCURVE",
"461 1343 OFFCURVE",
"609 1343 QCURVE SMOOTH",
"718 1343 OFFCURVE",
"852 1250 OFFCURVE",
"852 1173 QCURVE SMOOTH",
"852 1123 OFFCURVE",
"799 1039 OFFCURVE",
"741 991 QCURVE SMOOTH",
"687 946 OFFCURVE",
"630 846 OFFCURVE",
"630 785 QCURVE SMOOTH",
"630 699 OFFCURVE",
"721 567 OFFCURVE",
"813 513 QCURVE SMOOTH",
"910 455 OFFCURVE",
"995 353 OFFCURVE",
"995 289 QCURVE SMOOTH",
"995 210 OFFCURVE",
"897 124 OFFCURVE",
"805 124 QCURVE SMOOTH",
"736 124 OFFCURVE",
"576 164 OFFCURVE",
"524 193 QCURVE",
"526 29 LINE",
"638 -20 OFFCURVE",
"809 -20 QCURVE SMOOTH",
"979 -20 OFFCURVE",
"1167 145 OFFCURVE",
"1167 295 QCURVE SMOOTH"
);
}
);
width = 1251;
}
);
note = germandbls;
unicode = 00DF;
},
{
glyphname = registered;
lastChange = "2019-11-18 14:23:36 +0000";
layers = (
{
layerId = "489D640B-457E-495A-B1F8-D23C81511CE7";
paths = (
{
closed = 1;
nodes = (
"1477 901 OFFCURVE",
"1285 1235 OFFCURVE",
"948 1430 OFFCURVE",
"754 1430 QCURVE SMOOTH",
"561 1430 OFFCURVE",
"225 1236 OFFCURVE",
"31 900 OFFCURVE",
"31 707 QCURVE SMOOTH",
"31 518 OFFCURVE",
"218 185 OFFCURVE",
"557 -16 OFFCURVE",
"754 -16 QCURVE SMOOTH",
"947 -16 OFFCURVE",
"1284 177 OFFCURVE",
"1477 514 OFFCURVE",
"1477 707 QCURVE SMOOTH"
);
},
{
closed = 1;
nodes = (
"1385 538 OFFCURVE",
"1217 246 OFFCURVE",
"923 78 OFFCURVE",
"754 78 QCURVE SMOOTH",
"585 78 OFFCURVE",
"295 246 OFFCURVE",
"126 538 OFFCURVE",
"126 707 QCURVE SMOOTH",
"126 874 OFFCURVE",
"294 1166 OFFCURVE",
"586 1335 OFFCURVE",
"754 1335 QCURVE SMOOTH",
"924 1335 OFFCURVE",
"1217 1165 OFFCURVE",
"1385 876 OFFCURVE",
"1385 707 QCURVE SMOOTH"
);
},
{
closed = 1;
nodes = (
"1100 289 LINE",
"879 639 LINE",
"964 658 OFFCURVE",
"1068 781 OFFCURVE",
"1068 883 QCURVE SMOOTH",
"1068 994 OFFCURVE",
"917 1120 OFFCURVE",
"775 1120 QCURVE SMOOTH",
"468 1120 LINE",
"468 289 LINE",
"595 289 LINE",
"595 625 LINE",
"756 625 LINE",
"955 289 LINE"
);
},
{
closed = 1;
nodes = (
"941 806 OFFCURVE",
"857 721 OFFCURVE",
"777 721 QCURVE SMOOTH",
"595 721 LINE",
"595 1022 LINE",
"765 1022 LINE SMOOTH",
"846 1022 OFFCURVE",
"941 950 OFFCURVE",
"941 881 QCURVE SMOOTH"
);
}
);
width = 1509;
}
);
note = registered;
unicode = 00AE;
},
{
glyphname = copyright;
lastChange = "2019-11-18 14:23:36 +0000";
layers = (
{
layerId = "489D640B-457E-495A-B1F8-D23C81511CE7";
paths = (
{
closed = 1;
nodes = (
"1477 901 OFFCURVE",
"1285 1235 OFFCURVE",
"948 1430 OFFCURVE",
"754 1430 QCURVE SMOOTH",
"561 1430 OFFCURVE",
"225 1236 OFFCURVE",
"31 900 OFFCURVE",
"31 707 QCURVE SMOOTH",
"31 518 OFFCURVE",
"218 185 OFFCURVE",
"557 -16 OFFCURVE",
"754 -16 QCURVE SMOOTH",
"947 -16 OFFCURVE",
"1284 177 OFFCURVE",
"1477 514 OFFCURVE",
"1477 707 QCURVE SMOOTH"
);
},
{
closed = 1;
nodes = (
"1385 538 OFFCURVE",
"1217 246 OFFCURVE",
"923 78 OFFCURVE",
"754 78 QCURVE SMOOTH",
"585 78 OFFCURVE",
"295 246 OFFCURVE",
"126 538 OFFCURVE",
"126 707 QCURVE SMOOTH",
"126 874 OFFCURVE",
"294 1166 OFFCURVE",
"586 1335 OFFCURVE",
"754 1335 QCURVE SMOOTH",
"924 1335 OFFCURVE",
"1217 1165 OFFCURVE",
"1385 876 OFFCURVE",
"1385 707 QCURVE SMOOTH"
);
},
{
closed = 1;
nodes = (
"498 867 OFFCURVE",
"633 1028 OFFCURVE",
"760 1028 QCURVE SMOOTH",
"836 1028 OFFCURVE",
"952 960 OFFCURVE",
"984 891 QCURVE",
"1098 924 LINE",
"1002 1133 OFFCURVE",
"758 1133 QCURVE SMOOTH",
"569 1133 OFFCURVE",
"369 912 OFFCURVE",
"369 709 QCURVE SMOOTH",
"369 505 OFFCURVE",
"577 279 OFFCURVE",
"765 279 QCURVE SMOOTH",
"882 279 OFFCURVE",
"1051 383 OFFCURVE",
"1113 504 QCURVE",
"998 539 LINE",
"923 383 OFFCURVE",
"765 383 QCURVE SMOOTH",
"640 383 OFFCURVE",
"498 554 OFFCURVE",
"498 709 QCURVE SMOOTH"
);
}
);
width = 1509;
}
);
note = copyright;
unicode = 00A9;
},
{
glyphname = trademark;
lastChange = "2019-11-18 14:23:36 +0000";
layers = (
{
layerId = "489D640B-457E-495A-B1F8-D23C81511CE7";
paths = (
{
closed = 1;
nodes = (
"1817 634 LINE",
"1817 1409 LINE",
"1633 1409 LINE",
"1465 996 LINE",
"1391 804 LINE",
"1376 846 LINE",
"1153 1409 LINE",
"963 1409 LINE",
"963 634 LINE",
"1091 634 LINE",
"1091 1216 LINE",
"1092 1233 LINE",
"1093 1253 LINE",
"1170 1047 LINE",
"1333 634 LINE",
"1441 634 LINE",
"1671 1199 LINE",
"1682 1231 LINE",
"1691 1253 LINE",
"1691 634 LINE"
);
},
{
closed = 1;
nodes = (
"838 1298 LINE",
"838 1409 LINE",
"188 1409 LINE",
"188 1298 LINE",
"443 1298 LINE",
"443 634 LINE",
"577 634 LINE",
"577 1298 LINE"
);
}
);
width = 2048;
}
);
note = trademark;
unicode = 2122;
},
{
glyphname = acute;
lastChange = "2019-11-18 14:23:36 +0000";
layers = (
{
layerId = "489D640B-457E-495A-B1F8-D23C81511CE7";
paths = (
{
closed = 1;
nodes = (
"166 1201 LINE",
"496 1479 LINE",
"496 1508 LINE",
"289 1508 LINE",
"72 1221 LINE",
"72 1201 LINE"
);
}
);
width = 682;
}
);
note = acute;
unicode = 00B4;
},
{
glyphname = dieresis;
lastChange = "2019-11-18 14:23:36 +0000";
layers = (
{
layerId = "489D640B-457E-495A-B1F8-D23C81511CE7";
paths = (
{
closed = 1;
nodes = (
"602 1219 LINE",
"602 1403 LINE",
"439 1403 LINE",
"439 1219 LINE"
);
},
{
closed = 1;
nodes = (
"210 1219 LINE",
"210 1403 LINE",
"45 1403 LINE",
"45 1219 LINE"
);
}
);
width = 682;
}
);
note = dieresis;
unicode = 00A8;
},
{
glyphname = notequal;
lastChange = "2019-11-18 14:23:36 +0000";
layers = (
{
layerId = "489D640B-457E-495A-B1F8-D23C81511CE7";
paths = (
{
closed = 1;
nodes = (
"1060 344 LINE",
"1060 492 LINE",
"519 492 LINE",
"710 856 LINE",
"1060 856 LINE",
"1060 1004 LINE",
"783 1004 LINE",
"935 1296 LINE",
"792 1296 LINE",
"638 1004 LINE",
"65 1004 LINE",
"65 856 LINE",
"566 856 LINE",
"376 492 LINE",
"65 492 LINE",
"65 344 LINE",
"302 344 LINE",
"151 55 LINE",
"296 55 LINE",
"448 344 LINE"
);
}
);
width = 1124;
}
);
note = notequal;
unicode = 2260;
},
{
glyphname = AE;
lastChange = "2019-11-18 14:23:36 +0000";
layers = (
{
layerId = "489D640B-457E-495A-B1F8-D23C81511CE7";
paths = (
{
closed = 1;
nodes = (
"1960 0 LINE",
"1960 156 LINE",
"1160 156 LINE",
"1160 647 LINE",
"1859 647 LINE",
"1859 801 LINE",
"1160 801 LINE",
"1160 1253 LINE",
"1919 1253 LINE",
"1919 1409 LINE",
"710 1409 LINE",
"24 0 LINE",
"223 0 LINE",
"421 412 LINE",
"969 412 LINE",
"969 0 LINE"
);
},
{
closed = 1;
nodes = (
"969 561 LINE",
"491 561 LINE",
"790 1199 LINE",
"818 1262 LINE",
"969 1262 LINE"
);
}
);
width = 2048;
}
);
note = AE;
unicode = 00C6;
},
{
glyphname = Oslash;
lastChange = "2019-11-18 14:23:36 +0000";
layers = (
{
layerId = "489D640B-457E-495A-B1F8-D23C81511CE7";
paths = (
{
closed = 1;
nodes = (
"1495 1034 OFFCURVE",
"1323 1224 QCURVE",
"1524 1466 LINE",
"1332 1466 LINE",
"1211 1320 LINE",
"1044 1430 OFFCURVE",
"797 1430 QCURVE SMOOTH",
"467 1430 OFFCURVE",
"97 1049 OFFCURVE",
"97 711 QCURVE SMOOTH",
"97 380 OFFCURVE",
"271 188 QCURVE",
"71 -53 LINE",
"261 -53 LINE",
"381 92 LINE",
"549 -20 OFFCURVE",
"795 -20 QCURVE SMOOTH",
"1010 -20 OFFCURVE",
"1326 158 OFFCURVE",
"1495 490 OFFCURVE",
"1495 711 QCURVE SMOOTH"
);
},
{
closed = 1;
nodes = (
"1300 436 OFFCURVE",
"1039 135 OFFCURVE",
"795 135 QCURVE SMOOTH",
"615 135 OFFCURVE",
"493 226 QCURVE",
"1202 1079 LINE",
"1300 935 OFFCURVE",
"1300 711 QCURVE SMOOTH"
);
},
{
closed = 1;
nodes = (
"291 978 OFFCURVE",
"555 1274 OFFCURVE",
"797 1274 QCURVE SMOOTH",
"975 1274 OFFCURVE",
"1099 1186 QCURVE",
"392 333 LINE",
"291 482 OFFCURVE",
"291 711 QCURVE SMOOTH"
);
}
);
width = 1593;
}
);
note = Oslash;
unicode = 00D8;
},
{
glyphname = infinity;
lastChange = "2019-11-18 14:23:36 +0000";
layers = (
{
layerId = "489D640B-457E-495A-B1F8-D23C81511CE7";
paths = (
{
closed = 1;
nodes = (
"1373 763 OFFCURVE",
"1204 977 OFFCURVE",
"1064 977 QCURVE SMOOTH",
"967 977 OFFCURVE",
"794 830 OFFCURVE",
"729 700 QCURVE",
"601 983 OFFCURVE",
"400 983 QCURVE SMOOTH",
"264 983 OFFCURVE",
"87 767 OFFCURVE",
"87 596 QCURVE SMOOTH",
"87 420 OFFCURVE",
"261 209 OFFCURVE",
"400 209 QCURVE SMOOTH",
"488 209 OFFCURVE",
"659 352 OFFCURVE",
"727 485 QCURVE",
"859 203 OFFCURVE",
"1062 203 QCURVE SMOOTH",
"1195 203 OFFCURVE",
"1373 424 OFFCURVE",
"1373 590 QCURVE SMOOTH"
);
},
{
closed = 1;
nodes = (
"1125 846 OFFCURVE",
"1234 699 OFFCURVE",
"1234 592 QCURVE SMOOTH",
"1234 479 OFFCURVE",
"1125 334 OFFCURVE",
"1042 334 QCURVE SMOOTH",
"965 334 OFFCURVE",
"846 462 OFFCURVE",
"795 590 QCURVE",
"851 720 OFFCURVE",
"970 846 OFFCURVE",
"1040 846 QCURVE SMOOTH"
);
},
{
closed = 1;
nodes = (
"608 466 OFFCURVE",
"488 340 OFFCURVE",
"418 340 QCURVE SMOOTH",
"331 340 OFFCURVE",
"227 482 OFFCURVE",
"227 594 QCURVE SMOOTH",
"227 705 OFFCURVE",
"332 852 OFFCURVE",
"416 852 QCURVE SMOOTH",
"494 852 OFFCURVE",
"613 724 OFFCURVE",
"664 596 QCURVE"
);
}
);
width = 1460;
}
);
note = infinity;
unicode = 221E;
},
{
glyphname = plusminus;
lastChange = "2019-11-18 14:23:36 +0000";
layers = (
{
layerId = "489D640B-457E-495A-B1F8-D23C81511CE7";
paths = (
{
closed = 1;
nodes = (
"1060 680 LINE",
"1060 825 LINE",
"636 825 LINE",
"636 1219 LINE",
"489 1219 LINE",
"489 825 LINE",
"65 825 LINE",
"65 680 LINE",
"489 680 LINE",
"489 285 LINE",
"636 285 LINE",
"636 680 LINE"
);
},
{
closed = 1;
nodes = (
"1060 0 LINE",
"1060 145 LINE",
"65 145 LINE",
"65 0 LINE"
);
}
);
width = 1124;
}
);
note = plusminus;
unicode = 00B1;
},
{
glyphname = lessequal;
lastChange = "2019-11-18 14:23:36 +0000";
layers = (
{
layerId = "489D640B-457E-495A-B1F8-D23C81511CE7";
paths = (
{
closed = 1;
nodes = (
"1060 236 LINE",
"1060 389 LINE",
"202 733 LINE",
"1060 1077 LINE",
"1060 1231 LINE",
"65 836 LINE",
"65 631 LINE"
);
},
{
closed = 1;
nodes = (
"1058 0 LINE",
"1058 145 LINE",
"63 145 LINE",
"63 0 LINE"
);
}
);
width = 1124;
}
);
note = lessequal;
unicode = 2264;
},
{
glyphname = greaterequal;
lastChange = "2019-11-18 14:23:36 +0000";
layers = (
{
layerId = "489D640B-457E-495A-B1F8-D23C81511CE7";
paths = (
{
closed = 1;
nodes = (
"1060 631 LINE",
"1060 836 LINE",
"65 1231 LINE",
"65 1077 LINE",
"923 733 LINE",
"65 389 LINE",
"65 236 LINE"
);
},
{
closed = 1;
nodes = (
"1060 0 LINE",
"1060 145 LINE",
"65 145 LINE",
"65 0 LINE"
);
}
);
width = 1124;
}
);
note = greaterequal;
unicode = 2265;
},
{
glyphname = yen;
lastChange = "2019-11-18 14:23:36 +0000";
layers = (
{
layerId = "489D640B-457E-495A-B1F8-D23C81511CE7";
paths = (
{
closed = 1;
nodes = (
"1142 1409 LINE",
"943 1409 LINE",
"568 762 LINE",
"197 1409 LINE",
"-2 1409 LINE",
"419 709 LINE",
"99 709 LINE",
"99 584 LINE",
"482 584 LINE",
"480 430 LINE",
"99 430 LINE",
"99 303 LINE",
"480 303 LINE",
"480 0 LINE",
"658 0 LINE",
"658 303 LINE",
"1041 303 LINE",
"1041 430 LINE",
"658 430 LINE",
"658 584 LINE",
"1041 584 LINE",
"1041 709 LINE",
"720 709 LINE"
);
}
);
width = 1139;
}
);
note = yen;
unicode = 00A5;
},
{
glyphname = mu1;
lastChange = "2019-11-18 14:23:36 +0000";
layers = (
{
layerId = "489D640B-457E-495A-B1F8-D23C81511CE7";
paths = (
{
closed = 1;
nodes = (
"320 -425 LINE",
"320 59 LINE",
"351 21 OFFCURVE",
"460 -20 OFFCURVE",
"527 -20 QCURVE SMOOTH",
"720 -20 OFFCURVE",
"826 174 QCURVE",
"829 174 LINE",
"834 74 OFFCURVE",
"929 -20 OFFCURVE",
"1020 -20 QCURVE SMOOTH",
"1068 -20 OFFCURVE",
"1133 0 QCURVE",
"1133 129 LINE",
"1104 121 OFFCURVE",
"1079 121 QCURVE SMOOTH",
"1037 121 OFFCURVE",
"1001 190 OFFCURVE",
"1001 266 QCURVE SMOOTH",
"1001 1082 LINE",
"821 1082 LINE",
"821 455 LINE SMOOTH",
"821 293 OFFCURVE",
"675 119 OFFCURVE",
"547 119 QCURVE SMOOTH",
"428 119 OFFCURVE",
"321 258 OFFCURVE",
"321 396 QCURVE SMOOTH",
"321 1082 LINE",
"140 1082 LINE",
"140 -425 LINE"
);
}
);
width = 1180;
}
);
note = mu1;
unicode = 00B5;
},
{
glyphname = partialdiff;
lastChange = "2019-11-18 14:23:36 +0000";
layers = (
{
layerId = "489D640B-457E-495A-B1F8-D23C81511CE7";
paths = (
{
closed = 1;
nodes = (
"954 1197 OFFCURVE",
"747 1477 OFFCURVE",
"552 1477 QCURVE SMOOTH",
"440 1477 OFFCURVE",
"327 1415 QCURVE",
"291 1268 LINE",
"337 1303 OFFCURVE",
"460 1343 OFFCURVE",
"513 1343 QCURVE SMOOTH",
"642 1343 OFFCURVE",
"772 1134 OFFCURVE",
"772 938 QCURVE SMOOTH",
"768 821 LINE",
"764 821 LINE",
"732 905 OFFCURVE",
"599 1004 OFFCURVE",
"515 1004 QCURVE SMOOTH",
"389 1004 OFFCURVE",
"183 840 OFFCURVE",
"56 522 OFFCURVE",
"56 356 QCURVE SMOOTH",
"56 176 OFFCURVE",
"228 -27 OFFCURVE",
"389 -27 QCURVE SMOOTH",
"521 -27 OFFCURVE",
"735 120 OFFCURVE",
"882 403 OFFCURVE",
"954 780 OFFCURVE",
"954 938 QCURVE SMOOTH"
);
},
{
closed = 1;
nodes = (
"726 527 OFFCURVE",
"631 260 OFFCURVE",
"496 109 OFFCURVE",
"418 109 QCURVE SMOOTH",
"336 109 OFFCURVE",
"246 243 OFFCURVE",
"246 358 QCURVE SMOOTH",
"246 490 OFFCURVE",
"333 751 OFFCURVE",
"467 883 OFFCURVE",
"548 883 QCURVE SMOOTH",
"617 883 OFFCURVE",
"726 768 OFFCURVE",
"743 680 QCURVE"
);
}
);
width = 1012;
}
);
note = partialdiff;
unicode = 2202;
},
{
glyphname = summation;
lastChange = "2019-11-18 14:23:36 +0000";
layers = (
{
layerId = "489D640B-457E-495A-B1F8-D23C81511CE7";
paths = (
{
closed = 1;
nodes = (
"1328 -434 LINE",
"1328 -282 LINE",
"398 -282 LINE",
"998 493 LINE",
"414 1257 LINE",
"1260 1257 LINE",
"1260 1409 LINE",
"170 1409 LINE",
"170 1303 LINE",
"789 491 LINE",
"154 -325 LINE",
"154 -434 LINE"
);
}
);
width = 1460;
}
);
note = summation;
unicode = 2211;
},
{
glyphname = product;
lastChange = "2019-11-18 14:23:36 +0000";
layers = (
{
layerId = "489D640B-457E-495A-B1F8-D23C81511CE7";
paths = (
{
closed = 1;
nodes = (
"1452 -434 LINE",
"1452 1409 LINE",
"235 1409 LINE",
"235 -434 LINE",
"426 -434 LINE",
"426 1247 LINE",
"1268 1247 LINE",
"1268 -434 LINE"
);
}
);
width = 1686;
}
);
note = product;
unicode = 220F;
},
{
glyphname = integral;
lastChange = "2019-11-18 14:23:36 +0000";
layers = (
{
layerId = "489D640B-457E-495A-B1F8-D23C81511CE7";
paths = (
{
closed = 1;
nodes = (
"199 -434 OFFCURVE",
"373 -251 OFFCURVE",
"373 -79 QCURVE SMOOTH",
"373 1135 LINE SMOOTH",
"373 1249 OFFCURVE",
"462 1368 OFFCURVE",
"545 1368 QCURVE SMOOTH",
"611 1368 OFFCURVE",
"660 1341 QCURVE",
"660 1489 LINE",
"616 1507 OFFCURVE",
"529 1507 QCURVE SMOOTH",
"363 1507 OFFCURVE",
"189 1325 OFFCURVE",
"189 1153 QCURVE SMOOTH",
"191 -59 LINE SMOOTH",
"191 -292 OFFCURVE",
"19 -292 QCURVE SMOOTH",
"-38 -292 OFFCURVE",
"-98 -268 QCURVE",
"-98 -415 LINE",
"-43 -434 OFFCURVE",
"36 -434 QCURVE SMOOTH"
);
}
);
width = 561;
}
);
note = integral;
unicode = 222B;
},
{
glyphname = ordfeminine;
lastChange = "2019-11-18 14:23:36 +0000";
layers = (
{
layerId = "489D640B-457E-495A-B1F8-D23C81511CE7";
paths = (
{
closed = 1;
nodes = (
"447 651 OFFCURVE",
"520 798 QCURVE",
"524 798 LINE",
"528 733 OFFCURVE",
"609 657 OFFCURVE",
"682 657 QCURVE SMOOTH",
"716 657 OFFCURVE",
"765 670 QCURVE",
"765 774 LINE",
"741 766 OFFCURVE",
"722 766 QCURVE SMOOTH",
"687 766 OFFCURVE",
"659 816 OFFCURVE",
"659 874 QCURVE SMOOTH",
"659 1182 LINE SMOOTH",
"659 1307 OFFCURVE",
"508 1432 OFFCURVE",
"363 1432 QCURVE SMOOTH",
"234 1432 OFFCURVE",
"75 1312 OFFCURVE",
"59 1206 QCURVE",
"208 1196 LINE",
"217 1272 OFFCURVE",
"298 1331 OFFCURVE",
"365 1331 QCURVE SMOOTH",
"446 1331 OFFCURVE",
"516 1257 OFFCURVE",
"516 1176 QCURVE SMOOTH",
"516 1116 LINE",
"338 1112 LINE SMOOTH",
"183 1110 OFFCURVE",
"26 986 OFFCURVE",
"26 870 QCURVE SMOOTH",
"26 767 OFFCURVE",
"152 651 OFFCURVE",
"260 651 QCURVE SMOOTH"
);
},
{
closed = 1;
nodes = (
"176 762 OFFCURVE",
"176 883 QCURVE SMOOTH",
"176 948 OFFCURVE",
"260 1014 OFFCURVE",
"378 1020 QCURVE SMOOTH",
"516 1024 LINE",
"516 959 LINE SMOOTH",
"516 880 OFFCURVE",
"389 762 OFFCURVE",
"299 762 QCURVE SMOOTH"
);
}
);
width = 758;
}
);
note = ordfeminine;
unicode = 00AA;
},
{
glyphname = ordmasculine;
lastChange = "2019-11-18 14:23:36 +0000";
layers = (
{
layerId = "489D640B-457E-495A-B1F8-D23C81511CE7";
paths = (
{
closed = 1;
nodes = (
"723 1432 OFFCURVE",
"376 1432 QCURVE SMOOTH",
"205 1432 OFFCURVE",
"27 1231 OFFCURVE",
"27 1042 QCURVE SMOOTH",
"27 852 OFFCURVE",
"204 651 OFFCURVE",
"372 651 QCURVE SMOOTH",
"547 651 OFFCURVE",
"723 854 OFFCURVE",
"723 1042 QCURVE SMOOTH"
);
},
{
closed = 1;
nodes = (
"574 894 OFFCURVE",
"482 756 OFFCURVE",
"371 756 QCURVE SMOOTH",
"270 756 OFFCURVE",
"179 897 OFFCURVE",
"179 1042 QCURVE SMOOTH",
"179 1192 OFFCURVE",
"271 1327 OFFCURVE",
"379 1327 QCURVE SMOOTH",
"483 1327 OFFCURVE",
"574 1196 OFFCURVE",
"574 1042 QCURVE SMOOTH"
);
}
);
width = 748;
}
);
note = ordmasculine;
unicode = 00BA;
},
{
glyphname = Ohm;
lastChange = "2019-11-18 14:23:36 +0000";
layers = (
{
layerId = "489D640B-457E-495A-B1F8-D23C81511CE7";
paths = (
{
closed = 1;
nodes = (
"483 1430 OFFCURVE",
"136 1095 OFFCURVE",
"136 801 QCURVE SMOOTH",
"136 599 OFFCURVE",
"352 258 OFFCURVE",
"560 145 QCURVE",
"479 150 LINE",
"352 156 LINE",
"108 156 LINE",
"108 0 LINE",
"697 0 LINE",
"697 224 LINE",
"517 320 OFFCURVE",
"331 605 OFFCURVE",
"331 788 QCURVE SMOOTH",
"331 1020 OFFCURVE",
"569 1274 OFFCURVE",
"787 1274 QCURVE SMOOTH",
"1003 1274 OFFCURVE",
"1241 1020 OFFCURVE",
"1241 788 QCURVE SMOOTH",
"1241 604 OFFCURVE",
"1054 319 OFFCURVE",
"875 224 QCURVE",
"875 0 LINE",
"1464 0 LINE",
"1464 156 LINE",
"1220 156 LINE",
"1093 150 LINE",
"1012 145 LINE",
"1221 260 OFFCURVE",
"1436 600 OFFCURVE",
"1436 801 QCURVE SMOOTH",
"1436 1095 OFFCURVE",
"1089 1430 OFFCURVE",
"786 1430 QCURVE SMOOTH"
);
}
);
width = 1573;
}
);
note = Ohm;
unicode = 2126;
},
{
glyphname = ae;
lastChange = "2019-11-18 14:23:36 +0000";
layers = (
{
layerId = "489D640B-457E-495A-B1F8-D23C81511CE7";
paths = (
{
closed = 1;
nodes = (
"1730 503 LINE",
"1730 527 LINE SMOOTH",
"1730 1102 OFFCURVE",
"1253 1102 QCURVE SMOOTH",
"1025 1102 OFFCURVE",
"907 963 QCURVE",
"808 1102 OFFCURVE",
"558 1102 QCURVE SMOOTH",
"160 1102 OFFCURVE",
"114 810 QCURVE",
"302 793 LINE",
"315 885 OFFCURVE",
"428 965 OFFCURVE",
"554 965 QCURVE SMOOTH",
"675 965 OFFCURVE",
"786 854 OFFCURVE",
"786 719 QCURVE SMOOTH",
"786 660 LINE",
"546 656 LINE SMOOTH",
"304 652 OFFCURVE",
"66 476 OFFCURVE",
"66 302 QCURVE SMOOTH",
"66 152 OFFCURVE",
"235 -20 OFFCURVE",
"402 -20 QCURVE SMOOTH",
"548 -20 OFFCURVE",
"758 97 OFFCURVE",
"837 237 QCURVE",
"939 -20 OFFCURVE",
"1260 -20 QCURVE SMOOTH",
"1604 -20 OFFCURVE",
"1701 236 QCURVE",
"1543 281 LINE",
"1518 209 OFFCURVE",
"1377 115 OFFCURVE",
"1260 115 QCURVE SMOOTH",
"1120 115 OFFCURVE",
"970 305 OFFCURVE",
"968 486 QCURVE SMOOTH",
"968 503 LINE"
);
},
{
closed = 1;
nodes = (
"786 445 LINE SMOOTH",
"786 359 OFFCURVE",
"699 204 OFFCURVE",
"546 115 OFFCURVE",
"444 115 QCURVE SMOOTH",
"351 115 OFFCURVE",
"251 212 OFFCURVE",
"251 299 QCURVE SMOOTH",
"251 373 OFFCURVE",
"317 474 OFFCURVE",
"458 527 OFFCURVE",
"591 530 QCURVE SMOOTH",
"786 534 LINE"
);
},
{
closed = 1;
nodes = (
"970 641 LINE",
"976 798 OFFCURVE",
"1123 969 OFFCURVE",
"1250 969 QCURVE SMOOTH",
"1385 969 OFFCURVE",
"1529 812 OFFCURVE",
"1544 641 QCURVE"
);
}
);
width = 1821;
}
);
note = ae;
unicode = 00E6;
},
{
glyphname = oslash;
lastChange = "2019-11-18 14:23:36 +0000";
layers = (
{
layerId = "489D640B-457E-495A-B1F8-D23C81511CE7";
paths = (
{
closed = 1;
nodes = (
"1112 782 OFFCURVE",
"1031 915 QCURVE",
"1204 1116 LINE",
"1037 1116 LINE",
"946 1011 LINE",
"831 1102 OFFCURVE",
"630 1102 QCURVE SMOOTH",
"145 1102 OFFCURVE",
"145 542 QCURVE SMOOTH",
"145 314 OFFCURVE",
"228 176 QCURVE",
"44 -38 LINE",
"211 -38 LINE",
"311 78 LINE",
"429 -20 OFFCURVE",
"624 -20 QCURVE SMOOTH",
"862 -20 OFFCURVE",
"1112 258 OFFCURVE",
"1112 542 QCURVE SMOOTH"
);
},
{
closed = 1;
nodes = (
"923 321 OFFCURVE",
"784 113 OFFCURVE",
"622 113 QCURVE SMOOTH",
"485 113 OFFCURVE",
"417 201 QCURVE",
"900 763 LINE",
"923 671 OFFCURVE",
"923 542 QCURVE SMOOTH"
);
},
{
closed = 1;
nodes = (
"334 762 OFFCURVE",
"475 969 OFFCURVE",
"633 969 QCURVE SMOOTH",
"773 969 OFFCURVE",
"840 888 QCURVE",
"358 327 LINE",
"334 412 OFFCURVE",
"334 542 QCURVE SMOOTH"
);
}
);
width = 1251;
}
);
note = oslash;
unicode = 00F8;
},
{
glyphname = questiondown;
lastChange = "2019-11-18 14:23:36 +0000";
layers = (
{
layerId = "489D640B-457E-495A-B1F8-D23C81511CE7";
paths = (
{
closed = 1;
nodes = (
"131 -137 OFFCURVE",
"387 -348 OFFCURVE",
"610 -348 QCURVE SMOOTH",
"824 -348 OFFCURVE",
"1084 -136 OFFCURVE",
"1110 62 QCURVE",
"926 74 LINE",
"912 -48 OFFCURVE",
"748 -188 OFFCURVE",
"608 -188 QCURVE SMOOTH",
"468 -188 OFFCURVE",
"313 -56 OFFCURVE",
"313 58 QCURVE SMOOTH",
"313 117 OFFCURVE",
"350 205 OFFCURVE",
"410 275 OFFCURVE",
"487 332 OFFCURVE",
"567 389 OFFCURVE",
"645 452 OFFCURVE",
"707 532 OFFCURVE",
"746 636 OFFCURVE",
"748 705 QCURVE",
"573 705 LINE",
"572 637 OFFCURVE",
"502 522 OFFCURVE",
"431 470 QCURVE SMOOTH",
"350 411 LINE SMOOTH",
"257 343 OFFCURVE",
"175 243 OFFCURVE",
"131 125 OFFCURVE",
"131 50 QCURVE SMOOTH"
);
},
{
closed = 1;
nodes = (
"561 1082 LINE",
"561 881 LINE",
"756 881 LINE",
"756 1082 LINE"
);
}
);
width = 1251;
}
);
note = questiondown;
unicode = 00BF;
},
{
glyphname = exclamdown;
lastChange = "2019-11-18 14:23:36 +0000";
layers = (
{
layerId = "489D640B-457E-495A-B1F8-D23C81511CE7";
paths = (
{
closed = 1;
nodes = (
"242 -327 LINE",
"438 -327 LINE",
"414 685 LINE",
"266 685 LINE"
);
},
{
closed = 1;
nodes = (
"246 1082 LINE",
"246 881 LINE",
"440 881 LINE",
"440 1082 LINE"
);
}
);
width = 682;
}
);
note = exclamdown;
unicode = 00A1;
},
{
glyphname = logicalnot;
lastChange = "2019-11-18 14:23:36 +0000";
layers = (
{
layerId = "489D640B-457E-495A-B1F8-D23C81511CE7";
paths = (
{
closed = 1;
nodes = (
"1095 180 LINE",
"1095 754 LINE",
"100 754 LINE",
"100 608 LINE",
"950 608 LINE",
"950 180 LINE"
);
}
);
width = 1196;
}
);
note = logicalnot;
unicode = 00AC;
},
{
glyphname = radical;
lastChange = "2019-11-18 14:23:36 +0000";
layers = (
{
layerId = "489D640B-457E-495A-B1F8-D23C81511CE7";
paths = (
{
closed = 1;
nodes = (
"1122 1620 LINE",
"993 1620 LINE",
"563 205 LINE",
"321 895 LINE",
"51 895 LINE",
"51 778 LINE",
"233 778 LINE",
"516 -14 LINE",
"622 -14 LINE"
);
}
);
width = 1124;
}
);
note = radical;
unicode = 221A;
},
{
glyphname = florin;
lastChange = "2019-11-18 14:23:36 +0000";
layers = (
{
layerId = "489D640B-457E-495A-B1F8-D23C81511CE7";
paths = (
{
closed = 1;
nodes = (
"854 1434 LINE",
"819 1444 OFFCURVE",
"737 1454 OFFCURVE",
"701 1454 QCURVE SMOOTH",
"568 1454 OFFCURVE",
"438 1314 OFFCURVE",
"438 1154 QCURVE SMOOTH",
"438 1022 LINE",
"285 1022 LINE",
"285 891 LINE",
"437 891 LINE",
"437 -456 LINE",
"617 -456 LINE",
"617 891 LINE",
"830 891 LINE",
"830 1022 LINE",
"619 1022 LINE",
"619 1159 LINE SMOOTH",
"619 1250 OFFCURVE",
"679 1327 OFFCURVE",
"742 1327 QCURVE SMOOTH",
"775 1327 OFFCURVE",
"837 1317 OFFCURVE",
"854 1312 QCURVE"
);
}
);
width = 1139;
}
);
note = florin;
unicode = 0192;
},
{
glyphname = approxequal;
lastChange = "2019-11-18 14:23:36 +0000";
layers = (
{
layerId = "489D640B-457E-495A-B1F8-D23C81511CE7";
paths = (
{
closed = 1;
nodes = (
"893 758 OFFCURVE",
"1010 796 OFFCURVE",
"1068 838 QCURVE",
"1068 987 LINE",
"954 893 OFFCURVE",
"824 893 QCURVE SMOOTH",
"779 893 OFFCURVE",
"664 925 OFFCURVE",
"554 965 QCURVE SMOOTH",
"422 1012 OFFCURVE",
"319 1012 QCURVE SMOOTH",
"170 1012 OFFCURVE",
"56 928 QCURVE",
"56 784 LINE",
"127 835 OFFCURVE",
"241 872 OFFCURVE",
"304 872 QCURVE SMOOTH",
"388 872 OFFCURVE",
"521 827 QCURVE SMOOTH",
"594 801 OFFCURVE",
"739 758 OFFCURVE",
"808 758 QCURVE SMOOTH"
);
},
{
closed = 1;
nodes = (
"889 336 OFFCURVE",
"1002 371 OFFCURVE",
"1068 418 QCURVE",
"1068 565 LINE",
"954 473 OFFCURVE",
"824 473 QCURVE SMOOTH",
"779 473 OFFCURVE",
"659 506 OFFCURVE",
"628 518 QCURVE SMOOTH",
"498 564 OFFCURVE",
"371 590 OFFCURVE",
"319 590 QCURVE SMOOTH",
"167 590 OFFCURVE",
"56 506 QCURVE",
"56 365 LINE",
"121 412 OFFCURVE",
"237 453 OFFCURVE",
"304 453 QCURVE SMOOTH",
"388 453 OFFCURVE",
"521 406 QCURVE SMOOTH",
"594 380 OFFCURVE",
"739 336 OFFCURVE",
"808 336 QCURVE SMOOTH"
);
}
);
width = 1124;
}
);
note = approxequal;
unicode = 2248;
},
{
glyphname = uni2206;
lastChange = "2019-11-18 14:23:36 +0000";
layers = (
{
layerId = "489D640B-457E-495A-B1F8-D23C81511CE7";
paths = (
{
closed = 1;
nodes = (
"5 141 LINE",
"4 0 LINE",
"1249 0 LINE",
"1249 141 LINE",
"739 1409 LINE",
"522 1409 LINE"
);
},
{
closed = 1;
nodes = (
"206 156 LINE",
"545 1016 LINE SMOOTH",
"588 1122 OFFCURVE",
"619 1233 QCURVE SMOOTH",
"628 1265 LINE",
"630 1253 OFFCURVE",
"681 1092 OFFCURVE",
"711 1018 QCURVE SMOOTH",
"1049 156 LINE"
);
}
);
width = 1253;
}
);
note = uni2206;
unicode = 2206;
},
{
glyphname = guillemotleft;
lastChange = "2019-11-18 14:23:36 +0000";
layers = (
{
layerId = "489D640B-457E-495A-B1F8-D23C81511CE7";
paths = (
{
closed = 1;
nodes = (
"1056 141 LINE",
"1056 170 LINE",
"716 537 LINE",
"1054 909 LINE",
"1054 940 LINE",
"886 940 LINE",
"548 569 LINE",
"548 506 LINE",
"886 141 LINE"
);
},
{
closed = 1;
nodes = (
"588 141 LINE",
"588 170 LINE",
"251 537 LINE",
"586 909 LINE",
"586 940 LINE",
"419 940 LINE",
"83 569 LINE",
"83 506 LINE",
"419 141 LINE"
);
}
);
width = 1139;
}
);
note = guillemotleft;
unicode = 00AB;
},
{
glyphname = guillemotright;
lastChange = "2019-11-18 14:23:36 +0000";
layers = (
{
layerId = "489D640B-457E-495A-B1F8-D23C81511CE7";
paths = (
{
closed = 1;
nodes = (
"1056 506 LINE",
"1056 569 LINE",
"718 940 LINE",
"552 940 LINE",
"552 909 LINE",
"888 537 LINE",
"550 170 LINE",
"550 141 LINE",
"718 141 LINE"
);
},
{
closed = 1;
nodes = (
"588 506 LINE",
"588 569 LINE",
"253 940 LINE",
"85 940 LINE",
"85 909 LINE",
"421 537 LINE",
"83 170 LINE",
"83 141 LINE",
"253 141 LINE"
);
}
);
width = 1139;
}
);
note = guillemotright;
unicode = 00BB;
},
{
glyphname = ellipsis;
lastChange = "2019-11-18 14:23:36 +0000";
layers = (
{
layerId = "489D640B-457E-495A-B1F8-D23C81511CE7";
paths = (
{
closed = 1;
nodes = (
"1770 0 LINE",
"1770 219 LINE",
"1576 219 LINE",
"1576 0 LINE"
);
},
{
closed = 1;
nodes = (
"1121 0 LINE",
"1121 219 LINE",
"929 219 LINE",
"929 0 LINE"
);
},
{
closed = 1;
nodes = (
"473 0 LINE",
"473 219 LINE",
"278 219 LINE",
"278 0 LINE"
);
}
);
width = 2048;
}
);
note = ellipsis;
unicode = 2026;
},
{
glyphname = OE;
lastChange = "2019-11-18 14:23:36 +0000";
layers = (
{
layerId = "489D640B-457E-495A-B1F8-D23C81511CE7";
paths = (
{
closed = 1;
nodes = (
"1958 0 LINE",
"1958 156 LINE",
"1114 156 LINE",
"1114 647 LINE",
"1857 647 LINE",
"1857 801 LINE",
"1114 801 LINE",
"1114 1253 LINE",
"1917 1253 LINE",
"1917 1409 LINE",
"1003 1409 LINE",
"898 1420 OFFCURVE",
"791 1420 QCURVE SMOOTH",
"465 1420 OFFCURVE",
"97 1043 OFFCURVE",
"97 711 QCURVE SMOOTH",
"97 376 OFFCURVE",
"466 -10 OFFCURVE",
"789 -10 QCURVE SMOOTH",
"932 -10 OFFCURVE",
"999 0 QCURVE"
);
},
{
closed = 1;
nodes = (
"554 145 OFFCURVE",
"291 443 OFFCURVE",
"291 711 QCURVE SMOOTH",
"291 978 OFFCURVE",
"546 1264 OFFCURVE",
"791 1264 QCURVE SMOOTH",
"806 1264 OFFCURVE",
"879 1264 OFFCURVE",
"923 1260 QCURVE",
"923 149 LINE",
"871 145 OFFCURVE",
"789 145 QCURVE SMOOTH"
);
}
);
width = 2048;
}
);
note = OE;
unicode = 0152;
},
{
glyphname = oe;
lastChange = "2019-11-18 14:23:36 +0000";
layers = (
{
layerId = "489D640B-457E-495A-B1F8-D23C81511CE7";
paths = (
{
closed = 1;
nodes = (
"1842 503 LINE",
"1842 527 LINE SMOOTH",
"1842 1102 OFFCURVE",
"1365 1102 QCURVE SMOOTH",
"1105 1102 OFFCURVE",
"979 925 QCURVE",
"862 1102 OFFCURVE",
"581 1102 QCURVE SMOOTH",
"339 1102 OFFCURVE",
"86 821 OFFCURVE",
"86 542 QCURVE SMOOTH",
"86 269 OFFCURVE",
"337 -20 OFFCURVE",
"575 -20 QCURVE SMOOTH",
"852 -20 OFFCURVE",
"976 163 QCURVE",
"1097 -20 OFFCURVE",
"1372 -20 QCURVE SMOOTH",
"1716 -20 OFFCURVE",
"1813 236 QCURVE",
"1655 281 LINE",
"1630 209 OFFCURVE",
"1489 115 OFFCURVE",
"1372 115 QCURVE SMOOTH",
"1224 115 OFFCURVE",
"1070 317 OFFCURVE",
"1070 503 QCURVE"
);
},
{
closed = 1;
nodes = (
"881 321 OFFCURVE",
"737 113 OFFCURVE",
"573 113 QCURVE SMOOTH",
"275 113 OFFCURVE",
"275 542 QCURVE SMOOTH",
"275 756 OFFCURVE",
"422 969 OFFCURVE",
"584 969 QCURVE SMOOTH",
"743 969 OFFCURVE",
"881 761 OFFCURVE",
"881 542 QCURVE SMOOTH"
);
},
{
closed = 1;
nodes = (
"1072 641 LINE",
"1078 794 OFFCURVE",
"1231 969 OFFCURVE",
"1362 969 QCURVE SMOOTH",
"1497 969 OFFCURVE",
"1641 812 OFFCURVE",
"1656 641 QCURVE"
);
}
);
width = 1933;
}
);
note = oe;
unicode = 0153;
},
{
glyphname = endash;
lastChange = "2019-11-18 14:23:36 +0000";
layers = (
{
layerId = "489D640B-457E-495A-B1F8-D23C81511CE7";
paths = (
{
closed = 1;
nodes = (
"1138 451 LINE",
"1138 588 LINE",
"0 588 LINE",
"0 451 LINE"
);
}
);
width = 1139;
}
);
note = endash;
unicode = 2013;
},
{
glyphname = emdash;
lastChange = "2019-11-18 14:23:36 +0000";
layers = (
{
layerId = "489D640B-457E-495A-B1F8-D23C81511CE7";
paths = (
{
closed = 1;
nodes = (
"2048 451 LINE",
"2048 588 LINE",
"0 588 LINE",
"0 451 LINE"
);
}
);
width = 2048;
}
);
note = emdash;
unicode = 2014;
},
{
glyphname = quotedblleft;
lastChange = "2019-11-18 14:23:36 +0000";
layers = (
{
layerId = "489D640B-457E-495A-B1F8-D23C81511CE7";
paths = (
{
closed = 1;
nodes = (
"601 952 LINE",
"601 1147 LINE",
"513 1147 LINE",
"513 1273 OFFCURVE",
"607 1409 QCURVE",
"485 1409 LINE",
"443 1342 OFFCURVE",
"407 1193 OFFCURVE",
"407 1098 QCURVE SMOOTH",
"407 952 LINE"
);
},
{
closed = 1;
nodes = (
"270 952 LINE",
"270 1147 LINE",
"181 1147 LINE",
"181 1272 OFFCURVE",
"276 1409 QCURVE",
"155 1409 LINE",
"112 1342 OFFCURVE",
"75 1195 OFFCURVE",
"75 1098 QCURVE SMOOTH",
"75 952 LINE"
);
}
);
width = 682;
}
);
note = quotedblleft;
unicode = 201C;
},
{
glyphname = quotedblright;
lastChange = "2019-11-18 14:23:36 +0000";
layers = (
{
layerId = "489D640B-457E-495A-B1F8-D23C81511CE7";
paths = (
{
closed = 1;
nodes = (
"607 1409 LINE",
"413 1409 LINE",
"413 1214 LINE",
"501 1214 LINE",
"501 1088 OFFCURVE",
"407 952 QCURVE",
"528 952 LINE",
"573 1025 OFFCURVE",
"607 1171 OFFCURVE",
"607 1264 QCURVE SMOOTH"
);
},
{
closed = 1;
nodes = (
"276 1409 LINE",
"81 1409 LINE",
"81 1214 LINE",
"169 1214 LINE",
"169 1088 OFFCURVE",
"75 952 QCURVE",
"198 952 LINE",
"238 1016 OFFCURVE",
"276 1159 OFFCURVE",
"276 1264 QCURVE SMOOTH"
);
}
);
width = 682;
}
);
note = quotedblright;
unicode = 201D;
},
{
glyphname = quoteleft;
lastChange = "2019-11-18 14:23:36 +0000";
layers = (
{
layerId = "489D640B-457E-495A-B1F8-D23C81511CE7";
paths = (
{
closed = 1;
nodes = (
"322 952 LINE",
"322 1147 LINE",
"233 1147 LINE",
"233 1272 OFFCURVE",
"328 1409 QCURVE",
"207 1409 LINE",
"164 1342 OFFCURVE",
"127 1195 OFFCURVE",
"127 1098 QCURVE SMOOTH",
"127 952 LINE"
);
}
);
width = 455;
}
);
note = quoteleft;
unicode = 2018;
},
{
glyphname = quoteright;
lastChange = "2019-11-18 14:23:36 +0000";
layers = (
{
layerId = "489D640B-457E-495A-B1F8-D23C81511CE7";
paths = (
{
closed = 1;
nodes = (
"328 1409 LINE",
"133 1409 LINE",
"133 1212 LINE",
"221 1212 LINE",
"221 1088 OFFCURVE",
"127 952 QCURVE",
"250 952 LINE",
"290 1016 OFFCURVE",
"328 1159 OFFCURVE",
"328 1264 QCURVE SMOOTH"
);
}
);
width = 455;
}
);
note = quoteright;
unicode = 2019;
},
{
glyphname = divide;
lastChange = "2019-11-18 14:23:36 +0000";
layers = (
{
layerId = "489D640B-457E-495A-B1F8-D23C81511CE7";
paths = (
{
closed = 1;
nodes = (
"646 958 LINE",
"646 1141 LINE",
"478 1141 LINE",
"478 958 LINE"
);
},
{
closed = 1;
nodes = (
"1060 608 LINE",
"1060 754 LINE",
"65 754 LINE",
"65 608 LINE"
);
},
{
closed = 1;
nodes = (
"646 223 LINE",
"646 406 LINE",
"478 406 LINE",
"478 223 LINE"
);
}
);
width = 1124;
}
);
note = divide;
unicode = 00F7;
},
{
glyphname = lozenge;
lastChange = "2019-11-18 14:23:36 +0000";
layers = (
{
layerId = "489D640B-457E-495A-B1F8-D23C81511CE7";
paths = (
{
closed = 1;
nodes = (
"1006 721 LINE",
"547 1440 LINE",
"465 1440 LINE",
"8 719 LINE",
"465 0 LINE",
"547 0 LINE"
);
},
{
closed = 1;
nodes = (
"860 721 LINE",
"508 147 LINE",
"154 721 LINE",
"508 1286 LINE"
);
}
);
width = 1012;
}
);
note = lozenge;
unicode = 25CA;
},
{
glyphname = fraction;
lastChange = "2019-11-18 14:23:36 +0000";
layers = (
{
layerId = "489D640B-457E-495A-B1F8-D23C81511CE7";
paths = (
{
closed = 1;
nodes = (
"610 1409 LINE",
"465 1409 LINE",
"-416 0 LINE",
"-268 0 LINE"
);
}
);
width = 342;
}
);
note = fraction;
unicode = "2044,2215";
},
{
glyphname = Euro;
lastChange = "2019-11-18 14:23:36 +0000";
layers = (
{
layerId = "489D640B-457E-495A-B1F8-D23C81511CE7";
paths = (
{
closed = 1;
nodes = (
"553 126 OFFCURVE",
"391 307 OFFCURVE",
"369 502 QCURVE",
"773 502 LINE",
"813 631 LINE",
"361 631 LINE",
"357 669 OFFCURVE",
"357 709 QCURVE SMOOTH",
"357 771 OFFCURVE",
"360 795 QCURVE",
"773 795 LINE",
"813 922 LINE",
"367 922 LINE",
"388 1110 OFFCURVE",
"539 1284 OFFCURVE",
"681 1284 QCURVE SMOOTH",
"787 1284 OFFCURVE",
"908 1184 OFFCURVE",
"922 1093 QCURVE",
"1107 1107 LINE",
"1078 1261 OFFCURVE",
"859 1430 OFFCURVE",
"684 1430 QCURVE SMOOTH",
"465 1430 OFFCURVE",
"217 1179 OFFCURVE",
"185 922 QCURVE",
"56 922 LINE",
"16 795 LINE",
"176 795 LINE",
"173 709 LINE",
"176 631 LINE",
"56 631 LINE",
"16 502 LINE",
"187 502 LINE",
"217 242 OFFCURVE",
"470 -20 OFFCURVE",
"687 -20 QCURVE SMOOTH",
"861 -20 OFFCURVE",
"1080 148 OFFCURVE",
"1110 303 QCURVE",
"925 317 LINE",
"911 226 OFFCURVE",
"791 126 OFFCURVE",
"691 126 QCURVE SMOOTH"
);
}
);
width = 1139;
}
);
note = Euro;
unicode = 20AC;
},
{
glyphname = guilsinglleft;
lastChange = "2019-11-18 14:23:36 +0000";
layers = (
{
layerId = "489D640B-457E-495A-B1F8-D23C81511CE7";
paths = (
{
closed = 1;
nodes = (
"593 141 LINE",
"593 170 LINE",
"256 537 LINE",
"591 909 LINE",
"591 940 LINE",
"424 940 LINE",
"88 569 LINE",
"88 506 LINE",
"424 141 LINE"
);
}
);
width = 682;
}
);
note = guilsinglleft;
unicode = 2039;
},
{
glyphname = guilsinglright;
lastChange = "2019-11-18 14:23:36 +0000";
layers = (
{
layerId = "489D640B-457E-495A-B1F8-D23C81511CE7";
paths = (
{
closed = 1;
nodes = (
"594 506 LINE",
"594 569 LINE",
"257 940 LINE",
"91 940 LINE",
"91 909 LINE",
"427 537 LINE",
"89 170 LINE",
"89 141 LINE",
"257 141 LINE"
);
}
);
width = 682;
}
);
note = guilsinglright;
unicode = 203A;
},
{
glyphname = fi;
lastChange = "2019-11-18 14:23:36 +0000";
layers = (
{
layerId = "489D640B-457E-495A-B1F8-D23C81511CE7";
paths = (
{
closed = 1;
nodes = (
"572 951 LINE",
"572 1082 LINE",
"361 1082 LINE",
"361 1179 LINE SMOOTH",
"361 1271 OFFCURVE",
"423 1341 OFFCURVE",
"492 1341 QCURVE SMOOTH",
"527 1341 OFFCURVE",
"572 1333 QCURVE",
"572 1470 LINE",
"520 1482 OFFCURVE",
"445 1482 QCURVE SMOOTH",
"311 1482 OFFCURVE",
"181 1352 OFFCURVE",
"181 1204 QCURVE SMOOTH",
"181 1082 LINE",
"29 1082 LINE",
"29 951 LINE",
"181 951 LINE",
"181 0 LINE",
"361 0 LINE",
"361 951 LINE"
);
},
{
closed = 1;
nodes = (
"886 1312 LINE",
"886 1484 LINE",
"706 1484 LINE",
"706 1312 LINE"
);
},
{
closed = 1;
nodes = (
"886 0 LINE",
"886 1082 LINE",
"706 1082 LINE",
"706 0 LINE"
);
}
);
width = 1024;
}
);
note = fi;
unicode = "F001,FB01";
},
{
glyphname = fl;
lastChange = "2019-11-18 14:23:36 +0000";
layers = (
{
layerId = "489D640B-457E-495A-B1F8-D23C81511CE7";
paths = (
{
closed = 1;
nodes = (
"572 951 LINE",
"572 1082 LINE",
"361 1082 LINE",
"361 1179 LINE SMOOTH",
"361 1271 OFFCURVE",
"423 1341 OFFCURVE",
"492 1341 QCURVE SMOOTH",
"527 1341 OFFCURVE",
"572 1333 QCURVE",
"572 1470 LINE",
"520 1482 OFFCURVE",
"445 1482 QCURVE SMOOTH",
"311 1482 OFFCURVE",
"181 1352 OFFCURVE",
"181 1204 QCURVE SMOOTH",
"181 1082 LINE",
"29 1082 LINE",
"29 951 LINE",
"181 951 LINE",
"181 0 LINE",
"361 0 LINE",
"361 951 LINE"
);
},
{
closed = 1;
nodes = (
"887 0 LINE",
"887 1484 LINE",
"707 1484 LINE",
"707 0 LINE"
);
}
);
width = 1024;
}
);
note = fl;
unicode = "F002,FB02";
},
{
glyphname = daggerdbl;
lastChange = "2019-11-18 14:23:36 +0000";
layers = (
{
layerId = "489D640B-457E-495A-B1F8-D23C81511CE7";
paths = (
{
closed = 1;
nodes = (
"523 670 LINE",
"497 343 LINE",
"136 370 LINE",
"136 206 LINE",
"497 235 LINE",
"481 -141 LINE",
"656 -141 LINE",
"640 235 LINE",
"1000 206 LINE",
"1000 370 LINE",
"640 343 LINE",
"614 670 LINE",
"640 1000 LINE",
"1001 973 LINE",
"1001 1137 LINE",
"640 1108 LINE",
"656 1484 LINE",
"481 1484 LINE",
"497 1108 LINE",
"137 1137 LINE",
"137 973 LINE",
"497 1000 LINE"
);
}
);
width = 1139;
}
);
note = daggerdbl;
unicode = 2021;
},
{
glyphname = periodcentered;
lastChange = "2019-11-18 14:23:36 +0000";
layers = (
{
layerId = "489D640B-457E-495A-B1F8-D23C81511CE7";
paths = (
{
closed = 1;
nodes = (
"382 446 LINE",
"382 666 LINE",
"187 666 LINE",
"187 446 LINE"
);
}
);
width = 569;
}
);
note = periodcentered;
unicode = 2219;
},
{
glyphname = quotesinglbase;
lastChange = "2019-11-18 14:23:36 +0000";
layers = (
{
layerId = "489D640B-457E-495A-B1F8-D23C81511CE7";
paths = (
{
closed = 1;
nodes = (
"328 195 LINE",
"133 195 LINE",
"133 0 LINE",
"221 0 LINE",
"221 -126 OFFCURVE",
"127 -262 QCURVE",
"250 -262 LINE",
"290 -197 OFFCURVE",
"328 -55 OFFCURVE",
"328 51 QCURVE SMOOTH"
);
}
);
width = 455;
}
);
note = quotesinglbase;
unicode = 201A;
},
{
glyphname = quotedblbase;
lastChange = "2019-11-18 14:23:36 +0000";
layers = (
{
layerId = "489D640B-457E-495A-B1F8-D23C81511CE7";
paths = (
{
closed = 1;
nodes = (
"607 195 LINE",
"413 195 LINE",
"413 0 LINE",
"501 0 LINE",
"501 -126 OFFCURVE",
"407 -262 QCURVE",
"528 -262 LINE",
"572 -191 OFFCURVE",
"607 -44 OFFCURVE",
"607 51 QCURVE SMOOTH"
);
},
{
closed = 1;
nodes = (
"276 195 LINE",
"81 195 LINE",
"81 0 LINE",
"169 0 LINE",
"169 -126 OFFCURVE",
"75 -262 QCURVE",
"198 -262 LINE",
"238 -197 OFFCURVE",
"276 -55 OFFCURVE",
"276 51 QCURVE SMOOTH"
);
}
);
width = 682;
}
);
note = quotedblbase;
unicode = 201E;
},
{
glyphname = perthousand;
lastChange = "2019-11-18 14:23:36 +0000";
layers = (
{
layerId = "489D640B-457E-495A-B1F8-D23C81511CE7";
paths = (
{
closed = 1;
nodes = (
"1228 1409 LINE",
"1071 1409 LINE",
"149 0 LINE",
"304 0 LINE"
);
},
{
closed = 1;
nodes = (
"200 1421 OFFCURVE",
"55 1241 OFFCURVE",
"55 1060 QCURVE SMOOTH",
"55 882 OFFCURVE",
"204 694 OFFCURVE",
"352 694 QCURVE SMOOTH",
"497 694 OFFCURVE",
"649 880 OFFCURVE",
"649 1060 QCURVE SMOOTH",
"649 1238 OFFCURVE",
"506 1421 OFFCURVE",
"356 1421 QCURVE SMOOTH"
);
},
{
closed = 1;
nodes = (
"502 931 OFFCURVE",
"429 807 OFFCURVE",
"354 807 QCURVE SMOOTH",
"275 807 OFFCURVE",
"202 928 OFFCURVE",
"202 1060 QCURVE SMOOTH",
"202 1194 OFFCURVE",
"272 1313 OFFCURVE",
"356 1313 QCURVE SMOOTH",
"435 1313 OFFCURVE",
"502 1193 OFFCURVE",
"502 1060 QCURVE SMOOTH"
);
},
{
closed = 1;
nodes = (
"888 716 OFFCURVE",
"743 536 OFFCURVE",
"743 355 QCURVE SMOOTH",
"743 177 OFFCURVE",
"892 -11 OFFCURVE",
"1040 -11 QCURVE SMOOTH",
"1185 -11 OFFCURVE",
"1337 175 OFFCURVE",
"1337 355 QCURVE SMOOTH",
"1337 533 OFFCURVE",
"1194 716 OFFCURVE",
"1044 716 QCURVE SMOOTH"
);
},
{
closed = 1;
nodes = (
"1190 226 OFFCURVE",
"1117 102 OFFCURVE",
"1042 102 QCURVE SMOOTH",
"963 102 OFFCURVE",
"890 223 OFFCURVE",
"890 355 QCURVE SMOOTH",
"890 489 OFFCURVE",
"960 608 OFFCURVE",
"1044 608 QCURVE SMOOTH",
"1123 608 OFFCURVE",
"1190 488 OFFCURVE",
"1190 355 QCURVE SMOOTH"
);
},
{
closed = 1;
nodes = (
"1543 716 OFFCURVE",
"1398 536 OFFCURVE",
"1398 355 QCURVE SMOOTH",
"1398 177 OFFCURVE",
"1547 -11 OFFCURVE",
"1695 -11 QCURVE SMOOTH",
"1840 -11 OFFCURVE",
"1992 175 OFFCURVE",
"1992 355 QCURVE SMOOTH",
"1992 533 OFFCURVE",
"1849 716 OFFCURVE",
"1699 716 QCURVE SMOOTH"
);
},
{
closed = 1;
nodes = (
"1845 226 OFFCURVE",
"1772 102 OFFCURVE",
"1697 102 QCURVE SMOOTH",
"1618 102 OFFCURVE",
"1545 223 OFFCURVE",
"1545 355 QCURVE SMOOTH",
"1545 489 OFFCURVE",
"1615 608 OFFCURVE",
"1699 608 QCURVE SMOOTH",
"1778 608 OFFCURVE",
"1845 488 OFFCURVE",
"1845 355 QCURVE SMOOTH"
);
}
);
width = 2048;
}
);
note = perthousand;
unicode = 2030;
},
{
glyphname = dotlessi;
lastChange = "2019-11-18 14:23:36 +0000";
layers = (
{
layerId = "489D640B-457E-495A-B1F8-D23C81511CE7";
paths = (
{
closed = 1;
nodes = (
"374 0 LINE",
"374 1082 LINE",
"194 1082 LINE",
"194 0 LINE"
);
}
);
width = 569;
}
);
note = dotlessi;
unicode = 0131;
},
{
glyphname = circumflex;
lastChange = "2019-11-18 14:23:36 +0000";
layers = (
{
layerId = "489D640B-457E-495A-B1F8-D23C81511CE7";
paths = (
{
closed = 1;
nodes = (
"438 1491 LINE",
"234 1491 LINE",
"0 1221 LINE",
"0 1201 LINE",
"104 1201 LINE",
"336 1370 LINE",
"338 1370 LINE",
"557 1201 LINE",
"662 1201 LINE",
"662 1221 LINE"
);
}
);
width = 682;
}
);
note = circumflex;
unicode = 02C6;
},
{
glyphname = tilde;
lastChange = "2019-11-18 14:23:36 +0000";
layers = (
{
layerId = "489D640B-457E-495A-B1F8-D23C81511CE7";
paths = (
{
closed = 1;
nodes = (
"577 1201 OFFCURVE",
"677 1321 OFFCURVE",
"694 1469 QCURVE",
"602 1469 LINE",
"585 1350 OFFCURVE",
"485 1350 QCURVE SMOOTH",
"455 1350 OFFCURVE",
"386 1387 OFFCURVE",
"308 1432 OFFCURVE",
"224 1469 OFFCURVE",
"180 1469 QCURVE SMOOTH",
"117 1469 OFFCURVE",
"36 1408 OFFCURVE",
"-12 1303 OFFCURVE",
"-23 1201 QCURVE",
"68 1201 LINE",
"77 1258 OFFCURVE",
"131 1320 OFFCURVE",
"186 1320 QCURVE SMOOTH",
"217 1320 OFFCURVE",
"288 1283 OFFCURVE",
"366 1238 OFFCURVE",
"450 1201 OFFCURVE",
"492 1201 QCURVE SMOOTH"
);
}
);
width = 682;
}
);
note = tilde;
unicode = 02DC;
},
{
glyphname = macron;
lastChange = "2019-11-18 14:23:36 +0000";
layers = (
{
layerId = "489D640B-457E-495A-B1F8-D23C81511CE7";
paths = (
{
closed = 1;
nodes = (
"600 1363 LINE",
"51 1363 LINE",
"51 1236 LINE",
"600 1236 LINE"
);
}
);
width = 682;
}
);
note = macron;
unicode = 02C9;
},
{
glyphname = breve;
lastChange = "2019-11-18 14:23:36 +0000";
layers = (
{
layerId = "489D640B-457E-495A-B1F8-D23C81511CE7";
paths = (
{
closed = 1;
nodes = (
"431 1201 OFFCURVE",
"610 1368 OFFCURVE",
"631 1510 QCURVE",
"514 1510 LINE",
"485 1357 OFFCURVE",
"299 1357 QCURVE SMOOTH",
"110 1357 OFFCURVE",
"82 1510 QCURVE",
"-35 1510 LINE",
"-17 1371 OFFCURVE",
"165 1201 OFFCURVE",
"297 1201 QCURVE SMOOTH"
);
}
);
width = 682;
}
);
note = breve;
unicode = 02D8;
},
{
glyphname = dotaccent;
lastChange = "2019-11-18 14:23:36 +0000";
layers = (
{
layerId = "489D640B-457E-495A-B1F8-D23C81511CE7";
paths = (
{
closed = 1;
nodes = (
"336 1312 LINE",
"336 1484 LINE",
"156 1484 LINE",
"156 1312 LINE"
);
}
);
width = 682;
}
);
note = dotaccent;
unicode = 02D9;
},
{
glyphname = ring;
lastChange = "2019-11-18 14:23:36 +0000";
layers = (
{
layerId = "489D640B-457E-495A-B1F8-D23C81511CE7";
paths = (
{
closed = 1;
nodes = (
"535 1510 OFFCURVE",
"392 1651 OFFCURVE",
"293 1651 QCURVE SMOOTH",
"193 1651 OFFCURVE",
"51 1511 OFFCURVE",
"51 1410 QCURVE SMOOTH",
"51 1310 OFFCURVE",
"193 1168 OFFCURVE",
"293 1168 QCURVE SMOOTH",
"393 1168 OFFCURVE",
"535 1310 OFFCURVE",
"535 1410 QCURVE SMOOTH"
);
},
{
closed = 1;
nodes = (
"427 1354 OFFCURVE",
"351 1273 OFFCURVE",
"293 1273 QCURVE SMOOTH",
"234 1273 OFFCURVE",
"158 1355 OFFCURVE",
"158 1410 QCURVE SMOOTH",
"158 1466 OFFCURVE",
"236 1544 OFFCURVE",
"293 1544 QCURVE SMOOTH",
"349 1544 OFFCURVE",
"427 1466 OFFCURVE",
"427 1410 QCURVE SMOOTH"
);
}
);
width = 682;
}
);
note = ring;
unicode = 02DA;
},
{
glyphname = cedilla;
lastChange = "2019-11-18 14:23:36 +0000";
layers = (
{
layerId = "489D640B-457E-495A-B1F8-D23C81511CE7";
paths = (
{
closed = 1;
nodes = (
"483 -184 OFFCURVE",
"389 -103 OFFCURVE",
"295 -100 QCURVE",
"334 0 LINE",
"227 0 LINE",
"162 -182 LINE",
"176 -180 OFFCURVE",
"219 -180 QCURVE SMOOTH",
"352 -180 OFFCURVE",
"352 -257 QCURVE SMOOTH",
"352 -338 OFFCURVE",
"205 -338 QCURVE SMOOTH",
"168 -338 OFFCURVE",
"119 -332 QCURVE",
"119 -430 LINE",
"152 -434 OFFCURVE",
"209 -434 QCURVE SMOOTH",
"483 -434 OFFCURVE",
"483 -253 QCURVE SMOOTH"
);
}
);
width = 682;
}
);
note = cedilla;
unicode = 00B8;
},
{
glyphname = hungarumlaut;
lastChange = "2019-11-18 14:23:36 +0000";
layers = (
{
layerId = "489D640B-457E-495A-B1F8-D23C81511CE7";
paths = (
{
closed = 1;
nodes = (
"116 1201 LINE",
"446 1479 LINE",
"446 1508 LINE",
"239 1508 LINE",
"22 1221 LINE",
"22 1201 LINE"
);
},
{
closed = 1;
nodes = (
"463 1201 LINE",
"793 1479 LINE",
"793 1508 LINE",
"586 1508 LINE",
"369 1221 LINE",
"369 1201 LINE"
);
}
);
width = 682;
}
);
note = hungarumlaut;
unicode = 02DD;
},
{
glyphname = ogonek;
lastChange = "2019-11-18 14:23:36 +0000";
layers = (
{
layerId = "489D640B-457E-495A-B1F8-D23C81511CE7";
paths = (
{
closed = 1;
nodes = (
"430 -293 LINE",
"369 -317 OFFCURVE",
"315 -317 QCURVE SMOOTH",
"270 -317 OFFCURVE",
"221 -269 OFFCURVE",
"221 -227 QCURVE SMOOTH",
"221 -188 OFFCURVE",
"248 -118 OFFCURVE",
"291 -59 OFFCURVE",
"343 -14 OFFCURVE",
"368 0 QCURVE",
"235 0 LINE",
"167 -38 OFFCURVE",
"80 -170 OFFCURVE",
"80 -240 QCURVE SMOOTH",
"80 -325 OFFCURVE",
"186 -427 OFFCURVE",
"291 -427 QCURVE SMOOTH",
"367 -427 OFFCURVE",
"430 -400 QCURVE"
);
}
);
width = 682;
}
);
note = ogonek;
unicode = 02DB;
},
{
glyphname = caron;
lastChange = "2019-11-18 14:23:36 +0000";
layers = (
{
layerId = "489D640B-457E-495A-B1F8-D23C81511CE7";
paths = (
{
closed = 1;
nodes = (
"662 1471 LINE",
"662 1491 LINE",
"557 1491 LINE",
"338 1322 LINE",
"336 1322 LINE",
"104 1491 LINE",
"0 1491 LINE",
"0 1471 LINE",
"234 1201 LINE",
"438 1201 LINE"
);
}
);
width = 682;
}
);
note = caron;
unicode = 02C7;
},
{
glyphname = Lslash;
lastChange = "2019-11-18 14:23:36 +0000";
layers = (
{
layerId = "489D640B-457E-495A-B1F8-D23C81511CE7";
paths = (
{
closed = 1;
nodes = (
"616 954 LINE",
"359 806 LINE",
"359 1409 LINE",
"168 1409 LINE",
"168 696 LINE",
"20 611 LINE",
"20 453 LINE",
"168 538 LINE",
"168 0 LINE",
"1071 0 LINE",
"1071 156 LINE",
"359 156 LINE",
"359 648 LINE",
"616 797 LINE"
);
}
);
width = 1139;
}
);
note = Lslash;
unicode = 0141;
},
{
glyphname = lslash;
lastChange = "2019-11-18 14:23:36 +0000";
layers = (
{
layerId = "489D640B-457E-495A-B1F8-D23C81511CE7";
paths = (
{
closed = 1;
nodes = (
"318 0 LINE",
"318 646 LINE",
"442 717 LINE",
"442 876 LINE",
"318 804 LINE",
"318 1484 LINE",
"138 1484 LINE",
"138 700 LINE",
"16 632 LINE",
"16 474 LINE",
"138 542 LINE",
"138 0 LINE"
);
}
);
width = 455;
}
);
note = lslash;
unicode = 0142;
},
{
glyphname = brokenbar;
lastChange = "2019-11-18 14:23:36 +0000";
layers = (
{
layerId = "489D640B-457E-495A-B1F8-D23C81511CE7";
paths = (
{
closed = 1;
nodes = (
"349 706 LINE",
"349 1484 LINE",
"183 1484 LINE",
"183 706 LINE"
);
},
{
closed = 1;
nodes = (
"349 -434 LINE",
"349 345 LINE",
"183 345 LINE",
"183 -434 LINE"
);
}
);
width = 532;
}
);
note = brokenbar;
unicode = 00A6;
},
{
glyphname = Eth;
lastChange = "2019-11-18 14:23:36 +0000";
layers = (
{
layerId = "489D640B-457E-495A-B1F8-D23C81511CE7";
paths = (
{
closed = 1;
nodes = (
"14 647 LINE",
"168 647 LINE",
"168 0 LINE",
"695 0 LINE SMOOTH",
"899 0 OFFCURVE",
"1211 174 OFFCURVE",
"1381 501 OFFCURVE",
"1381 719 QCURVE SMOOTH",
"1381 1050 OFFCURVE",
"992 1409 OFFCURVE",
"634 1409 QCURVE SMOOTH",
"168 1409 LINE",
"168 801 LINE",
"14 801 LINE"
);
},
{
closed = 1;
nodes = (
"1189 545 OFFCURVE",
"1063 289 OFFCURVE",
"828 153 OFFCURVE",
"673 153 QCURVE SMOOTH",
"359 153 LINE",
"359 647 LINE",
"765 647 LINE",
"765 801 LINE",
"359 801 LINE",
"359 1256 LINE",
"630 1256 LINE SMOOTH",
"902 1256 OFFCURVE",
"1189 981 OFFCURVE",
"1189 719 QCURVE SMOOTH"
);
}
);
width = 1479;
}
);
note = Eth;
unicode = 00D0;
},
{
glyphname = eth;
lastChange = "2019-11-18 14:23:36 +0000";
layers = (
{
layerId = "489D640B-457E-495A-B1F8-D23C81511CE7";
paths = (
{
closed = 1;
nodes = (
"814 -20 OFFCURVE",
"1063 249 OFFCURVE",
"1063 510 QCURVE SMOOTH",
"1063 516 LINE SMOOTH",
"1063 748 OFFCURVE",
"889 1154 OFFCURVE",
"718 1310 QCURVE",
"929 1402 LINE",
"930 1514 LINE",
"624 1382 LINE",
"534 1448 OFFCURVE",
"454 1484 QCURVE",
"245 1484 LINE",
"378 1413 OFFCURVE",
"487 1326 QCURVE",
"269 1232 LINE",
"269 1118 LINE",
"570 1251 LINE",
"695 1137 OFFCURVE",
"804 920 QCURVE",
"710 979 OFFCURVE",
"573 979 QCURVE SMOOTH",
"334 979 OFFCURVE",
"86 725 OFFCURVE",
"86 481 QCURVE SMOOTH",
"86 238 OFFCURVE",
"334 -20 OFFCURVE",
"566 -20 QCURVE SMOOTH"
);
},
{
closed = 1;
nodes = (
"874 288 OFFCURVE",
"725 113 OFFCURVE",
"564 113 QCURVE SMOOTH",
"419 113 OFFCURVE",
"275 291 OFFCURVE",
"275 481 QCURVE SMOOTH",
"275 672 OFFCURVE",
"420 846 OFFCURVE",
"577 846 QCURVE SMOOTH",
"733 846 OFFCURVE",
"874 673 OFFCURVE",
"874 481 QCURVE SMOOTH"
);
}
);
width = 1139;
}
);
note = eth;
unicode = 00F0;
},
{
glyphname = Thorn;
lastChange = "2019-11-18 14:23:36 +0000";
layers = (
{
layerId = "489D640B-457E-495A-B1F8-D23C81511CE7";
paths = (
{
closed = 1;
nodes = (
"1258 935 OFFCURVE",
"1000 1157 OFFCURVE",
"761 1157 QCURVE SMOOTH",
"359 1157 LINE",
"359 1409 LINE",
"168 1409 LINE",
"168 0 LINE",
"359 0 LINE",
"359 297 LINE",
"773 297 LINE SMOOTH",
"923 297 OFFCURVE",
"1142 408 OFFCURVE",
"1258 607 OFFCURVE",
"1258 735 QCURVE SMOOTH"
);
},
{
closed = 1;
nodes = (
"1066 593 OFFCURVE",
"899 438 OFFCURVE",
"746 438 QCURVE SMOOTH",
"359 438 LINE",
"359 1014 LINE",
"738 1014 LINE SMOOTH",
"902 1014 OFFCURVE",
"1066 865 OFFCURVE",
"1066 731 QCURVE SMOOTH"
);
}
);
width = 1366;
}
);
note = Thorn;
unicode = 00DE;
},
{
glyphname = thorn;
lastChange = "2019-11-18 14:23:36 +0000";
layers = (
{
layerId = "489D640B-457E-495A-B1F8-D23C81511CE7";
paths = (
{
closed = 1;
nodes = (
"138 -425 LINE",
"318 -425 LINE",
"318 -2 LINE SMOOTH",
"318 160 OFFCURVE",
"314 168 QCURVE",
"319 168 LINE",
"405 -20 OFFCURVE",
"655 -20 QCURVE SMOOTH",
"1053 -20 OFFCURVE",
"1053 546 QCURVE SMOOTH",
"1053 833 OFFCURVE",
"855 1101 OFFCURVE",
"655 1101 QCURVE SMOOTH",
"526 1101 OFFCURVE",
"368 1008 OFFCURVE",
"320 908 QCURVE",
"314 908 LINE",
"318 996 OFFCURVE",
"318 1061 QCURVE SMOOTH",
"318 1484 LINE",
"138 1484 LINE"
);
},
{
closed = 1;
nodes = (
"864 310 OFFCURVE",
"741 113 OFFCURVE",
"607 113 QCURVE SMOOTH",
"454 113 OFFCURVE",
"318 315 OFFCURVE",
"318 528 QCURVE SMOOTH",
"318 681 OFFCURVE",
"381 872 OFFCURVE",
"502 962 OFFCURVE",
"609 962 QCURVE SMOOTH",
"742 962 OFFCURVE",
"864 768 OFFCURVE",
"864 542 QCURVE SMOOTH"
);
}
);
width = 1139;
}
);
note = thorn;
unicode = 00FE;
},
{
glyphname = minus;
lastChange = "2019-11-18 14:23:36 +0000";
layers = (
{
layerId = "489D640B-457E-495A-B1F8-D23C81511CE7";
paths = (
{
closed = 1;
nodes = (
"1096 608 LINE",
"1096 754 LINE",
"101 754 LINE",
"101 608 LINE"
);
}
);
width = 1196;
}
);
note = minus;
unicode = 2212;
},
{
glyphname = multiply;
lastChange = "2019-11-18 14:23:36 +0000";
layers = (
{
layerId = "489D640B-457E-495A-B1F8-D23C81511CE7";
paths = (
{
closed = 1;
nodes = (
"244 225 LINE",
"600 580 LINE",
"953 227 LINE",
"1055 332 LINE",
"703 684 LINE",
"1053 1032 LINE",
"948 1137 LINE",
"598 786 LINE",
"248 1139 LINE",
"144 1036 LINE",
"496 684 LINE",
"142 330 LINE"
);
}
);
width = 1196;
}
);
note = multiply;
unicode = 00D7;
},
{
glyphname = onesuperior;
lastChange = "2019-11-18 14:23:36 +0000";
layers = (
{
layerId = "489D640B-457E-495A-B1F8-D23C81511CE7";
paths = (
{
closed = 1;
nodes = (
"637 563 LINE",
"637 670 LINE",
"422 670 LINE",
"422 1409 LINE",
"299 1409 LINE",
"89 1272 LINE",
"89 1152 LINE",
"291 1290 LINE",
"291 670 LINE",
"80 670 LINE",
"80 563 LINE"
);
}
);
width = 682;
}
);
note = onesuperior;
unicode = 00B9;
},
{
glyphname = twosuperior;
lastChange = "2019-11-18 14:23:36 +0000";
layers = (
{
layerId = "489D640B-457E-495A-B1F8-D23C81511CE7";
paths = (
{
closed = 1;
nodes = (
"643 563 LINE",
"643 676 LINE",
"200 676 LINE",
"220 721 OFFCURVE",
"320 813 OFFCURVE",
"442 903 QCURVE SMOOTH",
"630 1041 OFFCURVE",
"630 1188 QCURVE SMOOTH",
"630 1298 OFFCURVE",
"481 1421 OFFCURVE",
"354 1421 QCURVE SMOOTH",
"225 1421 OFFCURVE",
"64 1289 OFFCURVE",
"51 1182 QCURVE",
"184 1174 LINE",
"192 1242 OFFCURVE",
"280 1315 OFFCURVE",
"348 1315 QCURVE SMOOTH",
"422 1315 OFFCURVE",
"493 1240 OFFCURVE",
"493 1178 QCURVE SMOOTH",
"493 1120 OFFCURVE",
"405 1008 OFFCURVE",
"308 940 QCURVE SMOOTH",
"201 866 OFFCURVE",
"72 735 OFFCURVE",
"41 666 QCURVE",
"43 563 LINE"
);
}
);
width = 682;
}
);
note = twosuperior;
unicode = 00B2;
},
{
glyphname = threesuperior;
lastChange = "2019-11-18 14:23:36 +0000";
layers = (
{
layerId = "489D640B-457E-495A-B1F8-D23C81511CE7";
paths = (
{
closed = 1;
nodes = (
"642 883 OFFCURVE",
"536 988 OFFCURVE",
"445 997 QCURVE",
"445 999 LINE",
"535 1019 OFFCURVE",
"621 1129 OFFCURVE",
"621 1204 QCURVE SMOOTH",
"621 1302 OFFCURVE",
"473 1421 OFFCURVE",
"343 1421 QCURVE SMOOTH",
"216 1421 OFFCURVE",
"59 1301 OFFCURVE",
"46 1192 QCURVE",
"181 1180 LINE",
"187 1245 OFFCURVE",
"271 1315 OFFCURVE",
"339 1315 QCURVE SMOOTH",
"410 1315 OFFCURVE",
"484 1246 OFFCURVE",
"484 1186 QCURVE SMOOTH",
"484 1121 OFFCURVE",
"392 1049 OFFCURVE",
"312 1049 QCURVE SMOOTH",
"255 1049 LINE",
"255 940 LINE",
"316 940 LINE SMOOTH",
"505 940 OFFCURVE",
"505 803 QCURVE SMOOTH",
"505 655 OFFCURVE",
"345 655 QCURVE SMOOTH",
"181 655 OFFCURVE",
"163 791 QCURVE",
"27 778 LINE",
"59 551 OFFCURVE",
"345 551 QCURVE SMOOTH",
"487 551 OFFCURVE",
"642 679 OFFCURVE",
"642 795 QCURVE SMOOTH"
);
}
);
width = 682;
}
);
note = threesuperior;
unicode = 00B3;
},
{
glyphname = franc;
lastChange = "2019-11-18 14:23:36 +0000";
layers = (
{
layerId = "489D640B-457E-495A-B1F8-D23C81511CE7";
paths = (
{
closed = 1;
nodes = (
"1070 1254 LINE",
"1070 1409 LINE",
"179 1409 LINE",
"179 408 LINE",
"4 408 LINE",
"4 279 LINE",
"179 279 LINE",
"179 0 LINE",
"359 0 LINE",
"359 279 LINE",
"761 279 LINE",
"761 408 LINE",
"359 408 LINE",
"359 621 LINE",
"1046 621 LINE",
"1046 778 LINE",
"359 778 LINE",
"359 1254 LINE"
);
}
);
width = 1139;
}
);
note = franc;
unicode = 20A3;
},
{
glyphname = dcroat;
lastChange = "2019-11-18 14:23:36 +0000";
layers = (
{
layerId = "489D640B-457E-495A-B1F8-D23C81511CE7";
paths = (
{
closed = 1;
nodes = (
"825 174 LINE",
"825 132 OFFCURVE",
"832 16 OFFCURVE",
"835 0 QCURVE",
"1007 0 LINE",
"1001 54 OFFCURVE",
"1001 223 QCURVE SMOOTH",
"1001 1206 LINE",
"1133 1206 LINE",
"1133 1337 LINE",
"1001 1337 LINE",
"1001 1484 LINE",
"821 1484 LINE",
"821 1337 LINE",
"521 1337 LINE",
"521 1206 LINE",
"821 1206 LINE",
"821 1035 LINE",
"823 914 LINE",
"821 914 LINE",
"771 1012 OFFCURVE",
"607 1102 OFFCURVE",
"484 1102 QCURVE SMOOTH",
"86 1102 OFFCURVE",
"86 536 QCURVE SMOOTH",
"86 256 OFFCURVE",
"279 -20 OFFCURVE",
"484 -20 QCURVE SMOOTH",
"606 -20 OFFCURVE",
"771 70 OFFCURVE",
"821 174 QCURVE"
);
},
{
closed = 1;
nodes = (
"275 768 OFFCURVE",
"396 969 OFFCURVE",
"532 969 QCURVE SMOOTH",
"683 969 OFFCURVE",
"821 769 OFFCURVE",
"821 554 QCURVE SMOOTH",
"821 331 OFFCURVE",
"683 119 OFFCURVE",
"530 119 QCURVE SMOOTH",
"395 119 OFFCURVE",
"275 315 OFFCURVE",
"275 542 QCURVE SMOOTH"
);
}
);
width = 1139;
}
);
note = dcroat;
unicode = 0111;
},
{
glyphname = overscore;
lastChange = "2019-11-18 14:23:36 +0000";
layers = (
{
layerId = "489D640B-457E-495A-B1F8-D23C81511CE7";
paths = (
{
closed = 1;
nodes = (
"1148 1546 LINE",
"-17 1546 LINE",
"-17 1452 LINE",
"1148 1452 LINE"
);
}
);
width = 1131;
}
);
note = overscore;
unicode = 00AF;
},
{
glyphname = Gamma;
lastChange = "2019-11-18 14:23:36 +0000";
layers = (
{
layerId = "489D640B-457E-495A-B1F8-D23C81511CE7";
paths = (
{
closed = 1;
nodes = (
"168 1410 LINE",
"168 1 LINE",
"359 1 LINE",
"359 1254 LINE",
"1071 1254 LINE",
"1071 1410 LINE"
);
}
);
width = 1128;
}
);
note = Gamma;
unicode = 0393;
},
{
glyphname = Theta;
lastChange = "2019-11-18 14:23:36 +0000";
layers = (
{
layerId = "489D640B-457E-495A-B1F8-D23C81511CE7";
paths = (
{
closed = 1;
nodes = (
"1495 933 OFFCURVE",
"1328 1259 OFFCURVE",
"1012 1430 OFFCURVE",
"797 1430 QCURVE SMOOTH",
"467 1430 OFFCURVE",
"97 1049 OFFCURVE",
"97 711 QCURVE SMOOTH",
"97 489 OFFCURVE",
"263 156 OFFCURVE",
"578 -20 OFFCURVE",
"795 -20 QCURVE SMOOTH",
"1010 -20 OFFCURVE",
"1326 158 OFFCURVE",
"1495 490 OFFCURVE",
"1495 711 QCURVE SMOOTH"
);
},
{
closed = 1;
nodes = (
"1300 436 OFFCURVE",
"1039 135 OFFCURVE",
"795 135 QCURVE SMOOTH",
"558 135 OFFCURVE",
"291 446 OFFCURVE",
"291 711 QCURVE SMOOTH",
"291 978 OFFCURVE",
"555 1274 OFFCURVE",
"797 1274 QCURVE SMOOTH",
"1037 1274 OFFCURVE",
"1300 974 OFFCURVE",
"1300 711 QCURVE SMOOTH"
);
},
{
closed = 1;
nodes = (
"502 634 LINE",
"1089 634 LINE",
"1089 794 LINE",
"502 794 LINE"
);
}
);
width = 1593;
}
);
note = Theta;
unicode = 0398;
},
{
glyphname = Phi;
lastChange = "2019-11-18 14:23:36 +0000";
layers = (
{
layerId = "489D640B-457E-495A-B1F8-D23C81511CE7";
paths = (
{
closed = 1;
nodes = (
"1518 973 OFFCURVE",
"1239 1237 OFFCURVE",
"981 1237 QCURVE SMOOTH",
"910 1237 LINE",
"910 1419 LINE",
"725 1419 LINE",
"725 1237 LINE",
"653 1237 LINE SMOOTH",
"396 1237 OFFCURVE",
"117 974 OFFCURVE",
"117 736 QCURVE SMOOTH",
"117 584 OFFCURVE",
"243 347 OFFCURVE",
"481 216 OFFCURVE",
"642 216 QCURVE SMOOTH",
"725 216 LINE",
"725 -11 LINE",
"910 -11 LINE",
"910 216 LINE",
"993 216 LINE SMOOTH",
"1153 216 OFFCURVE",
"1391 346 OFFCURVE",
"1518 583 OFFCURVE",
"1518 736 QCURVE SMOOTH"
);
},
{
closed = 1;
nodes = (
"1326 545 OFFCURVE",
"1140 353 OFFCURVE",
"966 353 QCURVE SMOOTH",
"910 353 LINE",
"910 1099 LINE",
"958 1099 LINE SMOOTH",
"1326 1099 OFFCURVE",
"1326 732 QCURVE SMOOTH"
);
},
{
closed = 1;
nodes = (
"309 919 OFFCURVE",
"491 1099 OFFCURVE",
"673 1099 QCURVE SMOOTH",
"725 1099 LINE",
"725 353 LINE",
"669 353 LINE SMOOTH",
"495 353 OFFCURVE",
"309 545 OFFCURVE",
"309 732 QCURVE SMOOTH"
);
}
);
width = 1634;
}
);
note = Phi;
unicode = 03A6;
},
{
glyphname = alpha;
lastChange = "2019-11-18 14:23:36 +0000";
layers = (
{
layerId = "489D640B-457E-495A-B1F8-D23C81511CE7";
paths = (
{
closed = 1;
nodes = (
"847 237 LINE",
"852 204 OFFCURVE",
"887 61 OFFCURVE",
"911 0 QCURVE",
"1094 0 LINE",
"1047 103 OFFCURVE",
"988 411 OFFCURVE",
"983 571 QCURVE",
"991 669 OFFCURVE",
"1075 976 OFFCURVE",
"1125 1082 QCURVE",
"937 1082 LINE",
"887 966 OFFCURVE",
"864 847 QCURVE",
"862 847 LINE",
"817 968 OFFCURVE",
"638 1102 OFFCURVE",
"512 1102 QCURVE SMOOTH",
"303 1102 OFFCURVE",
"86 820 OFFCURVE",
"86 536 QCURVE SMOOTH",
"86 256 OFFCURVE",
"279 -20 OFFCURVE",
"484 -20 QCURVE SMOOTH",
"605 -20 OFFCURVE",
"780 101 OFFCURVE",
"843 237 QCURVE"
);
},
{
closed = 1;
nodes = (
"275 768 OFFCURVE",
"396 969 OFFCURVE",
"532 969 QCURVE SMOOTH",
"651 969 OFFCURVE",
"803 757 OFFCURVE",
"832 546 QCURVE",
"806 350 OFFCURVE",
"641 119 OFFCURVE",
"521 119 QCURVE SMOOTH",
"389 119 OFFCURVE",
"275 320 OFFCURVE",
"275 542 QCURVE SMOOTH"
);
}
);
width = 1184;
}
);
note = alpha;
unicode = 03B1;
},
{
glyphname = delta;
lastChange = "2019-11-18 14:23:36 +0000";
layers = (
{
layerId = "489D640B-457E-495A-B1F8-D23C81511CE7";
paths = (
{
closed = 1;
nodes = (
"864 293 OFFCURVE",
"715 113 OFFCURVE",
"571 113 QCURVE SMOOTH",
"432 113 OFFCURVE",
"275 302 OFFCURVE",
"275 471 QCURVE SMOOTH",
"275 627 OFFCURVE",
"465 865 OFFCURVE",
"644 929 QCURVE",
"728 842 OFFCURVE",
"811 711 OFFCURVE",
"864 558 OFFCURVE",
"864 471 QCURVE SMOOTH"
);
},
{
closed = 1;
nodes = (
"965 1352 LINE",
"965 1484 LINE",
"232 1484 LINE",
"232 1365 LINE",
"551 1026 LINE",
"320 946 OFFCURVE",
"86 667 OFFCURVE",
"86 473 QCURVE SMOOTH",
"86 242 OFFCURVE",
"345 -20 OFFCURVE",
"571 -20 QCURVE SMOOTH",
"795 -20 OFFCURVE",
"1053 248 OFFCURVE",
"1053 475 QCURVE SMOOTH",
"1053 578 OFFCURVE",
"995 753 OFFCURVE",
"890 912 OFFCURVE",
"769 1036 QCURVE SMOOTH",
"453 1360 LINE",
"607 1352 LINE"
);
}
);
width = 1140;
}
);
note = delta;
unicode = 03B4;
},
{
glyphname = epsilon;
lastChange = "2019-11-18 14:23:36 +0000";
layers = (
{
layerId = "489D640B-457E-495A-B1F8-D23C81511CE7";
paths = (
{
closed = 1;
nodes = (
"364 114 OFFCURVE",
"257 211 OFFCURVE",
"257 298 QCURVE SMOOTH",
"257 373 OFFCURVE",
"338 459 OFFCURVE",
"490 498 OFFCURVE",
"643 498 QCURVE",
"643 633 LINE",
"441 633 OFFCURVE",
"285 718 OFFCURVE",
"285 809 QCURVE SMOOTH",
"285 883 OFFCURVE",
"381 968 OFFCURVE",
"472 968 QCURVE SMOOTH",
"627 968 OFFCURVE",
"719 829 QCURVE",
"847 917 LINE",
"722 1102 OFFCURVE",
"471 1102 QCURVE SMOOTH",
"306 1102 OFFCURVE",
"103 943 OFFCURVE",
"103 813 QCURVE SMOOTH",
"103 714 OFFCURVE",
"228 578 OFFCURVE",
"334 566 QCURVE",
"334 564 LINE",
"219 553 OFFCURVE",
"70 405 OFFCURVE",
"70 295 QCURVE SMOOTH",
"70 146 OFFCURVE",
"263 -20 OFFCURVE",
"444 -20 QCURVE SMOOTH",
"576 -20 OFFCURVE",
"794 78 OFFCURVE",
"874 175 QCURVE",
"769 275 LINE",
"710 203 OFFCURVE",
"543 114 OFFCURVE",
"456 114 QCURVE SMOOTH"
);
}
);
width = 913;
}
);
note = epsilon;
unicode = 03B5;
},
{
glyphname = sigma;
lastChange = "2019-11-18 14:23:36 +0000";
layers = (
{
layerId = "489D640B-457E-495A-B1F8-D23C81511CE7";
paths = (
{
closed = 1;
nodes = (
"1072 610 OFFCURVE",
"1001 832 OFFCURVE",
"920 953 QCURVE",
"920 957 LINE",
"1068 951 LINE",
"1233 951 LINE",
"1233 1082 LINE",
"664 1082 LINE SMOOTH",
"386 1082 OFFCURVE",
"86 789 OFFCURVE",
"86 524 QCURVE SMOOTH",
"86 261 OFFCURVE",
"342 -20 OFFCURVE",
"582 -20 QCURVE SMOOTH",
"811 -20 OFFCURVE",
"1072 250 OFFCURVE",
"1072 491 QCURVE SMOOTH"
);
},
{
closed = 1;
nodes = (
"883 306 OFFCURVE",
"725 113 OFFCURVE",
"574 113 QCURVE SMOOTH",
"276 113 OFFCURVE",
"276 526 QCURVE SMOOTH",
"276 727 OFFCURVE",
"486 951 OFFCURVE",
"670 951 QCURVE SMOOTH",
"759 951 LINE",
"883 743 OFFCURVE",
"883 488 QCURVE SMOOTH"
);
}
);
width = 1264;
}
);
note = sigma;
unicode = 03C3;
},
{
glyphname = tau;
lastChange = "2019-11-18 14:23:36 +0000";
layers = (
{
layerId = "489D640B-457E-495A-B1F8-D23C81511CE7";
paths = (
{
closed = 1;
nodes = (
"308 951 LINE",
"308 227 LINE SMOOTH",
"308 93 OFFCURVE",
"410 -20 OFFCURVE",
"525 -20 QCURVE SMOOTH",
"591 -20 OFFCURVE",
"668 0 QCURVE",
"668 129 LINE",
"582 121 LINE",
"530 121 OFFCURVE",
"488 190 OFFCURVE",
"488 266 QCURVE SMOOTH",
"488 951 LINE",
"792 951 LINE",
"792 1082 LINE",
"212 1082 LINE SMOOTH",
"160 1082 OFFCURVE",
"53 1065 OFFCURVE",
"29 1053 QCURVE",
"29 914 LINE",
"55 929 OFFCURVE",
"215 951 OFFCURVE",
"281 951 QCURVE SMOOTH"
);
}
);
width = 809;
}
);
note = tau;
unicode = 03C4;
},
{
glyphname = phi;
lastChange = "2019-11-18 14:23:36 +0000";
layers = (
{
layerId = "489D640B-457E-495A-B1F8-D23C81511CE7";
paths = (
{
closed = 1;
nodes = (
"1242 812 OFFCURVE",
"1051 1104 OFFCURVE",
"884 1104 QCURVE SMOOTH",
"726 1104 OFFCURVE",
"572 892 OFFCURVE",
"572 699 QCURVE SMOOTH",
"572 119 LINE",
"421 127 OFFCURVE",
"274 328 OFFCURVE",
"274 541 QCURVE SMOOTH",
"274 725 OFFCURVE",
"402 943 OFFCURVE",
"526 970 QCURVE",
"505 1106 LINE",
"308 1074 OFFCURVE",
"85 776 OFFCURVE",
"85 545 QCURVE SMOOTH",
"85 279 OFFCURVE",
"330 -7 OFFCURVE",
"572 -18 QCURVE",
"572 -425 LINE",
"742 -425 LINE",
"742 -18 LINE",
"989 -4 OFFCURVE",
"1242 293 OFFCURVE",
"1242 565 QCURVE SMOOTH"
);
},
{
closed = 1;
nodes = (
"1053 344 OFFCURVE",
"904 126 OFFCURVE",
"742 119 QCURVE",
"742 702 LINE SMOOTH",
"742 971 OFFCURVE",
"886 971 QCURVE SMOOTH",
"966 971 OFFCURVE",
"1053 760 OFFCURVE",
"1053 567 QCURVE SMOOTH"
);
}
);
width = 1328;
}
);
note = phi;
unicode = 03C6;
},
{
glyphname = nsuperior;
lastChange = "2019-11-18 14:23:36 +0000";
layers = (
{
layerId = "489D640B-457E-495A-B1F8-D23C81511CE7";
paths = (
{
closed = 1;
nodes = (
"643 519 LINE",
"643 952 LINE SMOOTH",
"643 1073 OFFCURVE",
"546 1181 OFFCURVE",
"436 1181 QCURVE SMOOTH",
"362 1181 OFFCURVE",
"263 1123 OFFCURVE",
"228 1058 QCURVE",
"226 1058 LINE",
"220 1169 LINE",
"101 1169 LINE",
"105 1030 LINE",
"105 519 LINE",
"233 519 LINE",
"233 883 LINE SMOOTH",
"233 977 OFFCURVE",
"318 1077 OFFCURVE",
"390 1077 QCURVE SMOOTH",
"460 1077 OFFCURVE",
"514 1007 OFFCURVE",
"514 917 QCURVE SMOOTH",
"514 519 LINE"
);
}
);
width = 747;
}
);
note = nsuperior;
unicode = 207F;
},
{
glyphname = peseta;
lastChange = "2019-11-18 14:23:36 +0000";
layers = (
{
layerId = "489D640B-457E-495A-B1F8-D23C81511CE7";
paths = (
{
closed = 1;
nodes = (
"954 1187 OFFCURVE",
"694 1409 OFFCURVE",
"457 1409 QCURVE SMOOTH",
"158 1409 LINE",
"158 0 LINE",
"339 0 LINE",
"339 549 LINE",
"469 549 LINE SMOOTH",
"693 549 OFFCURVE",
"954 785 OFFCURVE",
"954 985 QCURVE SMOOTH"
);
},
{
closed = 1;
nodes = (
"772 700 OFFCURVE",
"452 700 QCURVE SMOOTH",
"339 700 LINE",
"339 1256 LINE",
"444 1256 LINE SMOOTH",
"772 1256 OFFCURVE",
"772 983 QCURVE SMOOTH"
);
},
{
closed = 1;
nodes = (
"1407 131 LINE",
"1346 117 OFFCURVE",
"1318 117 QCURVE SMOOTH",
"1263 117 OFFCURVE",
"1222 190 OFFCURVE",
"1222 268 QCURVE SMOOTH",
"1222 682 LINE",
"1379 682 LINE",
"1379 813 LINE",
"1222 813 LINE",
"1222 1055 LINE",
"1112 1055 LINE",
"1059 813 LINE",
"948 813 LINE",
"948 682 LINE",
"1052 682 LINE",
"1052 229 LINE SMOOTH",
"1052 107 OFFCURVE",
"1145 -16 OFFCURVE",
"1250 -16 QCURVE SMOOTH",
"1331 -16 OFFCURVE",
"1407 8 QCURVE"
);
},
{
closed = 1;
nodes = (
"2151 300 OFFCURVE",
"2091 393 OFFCURVE",
"1983 453 OFFCURVE",
"1869 479 QCURVE SMOOTH",
"1739 508 OFFCURVE",
"1652 563 OFFCURVE",
"1652 601 QCURVE SMOOTH",
"1652 686 OFFCURVE",
"1807 686 QCURVE SMOOTH",
"1877 686 OFFCURVE",
"1963 634 OFFCURVE",
"1973 586 QCURVE",
"2134 603 LINE",
"2112 719 OFFCURVE",
"1947 824 OFFCURVE",
"1806 824 QCURVE SMOOTH",
"1645 824 OFFCURVE",
"1477 705 OFFCURVE",
"1477 593 QCURVE SMOOTH",
"1477 531 OFFCURVE",
"1533 444 OFFCURVE",
"1637 385 OFFCURVE",
"1746 358 QCURVE SMOOTH",
"1874 326 OFFCURVE",
"1945 295 OFFCURVE",
"1981 253 OFFCURVE",
"1981 222 QCURVE SMOOTH",
"1981 117 OFFCURVE",
"1797 117 QCURVE SMOOTH",
"1709 117 OFFCURVE",
"1610 175 OFFCURVE",
"1593 236 QCURVE",
"1434 210 LINE",
"1462 90 OFFCURVE",
"1637 -20 OFFCURVE",
"1798 -20 QCURVE SMOOTH",
"1968 -20 OFFCURVE",
"2151 109 OFFCURVE",
"2151 229 QCURVE SMOOTH"
);
}
);
width = 2240;
}
);
note = peseta;
unicode = 20A7;
},
{
glyphname = arrowleft;
lastChange = "2019-11-18 14:23:36 +0000";
layers = (
{
layerId = "489D640B-457E-495A-B1F8-D23C81511CE7";
paths = (
{
closed = 1;
nodes = (
"1630 497 LINE",
"1630 583 LINE",
"641 583 LINE",
"698 650 OFFCURVE",
"760 780 QCURVE",
"688 780 LINE",
"561 631 OFFCURVE",
"418 558 QCURVE",
"418 522 LINE",
"561 449 OFFCURVE",
"688 300 QCURVE",
"760 300 LINE",
"698 430 OFFCURVE",
"641 497 QCURVE"
);
}
);
width = 2048;
}
);
note = arrowleft;
unicode = 2190;
},
{
glyphname = arrowup;
lastChange = "2019-11-18 14:23:36 +0000";
layers = (
{
layerId = "489D640B-457E-495A-B1F8-D23C81511CE7";
paths = (
{
closed = 1;
nodes = (
"469 -61 LINE",
"555 -61 LINE",
"555 928 LINE",
"622 871 OFFCURVE",
"752 809 QCURVE",
"752 881 LINE",
"603 1008 OFFCURVE",
"530 1151 QCURVE",
"494 1151 LINE",
"421 1008 OFFCURVE",
"272 881 QCURVE",
"272 809 LINE",
"402 871 OFFCURVE",
"469 928 QCURVE"
);
}
);
width = 1024;
}
);
note = arrowup;
unicode = 2191;
},
{
glyphname = arrowright;
lastChange = "2019-11-18 14:23:36 +0000";
layers = (
{
layerId = "489D640B-457E-495A-B1F8-D23C81511CE7";
paths = (
{
closed = 1;
nodes = (
"418 583 LINE",
"418 497 LINE",
"1407 497 LINE",
"1350 430 OFFCURVE",
"1288 300 QCURVE",
"1360 300 LINE",
"1487 449 OFFCURVE",
"1630 522 QCURVE",
"1630 558 LINE",
"1487 631 OFFCURVE",
"1360 780 QCURVE",
"1288 780 LINE",
"1350 650 OFFCURVE",
"1407 583 QCURVE"
);
}
);
width = 2048;
}
);
note = arrowright;
unicode = 2192;
},
{
glyphname = arrowdown;
lastChange = "2019-11-18 14:23:36 +0000";
layers = (
{
layerId = "489D640B-457E-495A-B1F8-D23C81511CE7";
paths = (
{
closed = 1;
nodes = (
"555 1151 LINE",
"469 1151 LINE",
"469 162 LINE",
"402 219 OFFCURVE",
"272 281 QCURVE",
"272 209 LINE",
"421 82 OFFCURVE",
"494 -61 QCURVE",
"530 -61 LINE",
"603 82 OFFCURVE",
"752 209 QCURVE",
"752 281 LINE",
"622 219 OFFCURVE",
"555 162 QCURVE"
);
}
);
width = 1024;
}
);
note = arrowdown;
unicode = 2193;
},
{
glyphname = arrowboth;
lastChange = "2019-11-18 14:23:36 +0000";
layers = (
{
layerId = "489D640B-457E-495A-B1F8-D23C81511CE7";
paths = (
{
closed = 1;
nodes = (
"1407 497 LINE",
"1350 430 OFFCURVE",
"1288 300 QCURVE",
"1360 300 LINE",
"1487 449 OFFCURVE",
"1630 522 QCURVE",
"1630 558 LINE",
"1487 631 OFFCURVE",
"1360 780 QCURVE",
"1288 780 LINE",
"1350 650 OFFCURVE",
"1407 583 QCURVE",
"641 583 LINE",
"698 650 OFFCURVE",
"760 780 QCURVE",
"688 780 LINE",
"561 631 OFFCURVE",
"418 558 QCURVE",
"418 522 LINE",
"561 449 OFFCURVE",
"688 300 QCURVE",
"760 300 LINE",
"698 430 OFFCURVE",
"641 497 QCURVE"
);
}
);
width = 2048;
}
);
note = arrowboth;
unicode = 2194;
},
{
glyphname = arrowupdn;
lastChange = "2019-11-18 14:23:36 +0000";
layers = (
{
layerId = "489D640B-457E-495A-B1F8-D23C81511CE7";
paths = (
{
closed = 1;
nodes = (
"469 162 LINE",
"402 219 OFFCURVE",
"272 281 QCURVE",
"272 209 LINE",
"421 82 OFFCURVE",
"494 -61 QCURVE",
"530 -61 LINE",
"603 82 OFFCURVE",
"752 209 QCURVE",
"752 281 LINE",
"622 219 OFFCURVE",
"555 162 QCURVE",
"555 928 LINE",
"622 871 OFFCURVE",
"752 809 QCURVE",
"752 881 LINE",
"603 1008 OFFCURVE",
"530 1151 QCURVE",
"494 1151 LINE",
"421 1008 OFFCURVE",
"272 881 QCURVE",
"272 809 LINE",
"402 871 OFFCURVE",
"469 928 QCURVE"
);
}
);
width = 1024;
}
);
note = arrowupdn;
unicode = 2195;
},
{
glyphname = arrowupdnbse;
lastChange = "2019-11-18 14:23:36 +0000";
layers = (
{
layerId = "489D640B-457E-495A-B1F8-D23C81511CE7";
paths = (
{
closed = 1;
nodes = (
"272 -184 LINE",
"752 -184 LINE",
"752 -104 LINE",
"272 -104 LINE"
);
},
{
closed = 1;
nodes = (
"469 162 LINE",
"402 219 OFFCURVE",
"272 281 QCURVE",
"272 209 LINE",
"421 82 OFFCURVE",
"494 -61 QCURVE",
"530 -61 LINE",
"603 82 OFFCURVE",
"752 209 QCURVE",
"752 281 LINE",
"622 219 OFFCURVE",
"555 162 QCURVE",
"555 928 LINE",
"622 871 OFFCURVE",
"752 809 QCURVE",
"752 881 LINE",
"603 1008 OFFCURVE",
"530 1151 QCURVE",
"494 1151 LINE",
"421 1008 OFFCURVE",
"272 881 QCURVE",
"272 809 LINE",
"402 871 OFFCURVE",
"469 928 QCURVE"
);
}
);
width = 1024;
}
);
note = arrowupdnbse;
unicode = 21A8;
},
{
glyphname = orthogonal;
lastChange = "2019-11-18 14:23:36 +0000";
layers = (
{
layerId = "489D640B-457E-495A-B1F8-D23C81511CE7";
paths = (
{
closed = 1;
nodes = (
"408 0 LINE",
"1632 0 LINE",
"1632 94 LINE",
"502 94 LINE",
"502 1223 LINE",
"408 1223 LINE"
);
}
);
width = 2005;
}
);
note = orthogonal;
unicode = 221F;
},
{
glyphname = intersection;
lastChange = "2019-11-18 14:23:36 +0000";
layers = (
{
layerId = "489D640B-457E-495A-B1F8-D23C81511CE7";
paths = (
{
closed = 1;
nodes = (
"381 -2 LINE",
"381 510 LINE SMOOTH",
"381 704 OFFCURVE",
"573 930 OFFCURVE",
"735 930 QCURVE SMOOTH",
"895 930 OFFCURVE",
"1091 702 OFFCURVE",
"1091 512 QCURVE SMOOTH",
"1091 -2 LINE",
"1194 -2 LINE",
"1194 510 LINE SMOOTH",
"1194 658 OFFCURVE",
"1075 900 OFFCURVE",
"864 1032 OFFCURVE",
"733 1032 QCURVE SMOOTH",
"603 1032 OFFCURVE",
"394 899 OFFCURVE",
"278 660 OFFCURVE",
"278 510 QCURVE SMOOTH",
"278 -2 LINE"
);
}
);
width = 1472;
}
);
note = intersection;
unicode = 2229;
},
{
glyphname = equivalence;
lastChange = "2019-11-18 14:23:36 +0000";
layers = (
{
layerId = "489D640B-457E-495A-B1F8-D23C81511CE7";
paths = (
{
closed = 1;
nodes = (
"1095 956 LINE",
"1095 1104 LINE",
"100 1104 LINE",
"100 956 LINE"
);
},
{
closed = 1;
nodes = (
"1095 244 LINE",
"1095 392 LINE",
"100 392 LINE",
"100 244 LINE"
);
},
{
closed = 1;
nodes = (
"1095 600 LINE",
"1095 748 LINE",
"100 748 LINE",
"100 600 LINE"
);
}
);
width = 1195;
}
);
note = equivalence;
unicode = 2261;
},
{
glyphname = house;
lastChange = "2019-11-18 14:23:36 +0000";
layers = (
{
layerId = "489D640B-457E-495A-B1F8-D23C81511CE7";
paths = (
{
closed = 1;
nodes = (
"1079 0 LINE",
"1079 635 LINE",
"618 1153 LINE",
"157 635 LINE",
"157 0 LINE"
);
},
{
closed = 1;
nodes = (
"237 600 LINE",
"618 1026 LINE",
"999 600 LINE",
"999 82 LINE",
"237 82 LINE"
);
}
);
width = 1237;
}
);
note = house;
unicode = 2302;
},
{
glyphname = revlogicalnot;
lastChange = "2019-11-18 14:23:36 +0000";
layers = (
{
layerId = "489D640B-457E-495A-B1F8-D23C81511CE7";
paths = (
{
closed = 1;
nodes = (
"245 180 LINE",
"245 608 LINE",
"1095 608 LINE",
"1095 754 LINE",
"100 754 LINE",
"100 180 LINE"
);
}
);
width = 1196;
}
);
note = revlogicalnot;
unicode = 2310;
},
{
glyphname = integraltp;
lastChange = "2019-11-18 14:23:36 +0000";
layers = (
{
layerId = "489D640B-457E-495A-B1F8-D23C81511CE7";
paths = (
{
closed = 1;
nodes = (
"693 1423 LINE SMOOTH",
"693 1528 OFFCURVE",
"699 1563 QCURVE SMOOTH",
"708 1602 OFFCURVE",
"744 1602 QCURVE SMOOTH",
"760 1602 OFFCURVE",
"793 1563 QCURVE SMOOTH",
"831 1521 OFFCURVE",
"847 1513 QCURVE",
"860 1503 OFFCURVE",
"890 1503 QCURVE SMOOTH",
"927 1503 OFFCURVE",
"978 1555 OFFCURVE",
"978 1595 QCURVE SMOOTH",
"978 1643 OFFCURVE",
"903 1706 OFFCURVE",
"840 1706 QCURVE SMOOTH",
"714 1706 OFFCURVE",
"546 1460 OFFCURVE",
"546 1264 QCURVE SMOOTH",
"546 -614 LINE",
"693 -614 LINE"
);
}
);
width = 1237;
}
);
note = integraltp;
unicode = 2320;
},
{
glyphname = integralbt;
lastChange = "2019-11-18 14:23:36 +0000";
layers = (
{
layerId = "489D640B-457E-495A-B1F8-D23C81511CE7";
paths = (
{
closed = 1;
nodes = (
"546 -334 LINE SMOOTH",
"546 -461 OFFCURVE",
"523 -512 OFFCURVE",
"494 -512 QCURVE SMOOTH",
"478 -512 OFFCURVE",
"447 -475 QCURVE SMOOTH",
"416 -434 OFFCURVE",
"406 -430 QCURVE",
"380 -414 OFFCURVE",
"347 -414 QCURVE SMOOTH",
"311 -414 OFFCURVE",
"261 -467 OFFCURVE",
"261 -506 QCURVE SMOOTH",
"261 -553 OFFCURVE",
"339 -614 OFFCURVE",
"398 -614 QCURVE SMOOTH",
"530 -614 OFFCURVE",
"693 -369 OFFCURVE",
"693 -174 QCURVE SMOOTH",
"693 1706 LINE",
"546 1706 LINE"
);
}
);
width = 1237;
}
);
note = integralbt;
unicode = 2321;
},
{
glyphname = uni2500;
lastChange = "2019-11-18 14:23:36 +0000";
layers = (
{
layerId = "489D640B-457E-495A-B1F8-D23C81511CE7";
paths = (
{
closed = 1;
nodes = (
"1461 549 LINE",
"1461 694 LINE",
"-10 694 LINE",
"-10 549 LINE"
);
}
);
width = 1451;
}
);
note = uni2500;
unicode = 2500;
},
{
glyphname = uni2502;
lastChange = "2019-11-18 14:23:36 +0000";
layers = (
{
layerId = "489D640B-457E-495A-B1F8-D23C81511CE7";
paths = (
{
closed = 1;
nodes = (
"472 -621 LINE",
"617 -621 LINE",
"617 1864 LINE",
"472 1864 LINE"
);
}
);
width = 1280;
}
);
note = uni2502;
unicode = 2502;
},
{
glyphname = uni250C;
lastChange = "2019-11-18 14:23:36 +0000";
layers = (
{
layerId = "489D640B-457E-495A-B1F8-D23C81511CE7";
paths = (
{
closed = 1;
nodes = (
"653 -621 LINE",
"798 -621 LINE",
"798 549 LINE",
"1461 549 LINE",
"1461 694 LINE",
"653 694 LINE"
);
}
);
width = 1451;
}
);
note = uni250C;
unicode = 250C;
},
{
glyphname = uni2510;
lastChange = "2019-11-18 14:23:36 +0000";
layers = (
{
layerId = "489D640B-457E-495A-B1F8-D23C81511CE7";
paths = (
{
closed = 1;
nodes = (
"653 549 LINE",
"653 -621 LINE",
"798 -621 LINE",
"798 694 LINE",
"-10 694 LINE",
"-10 549 LINE"
);
}
);
width = 1451;
}
);
note = uni2510;
unicode = 2510;
},
{
glyphname = uni2514;
lastChange = "2019-11-18 14:23:36 +0000";
layers = (
{
layerId = "489D640B-457E-495A-B1F8-D23C81511CE7";
paths = (
{
closed = 1;
nodes = (
"653 549 LINE",
"1461 549 LINE",
"1461 694 LINE",
"798 694 LINE",
"798 1864 LINE",
"653 1864 LINE"
);
}
);
width = 1451;
}
);
note = uni2514;
unicode = 2514;
},
{
glyphname = uni2518;
lastChange = "2019-11-18 14:23:36 +0000";
layers = (
{
layerId = "489D640B-457E-495A-B1F8-D23C81511CE7";
paths = (
{
closed = 1;
nodes = (
"798 549 LINE",
"798 1864 LINE",
"653 1864 LINE",
"653 694 LINE",
"-10 694 LINE",
"-10 549 LINE"
);
}
);
width = 1451;
}
);
note = uni2518;
unicode = 2518;
},
{
glyphname = uni251C;
lastChange = "2019-11-18 14:23:36 +0000";
layers = (
{
layerId = "489D640B-457E-495A-B1F8-D23C81511CE7";
paths = (
{
closed = 1;
nodes = (
"653 -621 LINE",
"798 -621 LINE",
"798 549 LINE",
"1461 549 LINE",
"1461 694 LINE",
"798 694 LINE",
"798 1864 LINE",
"653 1864 LINE"
);
}
);
width = 1451;
}
);
note = uni251C;
unicode = 251C;
},
{
glyphname = uni2524;
lastChange = "2019-11-18 14:23:36 +0000";
layers = (
{
layerId = "489D640B-457E-495A-B1F8-D23C81511CE7";
paths = (
{
closed = 1;
nodes = (
"653 549 LINE",
"653 -621 LINE",
"798 -621 LINE",
"798 1864 LINE",
"653 1864 LINE",
"653 694 LINE",
"-10 694 LINE",
"-10 549 LINE"
);
}
);
width = 1451;
}
);
note = uni2524;
unicode = 2524;
},
{
glyphname = uni252C;
lastChange = "2019-11-18 14:23:36 +0000";
layers = (
{
layerId = "489D640B-457E-495A-B1F8-D23C81511CE7";
paths = (
{
closed = 1;
nodes = (
"653 549 LINE",
"653 -621 LINE",
"798 -621 LINE",
"798 549 LINE",
"1461 549 LINE",
"1461 694 LINE",
"-10 694 LINE",
"-10 549 LINE"
);
}
);
width = 1451;
}
);
note = uni252C;
unicode = 252C;
},
{
glyphname = uni2534;
lastChange = "2019-11-18 14:23:36 +0000";
layers = (
{
layerId = "489D640B-457E-495A-B1F8-D23C81511CE7";
paths = (
{
closed = 1;
nodes = (
"1461 549 LINE",
"1461 694 LINE",
"798 694 LINE",
"798 1864 LINE",
"653 1864 LINE",
"653 694 LINE",
"-10 694 LINE",
"-10 549 LINE"
);
}
);
width = 1451;
}
);
note = uni2534;
unicode = 2534;
},
{
glyphname = uni253C;
lastChange = "2019-11-18 14:23:36 +0000";
layers = (
{
layerId = "489D640B-457E-495A-B1F8-D23C81511CE7";
paths = (
{
closed = 1;
nodes = (
"653 549 LINE",
"653 -621 LINE",
"798 -621 LINE",
"798 549 LINE",
"1461 549 LINE",
"1461 694 LINE",
"798 694 LINE",
"798 1864 LINE",
"653 1864 LINE",
"653 694 LINE",
"-10 694 LINE",
"-10 549 LINE"
);
}
);
width = 1451;
}
);
note = uni253C;
unicode = 253C;
},
{
glyphname = uni2550;
lastChange = "2019-11-18 14:23:36 +0000";
layers = (
{
layerId = "489D640B-457E-495A-B1F8-D23C81511CE7";
paths = (
{
closed = 1;
nodes = (
"1461 729 LINE",
"1461 874 LINE",
"-10 874 LINE",
"-10 729 LINE"
);
},
{
closed = 1;
nodes = (
"1461 369 LINE",
"1461 514 LINE",
"-10 514 LINE",
"-10 369 LINE"
);
}
);
width = 1451;
}
);
note = uni2550;
unicode = 2550;
},
{
glyphname = uni2551;
lastChange = "2019-11-18 14:23:36 +0000";
layers = (
{
layerId = "489D640B-457E-495A-B1F8-D23C81511CE7";
paths = (
{
closed = 1;
nodes = (
"473 -621 LINE",
"618 -621 LINE",
"618 1864 LINE",
"473 1864 LINE"
);
},
{
closed = 1;
nodes = (
"833 -621 LINE",
"978 -621 LINE",
"978 1864 LINE",
"833 1864 LINE"
);
}
);
width = 1451;
}
);
note = uni2551;
unicode = 2551;
},
{
glyphname = uni2552;
lastChange = "2019-11-18 14:23:36 +0000";
layers = (
{
layerId = "489D640B-457E-495A-B1F8-D23C81511CE7";
paths = (
{
closed = 1;
nodes = (
"653 -621 LINE",
"798 -621 LINE",
"798 369 LINE",
"1461 369 LINE",
"1461 514 LINE",
"798 514 LINE",
"798 729 LINE",
"1461 729 LINE",
"1461 874 LINE",
"653 874 LINE"
);
}
);
width = 1451;
}
);
note = uni2552;
unicode = 2552;
},
{
glyphname = uni2553;
lastChange = "2019-11-18 14:23:36 +0000";
layers = (
{
layerId = "489D640B-457E-495A-B1F8-D23C81511CE7";
paths = (
{
closed = 1;
nodes = (
"473 694 LINE",
"473 -621 LINE",
"618 -621 LINE",
"618 549 LINE",
"833 549 LINE",
"833 -621 LINE",
"978 -621 LINE",
"978 549 LINE",
"1461 549 LINE",
"1461 694 LINE"
);
}
);
width = 1451;
}
);
note = uni2553;
unicode = 2553;
},
{
glyphname = uni2554;
lastChange = "2019-11-18 14:23:36 +0000";
layers = (
{
layerId = "489D640B-457E-495A-B1F8-D23C81511CE7";
paths = (
{
closed = 1;
nodes = (
"473 -621 LINE",
"618 -621 LINE",
"618 729 LINE",
"1461 729 LINE",
"1461 874 LINE",
"473 874 LINE"
);
},
{
closed = 1;
nodes = (
"833 -621 LINE",
"978 -621 LINE",
"978 369 LINE",
"1461 369 LINE",
"1461 514 LINE",
"833 514 LINE"
);
}
);
width = 1451;
}
);
note = uni2554;
unicode = 2554;
},
{
glyphname = uni2555;
lastChange = "2019-11-18 14:23:36 +0000";
layers = (
{
layerId = "489D640B-457E-495A-B1F8-D23C81511CE7";
paths = (
{
closed = 1;
nodes = (
"653 369 LINE",
"653 -621 LINE",
"798 -621 LINE",
"798 874 LINE",
"-10 874 LINE",
"-10 729 LINE",
"653 729 LINE",
"653 514 LINE",
"-10 514 LINE",
"-10 369 LINE"
);
}
);
width = 1451;
}
);
note = uni2555;
unicode = 2555;
},
{
glyphname = uni2556;
lastChange = "2019-11-18 14:23:36 +0000";
layers = (
{
layerId = "489D640B-457E-495A-B1F8-D23C81511CE7";
paths = (
{
closed = 1;
nodes = (
"473 549 LINE",
"473 -621 LINE",
"618 -621 LINE",
"618 549 LINE",
"833 549 LINE",
"833 -621 LINE",
"978 -621 LINE",
"978 694 LINE",
"-10 694 LINE",
"-10 549 LINE"
);
}
);
width = 1451;
}
);
note = uni2556;
unicode = 2556;
},
{
glyphname = uni2557;
lastChange = "2019-11-18 14:23:36 +0000";
layers = (
{
layerId = "489D640B-457E-495A-B1F8-D23C81511CE7";
paths = (
{
closed = 1;
nodes = (
"-10 874 LINE",
"-10 729 LINE",
"833 729 LINE",
"833 -621 LINE",
"978 -621 LINE",
"978 874 LINE"
);
},
{
closed = 1;
nodes = (
"618 514 LINE",
"-10 514 LINE",
"-10 369 LINE",
"473 369 LINE",
"473 -621 LINE",
"618 -621 LINE"
);
}
);
width = 1451;
}
);
note = uni2557;
unicode = 2557;
},
{
glyphname = uni2558;
lastChange = "2019-11-18 14:23:36 +0000";
layers = (
{
layerId = "489D640B-457E-495A-B1F8-D23C81511CE7";
paths = (
{
closed = 1;
nodes = (
"653 369 LINE",
"1461 369 LINE",
"1461 514 LINE",
"798 514 LINE",
"798 729 LINE",
"1461 729 LINE",
"1461 874 LINE",
"798 874 LINE",
"798 1864 LINE",
"653 1864 LINE"
);
}
);
width = 1451;
}
);
note = uni2558;
unicode = 2558;
},
{
glyphname = uni2559;
lastChange = "2019-11-18 14:23:36 +0000";
layers = (
{
layerId = "489D640B-457E-495A-B1F8-D23C81511CE7";
paths = (
{
closed = 1;
nodes = (
"833 694 LINE",
"618 694 LINE",
"618 1864 LINE",
"473 1864 LINE",
"473 549 LINE",
"1461 549 LINE",
"1461 694 LINE",
"978 694 LINE",
"978 1864 LINE",
"833 1864 LINE"
);
}
);
width = 1451;
}
);
note = uni2559;
unicode = 2559;
},
{
glyphname = uni255A;
lastChange = "2019-11-18 14:23:36 +0000";
layers = (
{
layerId = "489D640B-457E-495A-B1F8-D23C81511CE7";
paths = (
{
closed = 1;
nodes = (
"473 369 LINE",
"1461 369 LINE",
"1461 514 LINE",
"618 514 LINE",
"618 1864 LINE",
"473 1864 LINE"
);
},
{
closed = 1;
nodes = (
"833 729 LINE",
"1461 729 LINE",
"1461 874 LINE",
"978 874 LINE",
"978 1864 LINE",
"833 1864 LINE"
);
}
);
width = 1451;
}
);
note = uni255A;
unicode = 255A;
},
{
glyphname = uni255B;
lastChange = "2019-11-18 14:23:36 +0000";
layers = (
{
layerId = "489D640B-457E-495A-B1F8-D23C81511CE7";
paths = (
{
closed = 1;
nodes = (
"798 369 LINE",
"798 1864 LINE",
"653 1864 LINE",
"653 874 LINE",
"-10 874 LINE",
"-10 729 LINE",
"653 729 LINE",
"653 514 LINE",
"-10 514 LINE",
"-10 369 LINE"
);
}
);
width = 1451;
}
);
note = uni255B;
unicode = 255B;
},
{
glyphname = uni255C;
lastChange = "2019-11-18 14:23:36 +0000";
layers = (
{
layerId = "489D640B-457E-495A-B1F8-D23C81511CE7";
paths = (
{
closed = 1;
nodes = (
"978 1864 LINE",
"833 1864 LINE",
"833 694 LINE",
"618 694 LINE",
"618 1864 LINE",
"473 1864 LINE",
"473 694 LINE",
"-10 694 LINE",
"-10 549 LINE",
"978 549 LINE"
);
}
);
width = 1451;
}
);
note = uni255C;
unicode = 255C;
},
{
glyphname = uni255D;
lastChange = "2019-11-18 14:23:36 +0000";
layers = (
{
layerId = "489D640B-457E-495A-B1F8-D23C81511CE7";
paths = (
{
closed = 1;
nodes = (
"978 1864 LINE",
"833 1864 LINE",
"833 514 LINE",
"-10 514 LINE",
"-10 369 LINE",
"978 369 LINE"
);
},
{
closed = 1;
nodes = (
"473 874 LINE",
"-10 874 LINE",
"-10 729 LINE",
"618 729 LINE",
"618 1864 LINE",
"473 1864 LINE"
);
}
);
width = 1451;
}
);
note = uni255D;
unicode = 255D;
},
{
glyphname = uni255E;
lastChange = "2019-11-18 14:23:36 +0000";
layers = (
{
layerId = "489D640B-457E-495A-B1F8-D23C81511CE7";
paths = (
{
closed = 1;
nodes = (
"653 -621 LINE",
"798 -621 LINE",
"798 369 LINE",
"1461 369 LINE",
"1461 514 LINE",
"798 514 LINE",
"798 729 LINE",
"1461 729 LINE",
"1461 874 LINE",
"798 874 LINE",
"798 1864 LINE",
"653 1864 LINE"
);
}
);
width = 1451;
}
);
note = uni255E;
unicode = 255E;
},
{
glyphname = uni255F;
lastChange = "2019-11-18 14:23:36 +0000";
layers = (
{
layerId = "489D640B-457E-495A-B1F8-D23C81511CE7";
paths = (
{
closed = 1;
nodes = (
"833 -621 LINE",
"978 -621 LINE",
"978 549 LINE",
"1461 549 LINE",
"1461 694 LINE",
"978 694 LINE",
"978 1864 LINE",
"833 1864 LINE"
);
},
{
closed = 1;
nodes = (
"473 -621 LINE",
"618 -621 LINE",
"618 1864 LINE",
"473 1864 LINE"
);
}
);
width = 1451;
}
);
note = uni255F;
unicode = 255F;
},
{
glyphname = uni2560;
lastChange = "2019-11-18 14:23:36 +0000";
layers = (
{
layerId = "489D640B-457E-495A-B1F8-D23C81511CE7";
paths = (
{
closed = 1;
nodes = (
"618 1864 LINE",
"473 1864 LINE",
"473 -621 LINE",
"618 -621 LINE"
);
},
{
closed = 1;
nodes = (
"833 -621 LINE",
"978 -621 LINE",
"978 369 LINE",
"1461 369 LINE",
"1461 514 LINE",
"833 514 LINE"
);
},
{
closed = 1;
nodes = (
"833 729 LINE",
"1461 729 LINE",
"1461 874 LINE",
"978 874 LINE",
"978 1864 LINE",
"833 1864 LINE"
);
}
);
width = 1451;
}
);
note = uni2560;
unicode = 2560;
},
{
glyphname = uni2561;
lastChange = "2019-11-18 14:23:36 +0000";
layers = (
{
layerId = "489D640B-457E-495A-B1F8-D23C81511CE7";
paths = (
{
closed = 1;
nodes = (
"653 369 LINE",
"653 -621 LINE",
"798 -621 LINE",
"798 1864 LINE",
"653 1864 LINE",
"653 874 LINE",
"-10 874 LINE",
"-10 729 LINE",
"653 729 LINE",
"653 514 LINE",
"-10 514 LINE",
"-10 369 LINE"
);
}
);
width = 1451;
}
);
note = uni2561;
unicode = 2561;
},
{
glyphname = uni2562;
lastChange = "2019-11-18 14:23:36 +0000";
layers = (
{
layerId = "489D640B-457E-495A-B1F8-D23C81511CE7";
paths = (
{
closed = 1;
nodes = (
"473 549 LINE",
"473 -621 LINE",
"618 -621 LINE",
"618 1864 LINE",
"473 1864 LINE",
"473 694 LINE",
"-10 694 LINE",
"-10 549 LINE"
);
},
{
closed = 1;
nodes = (
"833 -621 LINE",
"978 -621 LINE",
"978 1864 LINE",
"833 1864 LINE"
);
}
);
width = 1451;
}
);
note = uni2562;
unicode = 2562;
},
{
glyphname = uni2563;
lastChange = "2019-11-18 14:23:36 +0000";
layers = (
{
layerId = "489D640B-457E-495A-B1F8-D23C81511CE7";
paths = (
{
closed = 1;
nodes = (
"833 -621 LINE",
"978 -621 LINE",
"978 1864 LINE",
"833 1864 LINE"
);
},
{
closed = 1;
nodes = (
"473 874 LINE",
"-10 874 LINE",
"-10 729 LINE",
"618 729 LINE",
"618 1864 LINE",
"473 1864 LINE"
);
},
{
closed = 1;
nodes = (
"618 514 LINE",
"-10 514 LINE",
"-10 369 LINE",
"473 369 LINE",
"473 -621 LINE",
"618 -621 LINE"
);
}
);
width = 1451;
}
);
note = uni2563;
unicode = 2563;
},
{
glyphname = uni2564;
lastChange = "2019-11-18 14:23:36 +0000";
layers = (
{
layerId = "489D640B-457E-495A-B1F8-D23C81511CE7";
paths = (
{
closed = 1;
nodes = (
"653 369 LINE",
"653 -621 LINE",
"798 -621 LINE",
"798 369 LINE",
"1461 369 LINE",
"1461 514 LINE",
"-10 514 LINE",
"-10 369 LINE"
);
},
{
closed = 1;
nodes = (
"1461 729 LINE",
"1461 874 LINE",
"-10 874 LINE",
"-10 729 LINE"
);
}
);
width = 1451;
}
);
note = uni2564;
unicode = 2564;
},
{
glyphname = uni2565;
lastChange = "2019-11-18 14:23:36 +0000";
layers = (
{
layerId = "489D640B-457E-495A-B1F8-D23C81511CE7";
paths = (
{
closed = 1;
nodes = (
"473 549 LINE",
"473 -621 LINE",
"618 -621 LINE",
"618 549 LINE",
"833 549 LINE",
"833 -621 LINE",
"978 -621 LINE",
"978 549 LINE",
"1461 549 LINE",
"1461 694 LINE",
"-10 694 LINE",
"-10 549 LINE"
);
}
);
width = 1451;
}
);
note = uni2565;
unicode = 2565;
},
{
glyphname = uni2566;
lastChange = "2019-11-18 14:23:36 +0000";
layers = (
{
layerId = "489D640B-457E-495A-B1F8-D23C81511CE7";
paths = (
{
closed = 1;
nodes = (
"618 514 LINE",
"-10 514 LINE",
"-10 369 LINE",
"473 369 LINE",
"473 -621 LINE",
"618 -621 LINE"
);
},
{
closed = 1;
nodes = (
"833 -621 LINE",
"978 -621 LINE",
"978 369 LINE",
"1461 369 LINE",
"1461 514 LINE",
"833 514 LINE"
);
},
{
closed = 1;
nodes = (
"-10 874 LINE",
"-10 729 LINE",
"1461 729 LINE",
"1461 874 LINE"
);
}
);
width = 1451;
}
);
note = uni2566;
unicode = 2566;
},
{
glyphname = uni2567;
lastChange = "2019-11-18 14:23:36 +0000";
layers = (
{
layerId = "489D640B-457E-495A-B1F8-D23C81511CE7";
paths = (
{
closed = 1;
nodes = (
"1461 729 LINE",
"1461 874 LINE",
"798 874 LINE",
"798 1864 LINE",
"653 1864 LINE",
"653 874 LINE",
"-10 874 LINE",
"-10 729 LINE"
);
},
{
closed = 1;
nodes = (
"1461 369 LINE",
"1461 514 LINE",
"-10 514 LINE",
"-10 369 LINE"
);
}
);
width = 1451;
}
);
note = uni2567;
unicode = 2567;
},
{
glyphname = uni2568;
lastChange = "2019-11-18 14:23:36 +0000";
layers = (
{
layerId = "489D640B-457E-495A-B1F8-D23C81511CE7";
paths = (
{
closed = 1;
nodes = (
"1461 549 LINE",
"1461 694 LINE",
"978 694 LINE",
"978 1864 LINE",
"833 1864 LINE",
"833 694 LINE",
"618 694 LINE",
"618 1864 LINE",
"473 1864 LINE",
"473 694 LINE",
"-10 694 LINE",
"-10 549 LINE"
);
}
);
width = 1451;
}
);
note = uni2568;
unicode = 2568;
},
{
glyphname = uni2569;
lastChange = "2019-11-18 14:23:36 +0000";
layers = (
{
layerId = "489D640B-457E-495A-B1F8-D23C81511CE7";
paths = (
{
closed = 1;
nodes = (
"833 729 LINE",
"1461 729 LINE",
"1461 874 LINE",
"978 874 LINE",
"978 1864 LINE",
"833 1864 LINE"
);
},
{
closed = 1;
nodes = (
"473 874 LINE",
"-10 874 LINE",
"-10 729 LINE",
"618 729 LINE",
"618 1864 LINE",
"473 1864 LINE"
);
},
{
closed = 1;
nodes = (
"1461 369 LINE",
"1461 514 LINE",
"-10 514 LINE",
"-10 369 LINE"
);
}
);
width = 1451;
}
);
note = uni2569;
unicode = 2569;
},
{
glyphname = uni256A;
lastChange = "2019-11-18 14:23:36 +0000";
layers = (
{
layerId = "489D640B-457E-495A-B1F8-D23C81511CE7";
paths = (
{
closed = 1;
nodes = (
"653 369 LINE",
"653 -621 LINE",
"798 -621 LINE",
"798 369 LINE",
"1461 369 LINE",
"1461 514 LINE",
"798 514 LINE",
"798 729 LINE",
"1461 729 LINE",
"1461 874 LINE",
"798 874 LINE",
"798 1864 LINE",
"653 1864 LINE",
"653 874 LINE",
"-10 874 LINE",
"-10 729 LINE",
"653 729 LINE",
"653 514 LINE",
"-10 514 LINE",
"-10 369 LINE"
);
}
);
width = 1451;
}
);
note = uni256A;
unicode = 256A;
},
{
glyphname = uni256B;
lastChange = "2019-11-18 14:23:36 +0000";
layers = (
{
layerId = "489D640B-457E-495A-B1F8-D23C81511CE7";
paths = (
{
closed = 1;
nodes = (
"833 694 LINE",
"618 694 LINE",
"618 1864 LINE",
"473 1864 LINE",
"473 694 LINE",
"-10 694 LINE",
"-10 549 LINE",
"473 549 LINE",
"473 -621 LINE",
"618 -621 LINE",
"618 549 LINE",
"833 549 LINE",
"833 -621 LINE",
"978 -621 LINE",
"978 549 LINE",
"1461 549 LINE",
"1461 694 LINE",
"978 694 LINE",
"978 1864 LINE",
"833 1864 LINE"
);
}
);
width = 1451;
}
);
note = uni256B;
unicode = 256B;
},
{
glyphname = uni256C;
lastChange = "2019-11-18 14:23:36 +0000";
layers = (
{
layerId = "489D640B-457E-495A-B1F8-D23C81511CE7";
paths = (
{
closed = 1;
nodes = (
"833 729 LINE",
"1461 729 LINE",
"1461 874 LINE",
"978 874 LINE",
"978 1864 LINE",
"833 1864 LINE"
);
},
{
closed = 1;
nodes = (
"618 514 LINE",
"-10 514 LINE",
"-10 369 LINE",
"473 369 LINE",
"473 -621 LINE",
"618 -621 LINE"
);
},
{
closed = 1;
nodes = (
"833 -621 LINE",
"978 -621 LINE",
"978 369 LINE",
"1461 369 LINE",
"1461 514 LINE",
"833 514 LINE"
);
},
{
closed = 1;
nodes = (
"473 874 LINE",
"-10 874 LINE",
"-10 729 LINE",
"618 729 LINE",
"618 1864 LINE",
"473 1864 LINE"
);
}
);
width = 1451;
}
);
note = uni256C;
unicode = 256C;
},
{
glyphname = upblock;
lastChange = "2019-11-18 14:23:36 +0000";
layers = (
{
layerId = "489D640B-457E-495A-B1F8-D23C81511CE7";
paths = (
{
closed = 1;
nodes = (
"1451 1864 LINE",
"0 1864 LINE",
"0 621 LINE",
"1451 621 LINE"
);
}
);
width = 1451;
}
);
note = upblock;
unicode = 2580;
},
{
glyphname = dnblock;
lastChange = "2019-11-18 14:23:36 +0000";
layers = (
{
layerId = "489D640B-457E-495A-B1F8-D23C81511CE7";
paths = (
{
closed = 1;
nodes = (
"1451 621 LINE",
"0 621 LINE",
"0 -621 LINE",
"1451 -621 LINE"
);
}
);
width = 1451;
}
);
note = dnblock;
unicode = 2584;
},
{
glyphname = block;
lastChange = "2019-11-18 14:23:36 +0000";
layers = (
{
layerId = "489D640B-457E-495A-B1F8-D23C81511CE7";
paths = (
{
closed = 1;
nodes = (
"1451 1864 LINE",
"0 1864 LINE",
"0 -621 LINE",
"1451 -621 LINE"
);
}
);
width = 1451;
}
);
note = block;
unicode = 2588;
},
{
glyphname = lfblock;
lastChange = "2019-11-18 14:23:36 +0000";
layers = (
{
layerId = "489D640B-457E-495A-B1F8-D23C81511CE7";
paths = (
{
closed = 1;
nodes = (
"726 1864 LINE",
"0 1864 LINE",
"0 -621 LINE",
"726 -621 LINE"
);
}
);
width = 1451;
}
);
note = lfblock;
unicode = 258C;
},
{
glyphname = rtblock;
lastChange = "2019-11-18 14:23:36 +0000";
layers = (
{
layerId = "489D640B-457E-495A-B1F8-D23C81511CE7";
paths = (
{
closed = 1;
nodes = (
"1451 1864 LINE",
"725 1864 LINE",
"725 -621 LINE",
"1451 -621 LINE"
);
}
);
width = 1451;
}
);
note = rtblock;
unicode = 2590;
},
{
glyphname = ltshade;
lastChange = "2019-11-18 14:23:36 +0000";
layers = (
{
layerId = "489D640B-457E-495A-B1F8-D23C81511CE7";
paths = (
{
closed = 1;
nodes = (
"103 1216 LINE",
"207 1216 LINE",
"207 1314 LINE",
"103 1314 LINE"
);
},
{
closed = 1;
nodes = (
"517 1216 LINE",
"621 1216 LINE",
"621 1314 LINE",
"517 1314 LINE"
);
},
{
closed = 1;
nodes = (
"933 1216 LINE",
"1036 1216 LINE",
"1036 1314 LINE",
"933 1314 LINE"
);
},
{
closed = 1;
nodes = (
"310 1023 LINE",
"414 1023 LINE",
"414 1119 LINE",
"310 1119 LINE"
);
},
{
closed = 1;
nodes = (
"725 1023 LINE",
"829 1023 LINE",
"829 1119 LINE",
"725 1119 LINE"
);
},
{
closed = 1;
nodes = (
"1140 1023 LINE",
"1244 1023 LINE",
"1244 1119 LINE",
"1140 1119 LINE"
);
},
{
closed = 1;
nodes = (
"933 831 LINE",
"1036 831 LINE",
"1036 927 LINE",
"933 927 LINE"
);
},
{
closed = 1;
nodes = (
"517 831 LINE",
"621 831 LINE",
"621 927 LINE",
"517 927 LINE"
);
},
{
closed = 1;
nodes = (
"103 831 LINE",
"207 831 LINE",
"207 927 LINE",
"103 927 LINE"
);
},
{
closed = 1;
nodes = (
"1140 636 LINE",
"1244 636 LINE",
"1244 732 LINE",
"1140 732 LINE"
);
},
{
closed = 1;
nodes = (
"725 636 LINE",
"829 636 LINE",
"829 732 LINE",
"725 732 LINE"
);
},
{
closed = 1;
nodes = (
"310 636 LINE",
"414 636 LINE",
"414 732 LINE",
"310 732 LINE"
);
},
{
closed = 1;
nodes = (
"103 444 LINE",
"207 444 LINE",
"207 540 LINE",
"103 540 LINE"
);
},
{
closed = 1;
nodes = (
"517 444 LINE",
"621 444 LINE",
"621 540 LINE",
"517 540 LINE"
);
},
{
closed = 1;
nodes = (
"933 444 LINE",
"1036 444 LINE",
"1036 540 LINE",
"933 540 LINE"
);
},
{
closed = 1;
nodes = (
"1140 249 LINE",
"1244 249 LINE",
"1244 345 LINE",
"1140 345 LINE"
);
},
{
closed = 1;
nodes = (
"725 249 LINE",
"829 249 LINE",
"829 345 LINE",
"725 345 LINE"
);
},
{
closed = 1;
nodes = (
"310 249 LINE",
"414 249 LINE",
"414 345 LINE",
"310 345 LINE"
);
},
{
closed = 1;
nodes = (
"103 56 LINE",
"207 56 LINE",
"207 153 LINE",
"103 153 LINE"
);
},
{
closed = 1;
nodes = (
"517 56 LINE",
"621 56 LINE",
"621 153 LINE",
"517 153 LINE"
);
},
{
closed = 1;
nodes = (
"933 56 LINE",
"1036 56 LINE",
"1036 153 LINE",
"933 153 LINE"
);
},
{
closed = 1;
nodes = (
"310 -136 LINE",
"414 -136 LINE",
"414 -42 LINE",
"310 -42 LINE"
);
},
{
closed = 1;
nodes = (
"725 -136 LINE",
"829 -136 LINE",
"829 -42 LINE",
"725 -42 LINE"
);
},
{
closed = 1;
nodes = (
"1140 -136 LINE",
"1244 -136 LINE",
"1244 -42 LINE",
"1140 -42 LINE"
);
},
{
closed = 1;
nodes = (
"933 -331 LINE",
"1036 -331 LINE",
"1036 -234 LINE",
"933 -234 LINE"
);
},
{
closed = 1;
nodes = (
"517 -331 LINE",
"621 -331 LINE",
"621 -234 LINE",
"517 -234 LINE"
);
},
{
closed = 1;
nodes = (
"103 -331 LINE",
"207 -331 LINE",
"207 -234 LINE",
"103 -234 LINE"
);
},
{
closed = 1;
nodes = (
"310 -523 LINE",
"414 -523 LINE",
"414 -427 LINE",
"310 -427 LINE"
);
},
{
closed = 1;
nodes = (
"725 -523 LINE",
"829 -523 LINE",
"829 -427 LINE",
"725 -427 LINE"
);
},
{
closed = 1;
nodes = (
"1140 -523 LINE",
"1244 -523 LINE",
"1244 -427 LINE",
"1140 -427 LINE"
);
},
{
closed = 1;
nodes = (
"310 1408 LINE",
"414 1408 LINE",
"414 1506 LINE",
"310 1506 LINE"
);
},
{
closed = 1;
nodes = (
"725 1408 LINE",
"829 1408 LINE",
"829 1506 LINE",
"725 1506 LINE"
);
},
{
closed = 1;
nodes = (
"1140 1408 LINE",
"1244 1408 LINE",
"1244 1506 LINE",
"1140 1506 LINE"
);
},
{
closed = 1;
nodes = (
"103 1603 LINE",
"207 1603 LINE",
"207 1699 LINE",
"103 1699 LINE"
);
},
{
closed = 1;
nodes = (
"517 1603 LINE",
"621 1603 LINE",
"621 1699 LINE",
"517 1699 LINE"
);
},
{
closed = 1;
nodes = (
"933 1603 LINE",
"1036 1603 LINE",
"1036 1699 LINE",
"933 1699 LINE"
);
},
{
closed = 1;
nodes = (
"1347 1216 LINE",
"1451 1216 LINE",
"1451 1314 LINE",
"1347 1314 LINE"
);
},
{
closed = 1;
nodes = (
"1347 831 LINE",
"1451 831 LINE",
"1451 927 LINE",
"1347 927 LINE"
);
},
{
closed = 1;
nodes = (
"1347 444 LINE",
"1451 444 LINE",
"1451 540 LINE",
"1347 540 LINE"
);
},
{
closed = 1;
nodes = (
"1347 56 LINE",
"1451 56 LINE",
"1451 153 LINE",
"1347 153 LINE"
);
},
{
closed = 1;
nodes = (
"1347 -331 LINE",
"1451 -331 LINE",
"1451 -234 LINE",
"1347 -234 LINE"
);
},
{
closed = 1;
nodes = (
"1347 1603 LINE",
"1451 1603 LINE",
"1451 1699 LINE",
"1347 1699 LINE"
);
}
);
width = 1451;
}
);
note = ltshade;
unicode = 2591;
},
{
glyphname = shade;
lastChange = "2019-11-18 14:23:36 +0000";
layers = (
{
layerId = "489D640B-457E-495A-B1F8-D23C81511CE7";
paths = (
{
closed = 1;
nodes = (
"103 1216 LINE",
"207 1216 LINE",
"207 1314 LINE",
"103 1314 LINE"
);
},
{
closed = 1;
nodes = (
"310 1216 LINE",
"414 1216 LINE",
"414 1314 LINE",
"310 1314 LINE"
);
},
{
closed = 1;
nodes = (
"517 1216 LINE",
"621 1216 LINE",
"621 1314 LINE",
"517 1314 LINE"
);
},
{
closed = 1;
nodes = (
"725 1216 LINE",
"829 1216 LINE",
"829 1314 LINE",
"725 1314 LINE"
);
},
{
closed = 1;
nodes = (
"933 1216 LINE",
"1037 1216 LINE",
"1037 1314 LINE",
"933 1314 LINE"
);
},
{
closed = 1;
nodes = (
"1140 1216 LINE",
"1244 1216 LINE",
"1244 1314 LINE",
"1140 1314 LINE"
);
},
{
closed = 1;
nodes = (
"0 1023 LINE",
"103 1023 LINE",
"103 1119 LINE",
"0 1119 LINE"
);
},
{
closed = 1;
nodes = (
"207 1023 LINE",
"310 1023 LINE",
"310 1119 LINE",
"207 1119 LINE"
);
},
{
closed = 1;
nodes = (
"414 1023 LINE",
"517 1023 LINE",
"517 1119 LINE",
"414 1119 LINE"
);
},
{
closed = 1;
nodes = (
"621 1023 LINE",
"725 1023 LINE",
"725 1119 LINE",
"621 1119 LINE"
);
},
{
closed = 1;
nodes = (
"829 1023 LINE",
"933 1023 LINE",
"933 1119 LINE",
"829 1119 LINE"
);
},
{
closed = 1;
nodes = (
"1037 1023 LINE",
"1140 1023 LINE",
"1140 1119 LINE",
"1037 1119 LINE"
);
},
{
closed = 1;
nodes = (
"103 831 LINE",
"207 831 LINE",
"207 927 LINE",
"103 927 LINE"
);
},
{
closed = 1;
nodes = (
"310 831 LINE",
"414 831 LINE",
"414 927 LINE",
"310 927 LINE"
);
},
{
closed = 1;
nodes = (
"517 831 LINE",
"621 831 LINE",
"621 927 LINE",
"517 927 LINE"
);
},
{
closed = 1;
nodes = (
"725 831 LINE",
"829 831 LINE",
"829 927 LINE",
"725 927 LINE"
);
},
{
closed = 1;
nodes = (
"933 831 LINE",
"1037 831 LINE",
"1037 927 LINE",
"933 927 LINE"
);
},
{
closed = 1;
nodes = (
"1140 831 LINE",
"1244 831 LINE",
"1244 927 LINE",
"1140 927 LINE"
);
},
{
closed = 1;
nodes = (
"0 636 LINE",
"103 636 LINE",
"103 732 LINE",
"0 732 LINE"
);
},
{
closed = 1;
nodes = (
"207 636 LINE",
"310 636 LINE",
"310 732 LINE",
"207 732 LINE"
);
},
{
closed = 1;
nodes = (
"414 636 LINE",
"517 636 LINE",
"517 732 LINE",
"414 732 LINE"
);
},
{
closed = 1;
nodes = (
"621 636 LINE",
"725 636 LINE",
"725 732 LINE",
"621 732 LINE"
);
},
{
closed = 1;
nodes = (
"829 636 LINE",
"933 636 LINE",
"933 732 LINE",
"829 732 LINE"
);
},
{
closed = 1;
nodes = (
"1037 636 LINE",
"1140 636 LINE",
"1140 732 LINE",
"1037 732 LINE"
);
},
{
closed = 1;
nodes = (
"103 444 LINE",
"207 444 LINE",
"207 540 LINE",
"103 540 LINE"
);
},
{
closed = 1;
nodes = (
"310 444 LINE",
"414 444 LINE",
"414 540 LINE",
"310 540 LINE"
);
},
{
closed = 1;
nodes = (
"517 444 LINE",
"621 444 LINE",
"621 540 LINE",
"517 540 LINE"
);
},
{
closed = 1;
nodes = (
"725 444 LINE",
"829 444 LINE",
"829 540 LINE",
"725 540 LINE"
);
},
{
closed = 1;
nodes = (
"933 444 LINE",
"1037 444 LINE",
"1037 540 LINE",
"933 540 LINE"
);
},
{
closed = 1;
nodes = (
"1140 444 LINE",
"1244 444 LINE",
"1244 540 LINE",
"1140 540 LINE"
);
},
{
closed = 1;
nodes = (
"0 249 LINE",
"103 249 LINE",
"103 345 LINE",
"0 345 LINE"
);
},
{
closed = 1;
nodes = (
"414 249 LINE",
"517 249 LINE",
"517 345 LINE",
"414 345 LINE"
);
},
{
closed = 1;
nodes = (
"621 249 LINE",
"725 249 LINE",
"725 345 LINE",
"621 345 LINE"
);
},
{
closed = 1;
nodes = (
"829 249 LINE",
"933 249 LINE",
"933 345 LINE",
"829 345 LINE"
);
},
{
closed = 1;
nodes = (
"1037 249 LINE",
"1140 249 LINE",
"1140 345 LINE",
"1037 345 LINE"
);
},
{
closed = 1;
nodes = (
"207 249 LINE",
"310 249 LINE",
"310 345 LINE",
"207 345 LINE"
);
},
{
closed = 1;
nodes = (
"1140 56 LINE",
"1244 56 LINE",
"1244 153 LINE",
"1140 153 LINE"
);
},
{
closed = 1;
nodes = (
"933 56 LINE",
"1037 56 LINE",
"1037 153 LINE",
"933 153 LINE"
);
},
{
closed = 1;
nodes = (
"725 56 LINE",
"829 56 LINE",
"829 153 LINE",
"725 153 LINE"
);
},
{
closed = 1;
nodes = (
"517 56 LINE",
"621 56 LINE",
"621 153 LINE",
"517 153 LINE"
);
},
{
closed = 1;
nodes = (
"310 56 LINE",
"414 56 LINE",
"414 153 LINE",
"310 153 LINE"
);
},
{
closed = 1;
nodes = (
"103 56 LINE",
"207 56 LINE",
"207 153 LINE",
"103 153 LINE"
);
},
{
closed = 1;
nodes = (
"0 -136 LINE",
"103 -136 LINE",
"103 -42 LINE",
"0 -42 LINE"
);
},
{
closed = 1;
nodes = (
"207 -136 LINE",
"310 -136 LINE",
"310 -42 LINE",
"207 -42 LINE"
);
},
{
closed = 1;
nodes = (
"414 -136 LINE",
"517 -136 LINE",
"517 -42 LINE",
"414 -42 LINE"
);
},
{
closed = 1;
nodes = (
"621 -136 LINE",
"725 -136 LINE",
"725 -42 LINE",
"621 -42 LINE"
);
},
{
closed = 1;
nodes = (
"829 -136 LINE",
"933 -136 LINE",
"933 -42 LINE",
"829 -42 LINE"
);
},
{
closed = 1;
nodes = (
"1037 -136 LINE",
"1140 -136 LINE",
"1140 -42 LINE",
"1037 -42 LINE"
);
},
{
closed = 1;
nodes = (
"1140 -331 LINE",
"1244 -331 LINE",
"1244 -234 LINE",
"1140 -234 LINE"
);
},
{
closed = 1;
nodes = (
"933 -331 LINE",
"1037 -331 LINE",
"1037 -234 LINE",
"933 -234 LINE"
);
},
{
closed = 1;
nodes = (
"725 -331 LINE",
"829 -331 LINE",
"829 -234 LINE",
"725 -234 LINE"
);
},
{
closed = 1;
nodes = (
"517 -331 LINE",
"621 -331 LINE",
"621 -234 LINE",
"517 -234 LINE"
);
},
{
closed = 1;
nodes = (
"310 -331 LINE",
"414 -331 LINE",
"414 -234 LINE",
"310 -234 LINE"
);
},
{
closed = 1;
nodes = (
"103 -331 LINE",
"207 -331 LINE",
"207 -234 LINE",
"103 -234 LINE"
);
},
{
closed = 1;
nodes = (
"0 -523 LINE",
"103 -523 LINE",
"103 -427 LINE",
"0 -427 LINE"
);
},
{
closed = 1;
nodes = (
"207 -523 LINE",
"310 -523 LINE",
"310 -427 LINE",
"207 -427 LINE"
);
},
{
closed = 1;
nodes = (
"414 -523 LINE",
"517 -523 LINE",
"517 -427 LINE",
"414 -427 LINE"
);
},
{
closed = 1;
nodes = (
"621 -523 LINE",
"725 -523 LINE",
"725 -427 LINE",
"621 -427 LINE"
);
},
{
closed = 1;
nodes = (
"829 -523 LINE",
"933 -523 LINE",
"933 -427 LINE",
"829 -427 LINE"
);
},
{
closed = 1;
nodes = (
"1037 -523 LINE",
"1140 -523 LINE",
"1140 -427 LINE",
"1037 -427 LINE"
);
},
{
closed = 1;
nodes = (
"0 1408 LINE",
"103 1408 LINE",
"103 1506 LINE",
"0 1506 LINE"
);
},
{
closed = 1;
nodes = (
"207 1408 LINE",
"310 1408 LINE",
"310 1506 LINE",
"207 1506 LINE"
);
},
{
closed = 1;
nodes = (
"414 1408 LINE",
"517 1408 LINE",
"517 1506 LINE",
"414 1506 LINE"
);
},
{
closed = 1;
nodes = (
"621 1408 LINE",
"725 1408 LINE",
"725 1506 LINE",
"621 1506 LINE"
);
},
{
closed = 1;
nodes = (
"829 1408 LINE",
"933 1408 LINE",
"933 1506 LINE",
"829 1506 LINE"
);
},
{
closed = 1;
nodes = (
"1037 1408 LINE",
"1140 1408 LINE",
"1140 1506 LINE",
"1037 1506 LINE"
);
},
{
closed = 1;
nodes = (
"103 1603 LINE",
"207 1603 LINE",
"207 1699 LINE",
"103 1699 LINE"
);
},
{
closed = 1;
nodes = (
"310 1603 LINE",
"414 1603 LINE",
"414 1699 LINE",
"310 1699 LINE"
);
},
{
closed = 1;
nodes = (
"517 1603 LINE",
"621 1603 LINE",
"621 1699 LINE",
"517 1699 LINE"
);
},
{
closed = 1;
nodes = (
"725 1603 LINE",
"829 1603 LINE",
"829 1699 LINE",
"725 1699 LINE"
);
},
{
closed = 1;
nodes = (
"933 1603 LINE",
"1037 1603 LINE",
"1037 1699 LINE",
"933 1699 LINE"
);
},
{
closed = 1;
nodes = (
"1140 1603 LINE",
"1244 1603 LINE",
"1244 1699 LINE",
"1140 1699 LINE"
);
},
{
closed = 1;
nodes = (
"1347 1216 LINE",
"1451 1216 LINE",
"1451 1314 LINE",
"1347 1314 LINE"
);
},
{
closed = 1;
nodes = (
"1244 1023 LINE",
"1347 1023 LINE",
"1347 1119 LINE",
"1244 1119 LINE"
);
},
{
closed = 1;
nodes = (
"1347 831 LINE",
"1451 831 LINE",
"1451 927 LINE",
"1347 927 LINE"
);
},
{
closed = 1;
nodes = (
"1244 636 LINE",
"1347 636 LINE",
"1347 732 LINE",
"1244 732 LINE"
);
},
{
closed = 1;
nodes = (
"1347 444 LINE",
"1451 444 LINE",
"1451 540 LINE",
"1347 540 LINE"
);
},
{
closed = 1;
nodes = (
"1244 249 LINE",
"1347 249 LINE",
"1347 345 LINE",
"1244 345 LINE"
);
},
{
closed = 1;
nodes = (
"1347 56 LINE",
"1451 56 LINE",
"1451 153 LINE",
"1347 153 LINE"
);
},
{
closed = 1;
nodes = (
"1244 -136 LINE",
"1347 -136 LINE",
"1347 -42 LINE",
"1244 -42 LINE"
);
},
{
closed = 1;
nodes = (
"1347 -331 LINE",
"1451 -331 LINE",
"1451 -234 LINE",
"1347 -234 LINE"
);
},
{
closed = 1;
nodes = (
"1244 -523 LINE",
"1347 -523 LINE",
"1347 -427 LINE",
"1244 -427 LINE"
);
},
{
closed = 1;
nodes = (
"1244 1408 LINE",
"1347 1408 LINE",
"1347 1506 LINE",
"1244 1506 LINE"
);
},
{
closed = 1;
nodes = (
"1347 1603 LINE",
"1451 1603 LINE",
"1451 1699 LINE",
"1347 1699 LINE"
);
}
);
width = 1451;
}
);
note = shade;
unicode = 2592;
},
{
glyphname = dkshade;
lastChange = "2019-11-18 14:23:36 +0000";
layers = (
{
layerId = "489D640B-457E-495A-B1F8-D23C81511CE7";
paths = (
{
closed = 1;
nodes = (
"1493 -523 LINE",
"1386 -523 LINE",
"1386 -427 LINE",
"1493 -427 LINE",
"1493 -136 LINE",
"1386 -136 LINE",
"1386 -42 LINE",
"1493 -42 LINE",
"1493 249 LINE",
"1386 249 LINE",
"1386 345 LINE",
"1493 345 LINE",
"1493 636 LINE",
"1386 636 LINE",
"1386 732 LINE",
"1493 732 LINE",
"1493 1023 LINE",
"1386 1023 LINE",
"1386 1119 LINE",
"1493 1119 LINE",
"1493 1408 LINE",
"1386 1408 LINE",
"1386 1506 LINE",
"1493 1506 LINE",
"1493 1699 LINE",
"1386 1699 LINE",
"1386 1603 LINE",
"1280 1603 LINE",
"1280 1699 LINE",
"1173 1699 LINE",
"1173 1603 LINE",
"1067 1603 LINE",
"1067 1699 LINE",
"960 1699 LINE",
"960 1603 LINE",
"853 1603 LINE",
"853 1699 LINE",
"746 1699 LINE",
"746 1603 LINE",
"639 1603 LINE",
"639 1699 LINE",
"532 1699 LINE",
"532 1603 LINE",
"426 1603 LINE",
"426 1699 LINE",
"319 1699 LINE",
"319 1603 LINE",
"213 1603 LINE",
"213 1699 LINE",
"106 1699 LINE",
"106 1603 LINE",
"0 1603 LINE",
"0 1314 LINE",
"106 1314 LINE",
"106 1216 LINE",
"0 1216 LINE",
"0 927 LINE",
"106 927 LINE",
"106 829 LINE",
"0 829 LINE",
"0 540 LINE",
"106 540 LINE",
"106 444 LINE",
"0 444 LINE",
"0 153 LINE",
"106 153 LINE",
"106 56 LINE",
"0 56 LINE",
"0 -234 LINE",
"106 -234 LINE",
"106 -331 LINE",
"0 -331 LINE",
"0 -621 LINE",
"1493 -621 LINE"
);
},
{
closed = 1;
nodes = (
"213 1119 LINE",
"213 1023 LINE",
"106 1023 LINE",
"106 1119 LINE"
);
},
{
closed = 1;
nodes = (
"426 1119 LINE",
"426 1023 LINE",
"319 1023 LINE",
"319 1119 LINE"
);
},
{
closed = 1;
nodes = (
"639 1119 LINE",
"639 1023 LINE",
"532 1023 LINE",
"532 1119 LINE"
);
},
{
closed = 1;
nodes = (
"853 1119 LINE",
"853 1023 LINE",
"746 1023 LINE",
"746 1119 LINE"
);
},
{
closed = 1;
nodes = (
"960 829 LINE",
"853 829 LINE",
"853 927 LINE",
"960 927 LINE"
);
},
{
closed = 1;
nodes = (
"746 829 LINE",
"639 829 LINE",
"639 927 LINE",
"746 927 LINE"
);
},
{
closed = 1;
nodes = (
"532 829 LINE",
"426 829 LINE",
"426 927 LINE",
"532 927 LINE"
);
},
{
closed = 1;
nodes = (
"319 829 LINE",
"213 829 LINE",
"213 927 LINE",
"319 927 LINE"
);
},
{
closed = 1;
nodes = (
"213 732 LINE",
"213 636 LINE",
"106 636 LINE",
"106 732 LINE"
);
},
{
closed = 1;
nodes = (
"426 732 LINE",
"426 636 LINE",
"319 636 LINE",
"319 732 LINE"
);
},
{
closed = 1;
nodes = (
"639 732 LINE",
"639 636 LINE",
"532 636 LINE",
"532 732 LINE"
);
},
{
closed = 1;
nodes = (
"853 732 LINE",
"853 636 LINE",
"746 636 LINE",
"746 732 LINE"
);
},
{
closed = 1;
nodes = (
"319 444 LINE",
"213 444 LINE",
"213 540 LINE",
"319 540 LINE"
);
},
{
closed = 1;
nodes = (
"532 540 LINE",
"532 444 LINE",
"426 444 LINE",
"426 540 LINE"
);
},
{
closed = 1;
nodes = (
"746 540 LINE",
"746 444 LINE",
"639 444 LINE",
"639 540 LINE"
);
},
{
closed = 1;
nodes = (
"960 540 LINE",
"960 444 LINE",
"853 444 LINE",
"853 540 LINE"
);
},
{
closed = 1;
nodes = (
"213 345 LINE",
"213 249 LINE",
"106 249 LINE",
"106 345 LINE"
);
},
{
closed = 1;
nodes = (
"639 345 LINE",
"639 249 LINE",
"532 249 LINE",
"532 345 LINE"
);
},
{
closed = 1;
nodes = (
"319 249 LINE",
"319 345 LINE",
"426 345 LINE",
"426 249 LINE"
);
},
{
closed = 1;
nodes = (
"853 345 LINE",
"853 249 LINE",
"746 249 LINE",
"746 345 LINE"
);
},
{
closed = 1;
nodes = (
"853 56 LINE",
"853 153 LINE",
"960 153 LINE",
"960 56 LINE"
);
},
{
closed = 1;
nodes = (
"639 56 LINE",
"639 153 LINE",
"746 153 LINE",
"746 56 LINE"
);
},
{
closed = 1;
nodes = (
"426 56 LINE",
"426 153 LINE",
"532 153 LINE",
"532 56 LINE"
);
},
{
closed = 1;
nodes = (
"213 56 LINE",
"213 153 LINE",
"319 153 LINE",
"319 56 LINE"
);
},
{
closed = 1;
nodes = (
"213 -42 LINE",
"213 -136 LINE",
"106 -136 LINE",
"106 -42 LINE"
);
},
{
closed = 1;
nodes = (
"426 -42 LINE",
"426 -136 LINE",
"319 -136 LINE",
"319 -42 LINE"
);
},
{
closed = 1;
nodes = (
"639 -42 LINE",
"639 -136 LINE",
"532 -136 LINE",
"532 -42 LINE"
);
},
{
closed = 1;
nodes = (
"853 -42 LINE",
"853 -136 LINE",
"746 -136 LINE",
"746 -42 LINE"
);
},
{
closed = 1;
nodes = (
"853 -331 LINE",
"853 -234 LINE",
"960 -234 LINE",
"960 -331 LINE"
);
},
{
closed = 1;
nodes = (
"639 -331 LINE",
"639 -234 LINE",
"746 -234 LINE",
"746 -331 LINE"
);
},
{
closed = 1;
nodes = (
"426 -331 LINE",
"426 -234 LINE",
"532 -234 LINE",
"532 -331 LINE"
);
},
{
closed = 1;
nodes = (
"213 -331 LINE",
"213 -234 LINE",
"319 -234 LINE",
"319 -331 LINE"
);
},
{
closed = 1;
nodes = (
"213 -427 LINE",
"213 -523 LINE",
"106 -523 LINE",
"106 -427 LINE"
);
},
{
closed = 1;
nodes = (
"426 -427 LINE",
"426 -523 LINE",
"319 -523 LINE",
"319 -427 LINE"
);
},
{
closed = 1;
nodes = (
"639 -427 LINE",
"639 -523 LINE",
"532 -523 LINE",
"532 -427 LINE"
);
},
{
closed = 1;
nodes = (
"853 -427 LINE",
"853 -523 LINE",
"746 -523 LINE",
"746 -427 LINE"
);
},
{
closed = 1;
nodes = (
"960 1216 LINE",
"853 1216 LINE",
"853 1314 LINE",
"960 1314 LINE"
);
},
{
closed = 1;
nodes = (
"746 1216 LINE",
"639 1216 LINE",
"639 1314 LINE",
"746 1314 LINE"
);
},
{
closed = 1;
nodes = (
"532 1216 LINE",
"426 1216 LINE",
"426 1314 LINE",
"532 1314 LINE"
);
},
{
closed = 1;
nodes = (
"319 1216 LINE",
"213 1216 LINE",
"213 1314 LINE",
"319 1314 LINE"
);
},
{
closed = 1;
nodes = (
"853 1408 LINE",
"746 1408 LINE",
"746 1506 LINE",
"853 1506 LINE"
);
},
{
closed = 1;
nodes = (
"639 1408 LINE",
"532 1408 LINE",
"532 1506 LINE",
"639 1506 LINE"
);
},
{
closed = 1;
nodes = (
"426 1408 LINE",
"319 1408 LINE",
"319 1506 LINE",
"426 1506 LINE"
);
},
{
closed = 1;
nodes = (
"213 1408 LINE",
"106 1408 LINE",
"106 1506 LINE",
"213 1506 LINE"
);
},
{
closed = 1;
nodes = (
"1067 1119 LINE",
"1067 1023 LINE",
"960 1023 LINE",
"960 1119 LINE"
);
},
{
closed = 1;
nodes = (
"1280 1119 LINE",
"1280 1023 LINE",
"1173 1023 LINE",
"1173 1119 LINE"
);
},
{
closed = 1;
nodes = (
"1386 829 LINE",
"1280 829 LINE",
"1280 927 LINE",
"1386 927 LINE"
);
},
{
closed = 1;
nodes = (
"1173 829 LINE",
"1067 829 LINE",
"1067 927 LINE",
"1173 927 LINE"
);
},
{
closed = 1;
nodes = (
"1067 732 LINE",
"1067 636 LINE",
"960 636 LINE",
"960 732 LINE"
);
},
{
closed = 1;
nodes = (
"1280 732 LINE",
"1280 636 LINE",
"1173 636 LINE",
"1173 732 LINE"
);
},
{
closed = 1;
nodes = (
"1173 444 LINE",
"1067 444 LINE",
"1067 540 LINE",
"1173 540 LINE"
);
},
{
closed = 1;
nodes = (
"1386 540 LINE",
"1386 444 LINE",
"1280 444 LINE",
"1280 540 LINE"
);
},
{
closed = 1;
nodes = (
"1067 345 LINE",
"1067 249 LINE",
"960 249 LINE",
"960 345 LINE"
);
},
{
closed = 1;
nodes = (
"1173 249 LINE",
"1173 345 LINE",
"1280 345 LINE",
"1280 249 LINE"
);
},
{
closed = 1;
nodes = (
"1280 56 LINE",
"1280 153 LINE",
"1386 153 LINE",
"1386 56 LINE"
);
},
{
closed = 1;
nodes = (
"1067 56 LINE",
"1067 153 LINE",
"1173 153 LINE",
"1173 56 LINE"
);
},
{
closed = 1;
nodes = (
"1067 -42 LINE",
"1067 -136 LINE",
"960 -136 LINE",
"960 -42 LINE"
);
},
{
closed = 1;
nodes = (
"1280 -42 LINE",
"1280 -136 LINE",
"1173 -136 LINE",
"1173 -42 LINE"
);
},
{
closed = 1;
nodes = (
"1280 -331 LINE",
"1280 -234 LINE",
"1386 -234 LINE",
"1386 -331 LINE"
);
},
{
closed = 1;
nodes = (
"1067 -331 LINE",
"1067 -234 LINE",
"1173 -234 LINE",
"1173 -331 LINE"
);
},
{
closed = 1;
nodes = (
"1067 -427 LINE",
"1067 -523 LINE",
"960 -523 LINE",
"960 -427 LINE"
);
},
{
closed = 1;
nodes = (
"1280 -427 LINE",
"1280 -523 LINE",
"1173 -523 LINE",
"1173 -427 LINE"
);
},
{
closed = 1;
nodes = (
"1386 1216 LINE",
"1280 1216 LINE",
"1280 1314 LINE",
"1386 1314 LINE"
);
},
{
closed = 1;
nodes = (
"1173 1216 LINE",
"1067 1216 LINE",
"1067 1314 LINE",
"1173 1314 LINE"
);
},
{
closed = 1;
nodes = (
"1280 1408 LINE",
"1173 1408 LINE",
"1173 1506 LINE",
"1280 1506 LINE"
);
},
{
closed = 1;
nodes = (
"1067 1408 LINE",
"960 1408 LINE",
"960 1506 LINE",
"1067 1506 LINE"
);
}
);
width = 1493;
}
);
note = dkshade;
unicode = 2593;
},
{
glyphname = filledbox;
lastChange = "2019-11-18 14:23:36 +0000";
layers = (
{
layerId = "489D640B-457E-495A-B1F8-D23C81511CE7";
paths = (
{
closed = 1;
nodes = (
"123 117 LINE",
"1114 117 LINE",
"1114 1108 LINE",
"123 1108 LINE"
);
}
);
width = 1237;
}
);
note = filledbox;
unicode = 25A0;
},
{
glyphname = filledrect;
lastChange = "2019-11-18 14:23:36 +0000";
layers = (
{
layerId = "489D640B-457E-495A-B1F8-D23C81511CE7";
paths = (
{
closed = 1;
nodes = (
"0 0 LINE",
"2048 0 LINE",
"2048 616 LINE",
"0 616 LINE"
);
}
);
width = 2048;
}
);
note = filledrect;
unicode = 25AC;
},
{
glyphname = triagup;
lastChange = "2019-11-18 14:23:36 +0000";
layers = (
{
layerId = "489D640B-457E-495A-B1F8-D23C81511CE7";
paths = (
{
closed = 1;
nodes = (
"1612 0 LINE",
"1014 1198 LINE",
"414 0 LINE"
);
}
);
width = 2027;
}
);
note = triagup;
unicode = 25B2;
},
{
glyphname = triagrt;
lastChange = "2019-11-18 14:23:36 +0000";
layers = (
{
layerId = "489D640B-457E-495A-B1F8-D23C81511CE7";
paths = (
{
closed = 1;
nodes = (
"401 -27 LINE",
"1626 586 LINE",
"401 1196 LINE"
);
}
);
width = 2027;
}
);
note = triagrt;
unicode = 25BA;
},
{
glyphname = triagdn;
lastChange = "2019-11-18 14:23:36 +0000";
layers = (
{
layerId = "489D640B-457E-495A-B1F8-D23C81511CE7";
paths = (
{
closed = 1;
nodes = (
"414 1171 LINE",
"1014 -27 LINE",
"1612 1171 LINE"
);
}
);
width = 2027;
}
);
note = triagdn;
unicode = 25BC;
},
{
glyphname = triaglf;
lastChange = "2019-11-18 14:23:36 +0000";
layers = (
{
layerId = "489D640B-457E-495A-B1F8-D23C81511CE7";
paths = (
{
closed = 1;
nodes = (
"401 586 LINE",
"1626 -27 LINE",
"1626 1196 LINE"
);
}
);
width = 2027;
}
);
note = triaglf;
unicode = 25C4;
},
{
glyphname = circle;
lastChange = "2019-11-18 14:23:36 +0000";
layers = (
{
layerId = "489D640B-457E-495A-B1F8-D23C81511CE7";
paths = (
{
closed = 1;
nodes = (
"167 490 OFFCURVE",
"287 282 OFFCURVE",
"495 162 OFFCURVE",
"617 162 QCURVE SMOOTH",
"740 162 OFFCURVE",
"949 282 OFFCURVE",
"1070 491 OFFCURVE",
"1070 612 QCURVE SMOOTH",
"1070 733 OFFCURVE",
"949 944 OFFCURVE",
"739 1065 OFFCURVE",
"617 1065 QCURVE SMOOTH",
"496 1065 OFFCURVE",
"287 944 OFFCURVE",
"167 734 OFFCURVE",
"167 612 QCURVE SMOOTH"
);
},
{
closed = 1;
nodes = (
"253 712 OFFCURVE",
"351 881 OFFCURVE",
"520 979 OFFCURVE",
"617 979 QCURVE SMOOTH",
"715 979 OFFCURVE",
"886 881 OFFCURVE",
"984 710 OFFCURVE",
"984 612 QCURVE SMOOTH",
"984 514 OFFCURVE",
"884 344 OFFCURVE",
"715 248 OFFCURVE",
"617 248 QCURVE SMOOTH",
"518 248 OFFCURVE",
"351 345 OFFCURVE",
"253 514 OFFCURVE",
"253 612 QCURVE SMOOTH"
);
}
);
width = 1237;
}
);
note = circle;
unicode = 25CB;
},
{
glyphname = invbullet;
lastChange = "2019-11-18 14:23:36 +0000";
layers = (
{
layerId = "489D640B-457E-495A-B1F8-D23C81511CE7";
paths = (
{
closed = 1;
nodes = (
"1196 0 LINE",
"1196 1155 LINE",
"41 1155 LINE",
"41 0 LINE"
);
},
{
closed = 1;
nodes = (
"176 695 OFFCURVE",
"293 899 OFFCURVE",
"498 1018 OFFCURVE",
"616 1018 QCURVE SMOOTH",
"735 1018 OFFCURVE",
"939 900 OFFCURVE",
"1057 695 OFFCURVE",
"1057 577 QCURVE SMOOTH",
"1057 460 OFFCURVE",
"939 255 OFFCURVE",
"734 137 OFFCURVE",
"616 137 QCURVE SMOOTH",
"497 137 OFFCURVE",
"294 255 OFFCURVE",
"176 459 OFFCURVE",
"176 577 QCURVE SMOOTH"
);
}
);
width = 1237;
}
);
note = invbullet;
unicode = 25D8;
},
{
glyphname = invcircle;
lastChange = "2019-11-18 14:23:36 +0000";
layers = (
{
layerId = "489D640B-457E-495A-B1F8-D23C81511CE7";
paths = (
{
closed = 1;
nodes = (
"1196 0 LINE",
"1196 1155 LINE",
"41 1155 LINE",
"41 0 LINE"
);
},
{
closed = 1;
nodes = (
"253 480 OFFCURVE",
"351 310 OFFCURVE",
"521 212 OFFCURVE",
"618 212 QCURVE SMOOTH",
"715 212 OFFCURVE",
"885 310 OFFCURVE",
"983 480 OFFCURVE",
"983 577 QCURVE SMOOTH",
"983 674 OFFCURVE",
"885 844 OFFCURVE",
"715 942 OFFCURVE",
"618 942 QCURVE SMOOTH",
"521 942 OFFCURVE",
"351 844 OFFCURVE",
"253 674 OFFCURVE",
"253 577 QCURVE SMOOTH"
);
},
{
closed = 1;
nodes = (
"176 695 OFFCURVE",
"293 899 OFFCURVE",
"498 1018 OFFCURVE",
"616 1018 QCURVE SMOOTH",
"735 1018 OFFCURVE",
"939 900 OFFCURVE",
"1057 695 OFFCURVE",
"1057 577 QCURVE SMOOTH",
"1057 460 OFFCURVE",
"939 255 OFFCURVE",
"734 137 OFFCURVE",
"616 137 QCURVE SMOOTH",
"497 137 OFFCURVE",
"294 255 OFFCURVE",
"176 459 OFFCURVE",
"176 577 QCURVE SMOOTH"
);
}
);
width = 1237;
}
);
note = invcircle;
unicode = 25D9;
},
{
glyphname = smileface;
lastChange = "2019-11-18 14:23:36 +0000";
layers = (
{
layerId = "489D640B-457E-495A-B1F8-D23C81511CE7";
paths = (
{
closed = 1;
nodes = (
"1657 833 OFFCURVE",
"1303 1196 OFFCURVE",
"1045 1196 QCURVE SMOOTH",
"787 1196 OFFCURVE",
"433 834 OFFCURVE",
"433 584 QCURVE SMOOTH",
"434 331 OFFCURVE",
"792 -27 OFFCURVE",
"1045 -27 QCURVE SMOOTH",
"1297 -26 OFFCURVE",
"1657 330 OFFCURVE",
"1657 584 QCURVE SMOOTH"
);
},
{
closed = 1;
nodes = (
"1566 369 OFFCURVE",
"1262 61 OFFCURVE",
"1045 61 QCURVE SMOOTH",
"829 62 OFFCURVE",
"523 368 OFFCURVE",
"523 584 QCURVE SMOOTH",
"523 801 OFFCURVE",
"676 954 QCURVE SMOOTH",
"827 1108 OFFCURVE",
"1045 1108 QCURVE SMOOTH",
"1261 1107 OFFCURVE",
"1567 801 OFFCURVE",
"1567 584 QCURVE SMOOTH"
);
},
{
closed = 1;
nodes = (
"889 743 OFFCURVE",
"843 788 OFFCURVE",
"811 788 QCURVE SMOOTH",
"779 788 OFFCURVE",
"734 743 OFFCURVE",
"734 711 QCURVE SMOOTH",
"734 679 OFFCURVE",
"779 633 OFFCURVE",
"811 633 QCURVE SMOOTH",
"843 633 OFFCURVE",
"889 679 OFFCURVE",
"889 711 QCURVE SMOOTH"
);
},
{
closed = 1;
nodes = (
"1356 743 OFFCURVE",
"1312 788 OFFCURVE",
"1280 788 QCURVE SMOOTH",
"1248 788 OFFCURVE",
"1201 743 OFFCURVE",
"1201 711 QCURVE SMOOTH",
"1201 679 OFFCURVE",
"1248 633 OFFCURVE",
"1280 633 QCURVE SMOOTH",
"1312 633 OFFCURVE",
"1356 679 OFFCURVE",
"1356 711 QCURVE SMOOTH"
);
},
{
closed = 1;
nodes = (
"762 387 LINE",
"860 201 OFFCURVE",
"1045 201 QCURVE SMOOTH",
"1230 201 OFFCURVE",
"1328 387 QCURVE",
"1266 422 LINE",
"1190 285 OFFCURVE",
"1045 285 QCURVE SMOOTH",
"898 285 OFFCURVE",
"822 422 QCURVE"
);
}
);
width = 2091;
}
);
note = smileface;
unicode = 263A;
},
{
glyphname = invsmileface;
lastChange = "2019-11-18 14:23:36 +0000";
layers = (
{
layerId = "489D640B-457E-495A-B1F8-D23C81511CE7";
paths = (
{
closed = 1;
nodes = (
"1689 833 OFFCURVE",
"1335 1196 OFFCURVE",
"1077 1196 QCURVE SMOOTH",
"819 1196 OFFCURVE",
"465 834 OFFCURVE",
"465 584 QCURVE SMOOTH",
"466 331 OFFCURVE",
"824 -27 OFFCURVE",
"1077 -27 QCURVE SMOOTH",
"1329 -26 OFFCURVE",
"1689 330 OFFCURVE",
"1689 584 QCURVE SMOOTH"
);
},
{
closed = 1;
nodes = (
"921 679 OFFCURVE",
"875 633 OFFCURVE",
"843 633 QCURVE SMOOTH",
"811 633 OFFCURVE",
"766 679 OFFCURVE",
"766 711 QCURVE SMOOTH",
"766 743 OFFCURVE",
"811 788 OFFCURVE",
"843 788 QCURVE SMOOTH",
"875 788 OFFCURVE",
"921 743 OFFCURVE",
"921 711 QCURVE SMOOTH"
);
},
{
closed = 1;
nodes = (
"1388 679 OFFCURVE",
"1344 633 OFFCURVE",
"1312 633 QCURVE SMOOTH",
"1280 633 OFFCURVE",
"1233 679 OFFCURVE",
"1233 711 QCURVE SMOOTH",
"1233 743 OFFCURVE",
"1280 788 OFFCURVE",
"1312 788 QCURVE SMOOTH",
"1344 788 OFFCURVE",
"1388 743 OFFCURVE",
"1388 711 QCURVE SMOOTH"
);
},
{
closed = 1;
nodes = (
"854 422 LINE",
"930 285 OFFCURVE",
"1077 285 QCURVE SMOOTH",
"1222 285 OFFCURVE",
"1298 422 QCURVE",
"1360 387 LINE",
"1262 201 OFFCURVE",
"1077 201 QCURVE SMOOTH",
"892 201 OFFCURVE",
"794 387 QCURVE"
);
}
);
width = 2155;
}
);
note = invsmileface;
unicode = 263B;
},
{
glyphname = sun;
lastChange = "2019-11-18 14:23:36 +0000";
layers = (
{
layerId = "489D640B-457E-495A-B1F8-D23C81511CE7";
paths = (
{
closed = 1;
nodes = (
"905 866 LINE",
"792 853 OFFCURVE",
"682 776 QCURVE",
"493 958 LINE",
"453 909 LINE",
"633 725 LINE",
"553 630 OFFCURVE",
"541 502 QCURVE",
"326 502 LINE",
"326 440 LINE",
"541 440 LINE",
"557 315 OFFCURVE",
"635 215 QCURVE",
"453 31 LINE",
"496 -14 LINE",
"684 166 LINE",
"784 93 OFFCURVE",
"905 76 QCURVE",
"905 -141 LINE",
"971 -141 LINE",
"971 76 LINE",
"1024 84 OFFCURVE",
"1086 100 OFFCURVE",
"1160 142 OFFCURVE",
"1196 168 QCURVE",
"1378 -14 LINE",
"1427 29 LINE",
"1243 217 LINE",
"1318 313 OFFCURVE",
"1335 438 QCURVE",
"1550 438 LINE",
"1550 500 LINE",
"1335 500 LINE",
"1329 616 OFFCURVE",
"1243 729 QCURVE",
"1427 913 LINE",
"1382 958 LINE",
"1196 776 LINE",
"1136 821 OFFCURVE",
"1037 860 OFFCURVE",
"971 866 QCURVE",
"971 1083 LINE",
"905 1083 LINE"
);
},
{
closed = 1;
nodes = (
"1074 805 OFFCURVE",
"1270 607 OFFCURVE",
"1270 471 QCURVE SMOOTH",
"1270 333 OFFCURVE",
"1171 236 QCURVE SMOOTH",
"1075 139 OFFCURVE",
"936 139 QCURVE SMOOTH",
"799 139 OFFCURVE",
"604 335 OFFCURVE",
"604 471 QCURVE SMOOTH",
"604 607 OFFCURVE",
"797 805 OFFCURVE",
"936 805 QCURVE SMOOTH"
);
}
);
width = 1877;
}
);
note = sun;
unicode = 263C;
},
{
glyphname = female;
lastChange = "2019-11-18 14:23:36 +0000";
layers = (
{
layerId = "489D640B-457E-495A-B1F8-D23C81511CE7";
paths = (
{
closed = 1;
nodes = (
"732 412 LINE",
"474 412 LINE",
"474 342 LINE",
"732 342 LINE",
"732 80 LINE",
"806 80 LINE",
"806 342 LINE",
"1062 342 LINE",
"1062 412 LINE",
"806 412 LINE",
"806 578 LINE",
"912 591 OFFCURVE",
"1056 753 OFFCURVE",
"1056 862 QCURVE SMOOTH",
"1056 984 OFFCURVE",
"970 1067 QCURVE SMOOTH",
"887 1153 OFFCURVE",
"769 1153 QCURVE SMOOTH",
"655 1153 OFFCURVE",
"481 988 OFFCURVE",
"481 862 QCURVE SMOOTH",
"481 787 OFFCURVE",
"549 665 OFFCURVE",
"656 589 OFFCURVE",
"732 578 QCURVE"
);
},
{
closed = 1;
nodes = (
"824 1069 OFFCURVE",
"917 1017 OFFCURVE",
"974 922 OFFCURVE",
"974 864 QCURVE SMOOTH",
"974 780 OFFCURVE",
"913 719 QCURVE SMOOTH",
"854 657 OFFCURVE",
"767 657 QCURVE SMOOTH",
"685 657 OFFCURVE",
"562 778 OFFCURVE",
"562 864 QCURVE SMOOTH",
"562 921 OFFCURVE",
"619 1016 OFFCURVE",
"711 1069 OFFCURVE",
"767 1069 QCURVE SMOOTH"
);
}
);
width = 1536;
}
);
note = female;
unicode = 2640;
},
{
glyphname = male;
lastChange = "2019-11-18 14:23:36 +0000";
layers = (
{
layerId = "489D640B-457E-495A-B1F8-D23C81511CE7";
paths = (
{
closed = 1;
nodes = (
"782 782 LINE",
"699 825 OFFCURVE",
"628 825 QCURVE SMOOTH",
"506 825 OFFCURVE",
"337 655 OFFCURVE",
"337 535 QCURVE SMOOTH",
"337 413 OFFCURVE",
"510 250 OFFCURVE",
"626 250 QCURVE SMOOTH",
"742 250 OFFCURVE",
"917 424 OFFCURVE",
"917 549 QCURVE SMOOTH",
"917 658 OFFCURVE",
"833 739 QCURVE",
"1070 977 LINE",
"1083 927 OFFCURVE",
"1119 837 OFFCURVE",
"1156 772 OFFCURVE",
"1175 772 QCURVE",
"1189 778 LINE",
"1193 784 OFFCURVE",
"1193 793 QCURVE",
"1189 825 LINE",
"1177 876 OFFCURVE",
"1177 954 QCURVE SMOOTH",
"1177 1052 OFFCURVE",
"1193 1112 QCURVE SMOOTH",
"1199 1139 LINE",
"1199 1153 OFFCURVE",
"1183 1153 QCURVE SMOOTH",
"1170 1153 OFFCURVE",
"1134 1141 QCURVE SMOOTH",
"1093 1128 OFFCURVE",
"1005 1128 QCURVE SMOOTH",
"946 1128 OFFCURVE",
"878 1145 QCURVE",
"845 1149 LINE",
"837 1149 OFFCURVE",
"831 1145 QCURVE",
"825 1136 OFFCURVE",
"825 1128 QCURVE SMOOTH",
"825 1115 OFFCURVE",
"833 1110 QCURVE",
"876 1067 OFFCURVE",
"1023 1024 QCURVE"
);
},
{
closed = 1;
nodes = (
"715 750 OFFCURVE",
"839 626 OFFCURVE",
"839 539 QCURVE SMOOTH",
"839 451 OFFCURVE",
"717 326 OFFCURVE",
"628 326 QCURVE SMOOTH",
"541 326 OFFCURVE",
"415 444 OFFCURVE",
"415 539 QCURVE SMOOTH",
"415 628 OFFCURVE",
"539 750 OFFCURVE",
"628 750 QCURVE SMOOTH"
);
}
);
width = 1536;
}
);
note = male;
unicode = 2642;
},
{
glyphname = spade;
lastChange = "2019-11-18 14:23:36 +0000";
layers = (
{
layerId = "489D640B-457E-495A-B1F8-D23C81511CE7";
paths = (
{
closed = 1;
nodes = (
"518 1106 OFFCURVE",
"386 920 OFFCURVE",
"247 801 QCURVE SMOOTH",
"148 719 OFFCURVE",
"59 583 OFFCURVE",
"59 494 QCURVE SMOOTH",
"59 402 OFFCURVE",
"189 274 OFFCURVE",
"278 274 QCURVE SMOOTH",
"448 274 OFFCURVE",
"538 465 QCURVE",
"538 451 LINE SMOOTH",
"538 306 OFFCURVE",
"451 134 OFFCURVE",
"279 37 OFFCURVE",
"155 37 QCURVE",
"149 0 LINE",
"941 0 LINE",
"933 37 LINE",
"801 46 OFFCURVE",
"638 140 OFFCURVE",
"559 306 OFFCURVE",
"556 465 QCURVE",
"655 274 OFFCURVE",
"812 274 QCURVE SMOOTH",
"899 274 OFFCURVE",
"1029 402 OFFCURVE",
"1029 498 QCURVE SMOOTH",
"1027 569 OFFCURVE",
"957 701 OFFCURVE",
"816 827 QCURVE SMOOTH",
"665 966 OFFCURVE",
"569 1135 OFFCURVE",
"544 1231 QCURVE"
);
}
);
width = 1088;
}
);
note = spade;
unicode = 2660;
},
{
glyphname = club;
lastChange = "2019-11-18 14:23:36 +0000";
layers = (
{
layerId = "489D640B-457E-495A-B1F8-D23C81511CE7";
paths = (
{
closed = 1;
nodes = (
"1086 35 LINE",
"972 56 OFFCURVE",
"845 109 OFFCURVE",
"736 229 OFFCURVE",
"687 382 OFFCURVE",
"682 508 QCURVE",
"743 403 OFFCURVE",
"838 321 OFFCURVE",
"956 272 OFFCURVE",
"1012 272 QCURVE SMOOTH",
"1128 272 OFFCURVE",
"1284 437 OFFCURVE",
"1284 553 QCURVE SMOOTH",
"1284 669 OFFCURVE",
"1211 745 QCURVE SMOOTH",
"1143 823 OFFCURVE",
"1038 823 QCURVE SMOOTH",
"999 823 OFFCURVE",
"977 815 QCURVE",
"961 812 OFFCURVE",
"877 772 QCURVE",
"946 870 OFFCURVE",
"946 956 QCURVE SMOOTH",
"946 1063 OFFCURVE",
"786 1223 OFFCURVE",
"670 1223 QCURVE SMOOTH",
"557 1223 OFFCURVE",
"395 1073 OFFCURVE",
"395 952 QCURVE SMOOTH",
"395 914 OFFCURVE",
"406 877 QCURVE",
"423 837 OFFCURVE",
"461 772 QCURVE",
"361 823 OFFCURVE",
"299 823 QCURVE SMOOTH",
"206 822 OFFCURVE",
"60 664 OFFCURVE",
"60 549 QCURVE SMOOTH",
"60 472 OFFCURVE",
"130 346 OFFCURVE",
"259 270 OFFCURVE",
"336 270 QCURVE SMOOTH",
"425 270 OFFCURVE",
"603 388 OFFCURVE",
"660 508 QCURVE",
"662 461 LINE SMOOTH",
"662 385 OFFCURVE",
"609 236 OFFCURVE",
"514 116 OFFCURVE",
"395 62 OFFCURVE",
"260 35 QCURVE",
"252 0 LINE",
"1094 0 LINE"
);
}
);
width = 1344;
}
);
note = club;
unicode = 2663;
},
{
glyphname = heart;
lastChange = "2019-11-18 14:23:36 +0000";
layers = (
{
layerId = "489D640B-457E-495A-B1F8-D23C81511CE7";
paths = (
{
closed = 1;
nodes = (
"646 106 OFFCURVE",
"775 319 OFFCURVE",
"915 498 QCURVE SMOOTH",
"1026 635 OFFCURVE",
"1114 825 OFFCURVE",
"1114 911 QCURVE SMOOTH",
"1114 1009 OFFCURVE",
"971 1145 OFFCURVE",
"874 1145 QCURVE SMOOTH",
"786 1145 OFFCURVE",
"644 1028 OFFCURVE",
"610 909 QCURVE",
"572 1029 OFFCURVE",
"429 1143 OFFCURVE",
"342 1143 QCURVE SMOOTH",
"241 1143 OFFCURVE",
"102 1006 OFFCURVE",
"102 899 QCURVE SMOOTH",
"102 833 OFFCURVE",
"156 704 OFFCURVE",
"231 604 QCURVE SMOOTH",
"321 481 LINE SMOOTH",
"497 245 OFFCURVE",
"588 63 OFFCURVE",
"610 -23 QCURVE"
);
}
);
width = 1216;
}
);
note = heart;
unicode = 2665;
},
{
glyphname = diamond;
lastChange = "2019-11-18 14:23:36 +0000";
layers = (
{
layerId = "489D640B-457E-495A-B1F8-D23C81511CE7";
paths = (
{
closed = 1;
nodes = (
"441 1082 OFFCURVE",
"182 737 OFFCURVE",
"66 600 QCURVE",
"151 498 OFFCURVE",
"299 307 OFFCURVE",
"484 46 OFFCURVE",
"521 -25 QCURVE",
"604 123 OFFCURVE",
"910 530 OFFCURVE",
"978 600 QCURVE",
"856 737 OFFCURVE",
"591 1098 OFFCURVE",
"519 1223 QCURVE"
);
}
);
width = 1045;
}
);
note = diamond;
unicode = 2666;
},
{
glyphname = musicalnote;
lastChange = "2019-11-18 14:23:36 +0000";
layers = (
{
layerId = "489D640B-457E-495A-B1F8-D23C81511CE7";
paths = (
{
closed = 1;
nodes = (
"489 303 LINE",
"443 322 OFFCURVE",
"399 322 QCURVE SMOOTH",
"321 322 OFFCURVE",
"196 206 OFFCURVE",
"196 129 QCURVE SMOOTH",
"196 83 OFFCURVE",
"254 29 OFFCURVE",
"311 29 QCURVE SMOOTH",
"418 29 OFFCURVE",
"565 180 OFFCURVE",
"565 303 QCURVE SMOOTH",
"565 809 LINE",
"629 798 OFFCURVE",
"743 640 OFFCURVE",
"743 520 QCURVE SMOOTH",
"743 400 OFFCURVE",
"686 272 QCURVE",
"733 272 LINE",
"827 393 OFFCURVE",
"827 543 QCURVE SMOOTH",
"827 713 OFFCURVE",
"718 860 QCURVE",
"565 1053 LINE",
"565 1153 LINE",
"489 1153 LINE"
);
}
);
width = 1024;
}
);
note = musicalnote;
unicode = 266A;
},
{
glyphname = musicalnotedbl;
lastChange = "2019-11-18 14:23:36 +0000";
layers = (
{
layerId = "489D640B-457E-495A-B1F8-D23C81511CE7";
paths = (
{
closed = 1;
nodes = (
"1263 1159 LINE",
"565 981 LINE",
"565 229 LINE",
"520 248 OFFCURVE",
"475 248 QCURVE SMOOTH",
"396 251 OFFCURVE",
"272 131 OFFCURVE",
"272 55 QCURVE SMOOTH",
"272 10 OFFCURVE",
"330 -43 OFFCURVE",
"387 -43 QCURVE SMOOTH",
"502 -43 OFFCURVE",
"639 112 OFFCURVE",
"639 229 QCURVE SMOOTH",
"639 623 LINE",
"1189 772 LINE",
"1189 324 LINE",
"1147 342 OFFCURVE",
"1099 342 QCURVE SMOOTH",
"1021 342 OFFCURVE",
"899 231 OFFCURVE",
"899 150 QCURVE SMOOTH",
"899 103 OFFCURVE",
"956 49 OFFCURVE",
"1013 49 QCURVE SMOOTH",
"1086 49 OFFCURVE",
"1209 133 OFFCURVE",
"1263 246 OFFCURVE",
"1263 324 QCURVE SMOOTH"
);
},
{
closed = 1;
nodes = (
"639 864 LINE",
"1189 1016 LINE",
"1189 899 LINE",
"639 750 LINE"
);
}
);
width = 1536;
}
);
note = musicalnotedbl;
unicode = 266B;
},
{
glyphname = minute;
lastChange = "2019-11-18 14:23:36 +0000";
layers = (
{
layerId = "489D640B-457E-495A-B1F8-D23C81511CE7";
paths = (
{
closed = 1;
nodes = (
"187 890 LINE",
"345 1409 LINE",
"149 1409 LINE",
"85 890 LINE"
);
}
);
width = 384;
}
);
note = minute;
unicode = 2032;
},
{
glyphname = uni2105;
lastChange = "2019-11-18 14:23:36 +0000";
layers = (
{
layerId = "489D640B-457E-495A-B1F8-D23C81511CE7";
paths = (
{
closed = 1;
nodes = (
"1744 656 OFFCURVE",
"1592 885 OFFCURVE",
"1428 885 QCURVE SMOOTH",
"1262 885 OFFCURVE",
"1109 662 OFFCURVE",
"1109 434 QCURVE SMOOTH",
"1109 213 OFFCURVE",
"1268 -12 OFFCURVE",
"1424 -12 QCURVE SMOOTH",
"1582 -12 OFFCURVE",
"1744 219 OFFCURVE",
"1744 434 QCURVE SMOOTH"
);
},
{
closed = 1;
nodes = (
"1447 1409 LINE",
"1290 1409 LINE",
"368 0 LINE",
"523 0 LINE"
);
},
{
closed = 1;
nodes = (
"1596 265 OFFCURVE",
"1514 98 OFFCURVE",
"1426 98 QCURVE SMOOTH",
"1335 98 OFFCURVE",
"1256 263 OFFCURVE",
"1256 434 QCURVE SMOOTH",
"1256 616 OFFCURVE",
"1337 774 OFFCURVE",
"1428 774 QCURVE SMOOTH",
"1519 774 OFFCURVE",
"1596 613 OFFCURVE",
"1596 434 QCURVE SMOOTH"
);
},
{
closed = 1;
nodes = (
"215 1143 OFFCURVE",
"302 1307 OFFCURVE",
"410 1307 QCURVE SMOOTH",
"485 1307 OFFCURVE",
"568 1222 OFFCURVE",
"578 1150 QCURVE",
"721 1161 LINE",
"702 1279 OFFCURVE",
"540 1420 OFFCURVE",
"414 1420 QCURVE SMOOTH",
"245 1420 OFFCURVE",
"69 1187 OFFCURVE",
"69 972 QCURVE SMOOTH",
"69 754 OFFCURVE",
"246 522 OFFCURVE",
"415 522 QCURVE SMOOTH",
"546 522 OFFCURVE",
"712 674 OFFCURVE",
"726 796 QCURVE",
"585 805 LINE",
"574 718 OFFCURVE",
"480 636 OFFCURVE",
"411 636 QCURVE SMOOTH",
"215 636 OFFCURVE",
"215 975 QCURVE SMOOTH"
);
}
);
width = 1813;
}
);
note = uni2105;
unicode = 2105;
},
